<?xml version="1.0" encoding="UTF-8"?>
<svg width="110px" height="32px" viewBox="0 0 110 32" version="1.1" xmlns="http://www.w3.org/2000/svg" xmlns:xlink="http://www.w3.org/1999/xlink">
    <!-- Generator: Sketch 42 (36781) - http://www.bohemiancoding.com/sketch -->
    <title>Artboard</title>
    <desc>Created with Sketch.</desc>
    <defs></defs>
    <g id="Page-1" stroke="none" stroke-width="1" fill="none" fill-rule="evenodd">
        <g id="Artboard">
            <g id="ico-cdlogo-full">
                <g transform="translate(33.000000, 2.000000)" id="Currencies-Direct" fill="#2A2A2A">
                    <path d="M6.64,12.192 C8.448,12.192 9.648,11.616 10.704,10.688 C10.88,10.528 11.024,10.288 11.024,9.984 C11.024,9.488 10.592,9.072 10.096,9.072 C9.856,9.072 9.648,9.168 9.504,9.296 C8.688,9.984 7.888,10.368 6.704,10.368 C4.56,10.368 3.008,8.592 3.008,6.4 L3.008,6.368 C3.008,4.176 4.576,2.416 6.704,2.416 C7.776,2.416 8.608,2.8 9.376,3.424 C9.504,3.52 9.696,3.616 9.968,3.616 C10.512,3.616 10.944,3.2 10.944,2.656 C10.944,2.304 10.768,2.032 10.56,1.872 C9.584,1.12 8.448,0.608 6.72,0.608 C3.328,0.608 0.944,3.216 0.944,6.4 L0.944,6.432 C0.944,9.648 3.376,12.192 6.64,12.192 Z M19.6391112,4.432 C19.6391112,3.888 19.1911112,3.456 18.6631112,3.456 C18.1191112,3.456 17.6871112,3.888 17.6871112,4.432 L17.6871112,8.32 C17.6871112,9.632 16.9031112,10.4 15.7831112,10.4 C14.6311112,10.4 13.9751112,9.664 13.9751112,8.352 L13.9751112,4.432 C13.9751112,3.888 13.5431112,3.456 12.9991112,3.456 C12.4711112,3.456 12.0391112,3.888 12.0391112,4.432 L12.0391112,8.928 C12.0391112,10.896 13.1431112,12.176 15.0471112,12.176 C16.3591112,12.176 17.1431112,11.488 17.6871112,10.688 L17.6871112,11.12 C17.6871112,11.664 18.1351112,12.08 18.6631112,12.08 C19.2071112,12.08 19.6391112,11.648 19.6391112,11.12 L19.6391112,4.432 Z M21.1662223,11.12 C21.1662223,11.664 21.5982223,12.08 22.1262223,12.08 C22.6702223,12.08 23.1022223,11.648 23.1022223,11.12 L23.1022223,8.624 C23.1022223,6.624 24.0462223,5.568 25.4222223,5.328 C25.8542223,5.248 26.1902223,4.912 26.1902223,4.4 C26.1902223,3.84 25.8382223,3.44 25.2302223,3.44 C24.3822223,3.44 23.5502223,4.24 23.1022223,5.296 L23.1022223,4.432 C23.1022223,3.888 22.6702223,3.456 22.1262223,3.456 C21.5822223,3.456 21.1662223,3.888 21.1662223,4.432 L21.1662223,11.12 Z M26.8853335,11.12 L26.8853335,4.432 C26.8853335,3.888 27.3013335,3.456 27.8453335,3.456 C28.3893335,3.456 28.8213335,3.888 28.8213335,4.432 L28.8213335,5.296 C29.2693335,4.24 30.1013335,3.44 30.9493335,3.44 C31.5573335,3.44 31.9093335,3.84 31.9093335,4.4 C31.9093335,4.912 31.5733335,5.248 31.1413335,5.328 C29.7653335,5.568 28.8213335,6.624 28.8213335,8.624 L28.8213335,11.12 C28.8213335,11.648 28.3893335,12.08 27.8453335,12.08 C27.3173335,12.08 26.8853335,11.664 26.8853335,11.12 Z M33.7724447,7.184 L38.1084447,7.184 C37.9804447,5.936 37.2444447,4.96 35.9644447,4.96 C34.7804447,4.96 33.9484447,5.872 33.7724447,7.184 Z M39.2284447,11.072 C38.4604447,11.76 37.5004447,12.192 36.1884447,12.192 C33.7404447,12.192 31.8524447,10.416 31.8524447,7.808 L31.8524447,7.776 C31.8524447,5.36 33.5644447,3.376 35.9804447,3.376 C38.6684447,3.376 39.9964447,5.584 39.9964447,7.536 C39.9964447,8.08 39.5804447,8.464 39.0844447,8.464 L33.7884447,8.464 C33.9964447,9.84 34.9724447,10.608 36.2204447,10.608 C37.0364447,10.608 37.6764447,10.32 38.2204447,9.872 C38.3644447,9.76 38.4924447,9.696 38.7164447,9.696 C39.1484447,9.696 39.4844447,10.032 39.4844447,10.48 C39.4844447,10.72 39.3724447,10.928 39.2284447,11.072 Z M41.0915558,11.12 C41.0915558,11.664 41.5235558,12.08 42.0515558,12.08 C42.5955558,12.08 43.0275558,11.664 43.0275558,11.12 L43.0275558,7.232 C43.0275558,5.92 43.8115558,5.136 44.9315558,5.136 C46.0835558,5.136 46.7395558,5.888 46.7395558,7.2 L46.7395558,11.12 C46.7395558,11.664 47.1715558,12.08 47.7155558,12.08 C48.2595558,12.08 48.6755558,11.664 48.6755558,11.12 L48.6755558,6.608 C48.6755558,4.656 47.5715558,3.376 45.6675558,3.376 C44.3555558,3.376 43.5715558,4.064 43.0275558,4.848 L43.0275558,4.432 C43.0275558,3.888 42.5955558,3.456 42.0515558,3.456 C41.5075558,3.456 41.0915558,3.888 41.0915558,4.432 L41.0915558,11.12 Z M54.026667,12.192 C55.434667,12.192 56.346667,11.712 57.098667,10.992 C57.274667,10.848 57.370667,10.64 57.370667,10.384 C57.370667,9.92 57.002667,9.536 56.538667,9.536 C56.314667,9.536 56.122667,9.648 56.010667,9.744 C55.482667,10.192 54.890667,10.496 54.122667,10.496 C52.634667,10.496 51.594667,9.296 51.594667,7.792 L51.594667,7.76 C51.594667,6.288 52.634667,5.072 54.042667,5.072 C54.810667,5.072 55.354667,5.376 55.850667,5.792 C55.978667,5.888 56.186667,5.984 56.426667,5.984 C56.922667,5.984 57.322667,5.6 57.322667,5.104 C57.322667,4.784 57.146667,4.544 57.018667,4.432 C56.298667,3.808 55.386667,3.376 54.058667,3.376 C51.514667,3.376 49.658667,5.392 49.658667,7.792 L49.658667,7.824 C49.658667,10.224 51.514667,12.192 54.026667,12.192 Z M58.3377781,1.376 C58.3377781,1.952 58.8177781,2.336 59.4417781,2.336 C60.0657781,2.336 60.5457781,1.952 60.5457781,1.376 L60.5457781,1.28 C60.5457781,0.704 60.0657781,0.336 59.4417781,0.336 C58.8177781,0.336 58.3377781,0.704 58.3377781,1.28 L58.3377781,1.376 Z M58.4817781,11.12 C58.4817781,11.664 58.9137781,12.08 59.4417781,12.08 C59.9857781,12.08 60.4177781,11.664 60.4177781,11.12 L60.4177781,4.432 C60.4177781,3.888 59.9857781,3.456 59.4417781,3.456 C58.8977781,3.456 58.4817781,3.888 58.4817781,4.432 L58.4817781,11.12 Z M63.5128893,7.184 L67.8488893,7.184 C67.7208893,5.936 66.9848893,4.96 65.7048893,4.96 C64.5208893,4.96 63.6888893,5.872 63.5128893,7.184 Z M68.9688893,11.072 C68.2008893,11.76 67.2408893,12.192 65.9288893,12.192 C63.4808893,12.192 61.5928893,10.416 61.5928893,7.808 L61.5928893,7.776 C61.5928893,5.36 63.3048893,3.376 65.7208893,3.376 C68.4088893,3.376 69.7368893,5.584 69.7368893,7.536 C69.7368893,8.08 69.3208893,8.464 68.8248893,8.464 L63.5288893,8.464 C63.7368893,9.84 64.7128893,10.608 65.9608893,10.608 C66.7768893,10.608 67.4168893,10.32 67.9608893,9.872 C68.1048893,9.76 68.2328893,9.696 68.4568893,9.696 C68.8888893,9.696 69.2248893,10.032 69.2248893,10.48 C69.2248893,10.72 69.1128893,10.928 68.9688893,11.072 Z M73.7280005,12.16 C75.4880005,12.16 76.8640005,11.28 76.8640005,9.504 L76.8640005,9.472 C76.8640005,7.952 75.4720005,7.392 74.2400005,7.008 C73.2480005,6.688 72.3360005,6.432 72.3360005,5.808 L72.3360005,5.776 C72.3360005,5.296 72.7680005,4.944 73.5200005,4.944 C74.1120005,4.944 74.8160005,5.168 75.5040005,5.52 C75.6320005,5.584 75.7280005,5.616 75.8880005,5.616 C76.3360005,5.616 76.6880005,5.28 76.6880005,4.832 C76.6880005,4.496 76.4960005,4.24 76.2240005,4.096 C75.4080005,3.664 74.4640005,3.408 73.5680005,3.408 C71.8880005,3.408 70.5600005,4.384 70.5600005,5.984 L70.5600005,6.016 C70.5600005,7.632 71.9520005,8.144 73.2000005,8.496 C74.1920005,8.8 75.0880005,9.024 75.0880005,9.68 L75.0880005,9.712 C75.0880005,10.272 74.6080005,10.624 73.7760005,10.624 C73.0080005,10.624 72.1600005,10.352 71.3440005,9.808 C71.2320005,9.744 71.0880005,9.696 70.9280005,9.696 C70.4800005,9.696 70.1440005,10.048 70.1440005,10.48 C70.1440005,10.8 70.3040005,11.04 70.5120005,11.152 C71.4880005,11.824 72.6560005,12.16 73.7280005,12.16 Z M1.44,27.008 L1.44,17.792 C1.44,17.232 1.872,16.8 2.432,16.8 L5.616,16.8 C9.136,16.8 11.568,19.216 11.568,22.368 L11.568,22.4 C11.568,25.552 9.136,28 5.616,28 L2.432,28 C1.872,28 1.44,27.568 1.44,27.008 Z M3.408,26.208 L5.616,26.208 C7.968,26.208 9.504,24.624 9.504,22.432 L9.504,22.4 C9.504,20.208 7.968,18.592 5.616,18.592 L3.408,18.592 L3.408,26.208 Z M12.8071112,17.376 C12.8071112,17.952 13.2871112,18.336 13.9111112,18.336 C14.5351112,18.336 15.0151112,17.952 15.0151112,17.376 L15.0151112,17.28 C15.0151112,16.704 14.5351112,16.336 13.9111112,16.336 C13.2871112,16.336 12.8071112,16.704 12.8071112,17.28 L12.8071112,17.376 Z M12.9511112,27.12 C12.9511112,27.664 13.3831112,28.08 13.9111112,28.08 C14.4551112,28.08 14.8871112,27.664 14.8871112,27.12 L14.8871112,20.432 C14.8871112,19.888 14.4551112,19.456 13.9111112,19.456 C13.3671112,19.456 12.9511112,19.888 12.9511112,20.432 L12.9511112,27.12 Z M16.5262223,27.12 L16.5262223,20.432 C16.5262223,19.888 16.9422223,19.456 17.4862223,19.456 C18.0302223,19.456 18.4622223,19.888 18.4622223,20.432 L18.4622223,21.296 C18.9102223,20.24 19.7422223,19.44 20.5902223,19.44 C21.1982223,19.44 21.5502223,19.84 21.5502223,20.4 C21.5502223,20.912 21.2142223,21.248 20.7822223,21.328 C19.4062223,21.568 18.4622223,22.624 18.4622223,24.624 L18.4622223,27.12 C18.4622223,27.648 18.0302223,28.08 17.4862223,28.08 C16.9582223,28.08 16.5262223,27.664 16.5262223,27.12 Z M23.4133335,23.184 L27.7493335,23.184 C27.6213335,21.936 26.8853335,20.96 25.6053335,20.96 C24.4213335,20.96 23.5893335,21.872 23.4133335,23.184 Z M28.8693335,27.072 C28.1013335,27.76 27.1413335,28.192 25.8293335,28.192 C23.3813335,28.192 21.4933335,26.416 21.4933335,23.808 L21.4933335,23.776 C21.4933335,21.36 23.2053335,19.376 25.6213335,19.376 C28.3093335,19.376 29.6373335,21.584 29.6373335,23.536 C29.6373335,24.08 29.2213335,24.464 28.7253335,24.464 L23.4293335,24.464 C23.6373335,25.84 24.6133335,26.608 25.8613335,26.608 C26.6773335,26.608 27.3173335,26.32 27.8613335,25.872 C28.0053335,25.76 28.1333335,25.696 28.3573335,25.696 C28.7893335,25.696 29.1253335,26.032 29.1253335,26.48 C29.1253335,26.72 29.0133335,26.928 28.8693335,27.072 Z M34.6364447,28.192 C36.0444447,28.192 36.9564447,27.712 37.7084447,26.992 C37.8844447,26.848 37.9804447,26.64 37.9804447,26.384 C37.9804447,25.92 37.6124447,25.536 37.1484447,25.536 C36.9244447,25.536 36.7324447,25.648 36.6204447,25.744 C36.0924447,26.192 35.5004447,26.496 34.7324447,26.496 C33.2444447,26.496 32.2044447,25.296 32.2044447,23.792 L32.2044447,23.76 C32.2044447,22.288 33.2444447,21.072 34.6524447,21.072 C35.4204447,21.072 35.9644447,21.376 36.4604447,21.792 C36.5884447,21.888 36.7964447,21.984 37.0364447,21.984 C37.5324447,21.984 37.9324447,21.6 37.9324447,21.104 C37.9324447,20.784 37.7564447,20.544 37.6284447,20.432 C36.9084447,19.808 35.9964447,19.376 34.6684447,19.376 C32.1244447,19.376 30.2684447,21.392 30.2684447,23.792 L30.2684447,23.824 C30.2684447,26.224 32.1244447,28.192 34.6364447,28.192 Z M41.8115558,28.144 C42.3235558,28.144 42.7235558,28.064 43.1395558,27.92 C43.4115558,27.808 43.6515558,27.52 43.6515558,27.168 C43.6515558,26.72 43.2675558,26.368 42.8355558,26.368 C42.7715558,26.368 42.5795558,26.416 42.3555558,26.416 C41.6995558,26.416 41.3155558,26.112 41.3155558,25.36 L41.3155558,21.216 L42.8355558,21.216 C43.2995558,21.216 43.6835558,20.848 43.6835558,20.384 C43.6835558,19.92 43.2995558,19.552 42.8355558,19.552 L41.3155558,19.552 L41.3155558,18.112 C41.3155558,17.584 40.8835558,17.152 40.3555558,17.152 C39.8115558,17.152 39.3795558,17.584 39.3795558,18.112 L39.3795558,19.552 L39.0595558,19.552 C38.5955558,19.552 38.2275558,19.92 38.2275558,20.384 C38.2275558,20.848 38.5955558,21.216 39.0595558,21.216 L39.3795558,21.216 L39.3795558,25.664 C39.3795558,27.52 40.3875558,28.144 41.8115558,28.144 Z"></path>
                </g>
                <g id="ico-cdlogo-watermark-32" fill="#F64200">
                    <g id="ico-cdlogo-full" transform="translate(3.000000, 3.000000)">
                        <g id="Logo" fill-rule="nonzero">
                            <path d="M24.8780403,6.86632922 C22.5362402,2.6593429 18.1454793,0 13.2957178,0 C5.94980008,0 0,6.04701713 0,13.5 C0,20.9529829 5.94980008,27 13.2957178,27 C18.0877884,27 22.4341903,24.4038071 24.7976175,20.2761165 C25.0620553,19.81428 24.9030985,19.2249059 24.4425778,18.9597126 C23.982057,18.6945193 23.394362,18.8539302 23.1299243,19.3157668 C21.1049917,22.8522815 17.3898189,25.0714286 13.2957178,25.0714286 C7.01767724,25.0714286 1.92307692,19.8935848 1.92307692,13.5 C1.92307692,7.10641521 7.01767724,1.92857143 13.2957178,1.92857143 C17.4391062,1.92857143 21.1924375,4.20184368 23.1988828,7.80637344 C23.4577293,8.27138479 24.043458,8.4379149 24.5071446,8.17832886 C24.9708311,7.91874281 25.1368868,7.33134057 24.8780403,6.86632922 Z" id="Oval"></path>
                            <path d="M5.76923077,15.4285714 C5.76923077,14.8960111 6.1997262,14.4642857 6.73076923,14.4642857 L20.1923077,14.4642857 C20.7233507,14.4642857 21.1538462,14.8960111 21.1538462,15.4285714 C21.1538462,16.6605818 20.7773844,17.8438675 20.0786213,18.8760306 C18.6979763,20.915421 16.1976624,22.1785714 13.4615385,22.1785714 C9.24326622,22.1785714 5.76923077,19.1923189 5.76923077,15.4285714 Z M13.4615385,20.25 C15.5746038,20.25 17.4734962,19.2906858 18.4875819,17.7927507 C18.7840092,17.3548892 18.9952133,16.8838361 19.1149401,16.3928571 L7.80899066,16.3928571 C8.34293449,18.5713548 10.6484914,20.25 13.4615385,20.25 Z" id="Oval-Copy"></path>
                        </g>
                    </g>
                </g>
            </g>
        </g>
    </g>
</svg>