<?xml version="1.0" encoding="UTF-8"?>
<svg width="28px" height="29px" viewBox="0 0 28 29" version="1.1" xmlns="http://www.w3.org/2000/svg" xmlns:xlink="http://www.w3.org/1999/xlink">
    <!-- Generator: sketchtool 41.2 (35397) - http://www.bohemiancoding.com/sketch -->
    <title>34CEC4F1-AA97-4F08-BA00-0C2AE5E48D83</title>
    <desc>Created with sketchtool.</desc>
    <defs></defs>
    <g id="Symbols" stroke="none" stroke-width="1" fill="none" fill-rule="evenodd">
        <g id="nav-progressbar-1" transform="translate(-150.000000, -24.000000)" fill="#f64200">
            <g id="Header">
                <g id="ico-cdlogo-orange" transform="translate(148.000000, 22.000000)">
                    <g id="Group-2" transform="translate(2.000000, 2.000000)">
                        <path d="M27.4059525,7.88419242 C24.940611,3.08386005 19.9945189,0 14.5,0 C6.49187113,0 0,6.49187113 0,14.5 C0,22.5081289 6.49187113,29 14.5,29 C19.9188455,29 24.8079042,26.0007811 27.307953,21.3032388 C27.5674228,20.8157002 27.3825365,20.2101303 26.8949979,19.9506605 C26.4074593,19.6911907 25.8018893,19.876077 25.5424196,20.3636156 C23.3863419,24.4148431 19.17225,27 14.5,27 C7.59644063,27 2,21.4035594 2,14.5 C2,7.59644063 7.59644063,2 14.5,2 C19.2374271,2 23.5008108,4.65819524 25.6268645,8.7978915 C25.8791755,9.28917307 26.4819765,9.48289697 26.973258,9.23058594 C27.4645396,8.9782749 27.6582635,8.37547399 27.4059525,7.88419242 Z" id="Oval-3"></path>
                        <path d="M6,15 C6,19.6944204 9.80557963,23.5 14.5,23.5 C19.1944204,23.5 23,19.6944204 23,15 C23,14.4477153 22.5522847,14 22,14 L7,14 C6.44771525,14 6,14.4477153 6,15 Z M20.9235518,16 C20.4425466,19.1150901 17.7497861,21.5 14.5,21.5 C11.2502139,21.5 8.55745336,19.1150901 8.07644818,16 L20.9235518,16 Z" id="Oval-Copy-2"></path>
                    </g>
                </g>
            </g>
        </g>
    </g>
</svg>