<?xml version="1.0" encoding="UTF-8"?>
<svg width="18px" height="19px" viewBox="0 0 18 19" version="1.1" xmlns="http://www.w3.org/2000/svg" xmlns:xlink="http://www.w3.org/1999/xlink">
    <!-- Generator: Sketch 42 (36781) - http://www.bohemiancoding.com/sketch -->
    <title>ic-chat</title>
    <desc>Created with Sketch.</desc>
    <defs>
        <path d="M21,6.82296143 L21,3.94500193 C21,3.42373052 20.6003592,3 20.1073772,3 L3.8926228,3 C3.40977502,3 3,3.42227782 3,3.94318391 L3,15.7790383 C3,16.2964961 3.39964084,16.7222222 3.8926228,16.7222222 L8.25,16.7222222 L12,22 L15.75,16.7222222 L20.1073772,16.7222222 C20.590225,16.7222222 21,16.2947691 21,15.767479 L21,12.9479614" id="path-1"></path>
        <mask id="mask-2" maskContentUnits="userSpaceOnUse" maskUnits="objectBoundingBox" x="0" y="0" width="18" height="19" fill="white">
            <use xlink:href="#path-1"></use>
        </mask>
    </defs>
    <g id="Page-1" stroke="none" stroke-width="1" fill="none" fill-rule="evenodd">
        <g id="CD-slim-footer-02" transform="translate(-879.000000, -331.000000)">
            <g id="Group-9" transform="translate(859.000000, 174.000000)">
                <g id="Group-8" transform="translate(17.000000, 119.000000)">
                    <g id="Group-4" transform="translate(0.000000, 35.000000)">
                        <g id="ic-chat">
                            <g id="Group">
                                <g>
                                    <polygon id="bound" points="0 0 24 0 24 24 0 24"></polygon>
                                    <use id="Combined-Shape" stroke="#000000" mask="url(#mask-2)" stroke-width="4" stroke-linecap="round" stroke-linejoin="round" xlink:href="#path-1"></use>
                                    <path d="M8,8 L16,8" id="Line" stroke="#000000" stroke-width="2" stroke-linecap="round" stroke-linejoin="round"></path>
                                    <path d="M8,12 L16,12" id="Line" stroke="#000000" stroke-width="2" stroke-linecap="round" stroke-linejoin="round"></path>
                                </g>
                            </g>
                        </g>
                    </g>
                </g>
            </g>
        </g>
    </g>
</svg>