<svg width="19" height="19" viewBox="0 0 19 19" xmlns="http://www.w3.org/2000/svg"><title>7357E783-B6B5-433E-B4BC-8087F39146AC</title><path d="M10.069 19H1.04C.466 19 0 18.53 0 17.951V1.05C0 .469.466 0 1.04 0h16.77c.574 0 1.04.47 1.04 1.049V17.95c0 .58-.466 1.049-1.04 1.049h-4.804v-7.358h2.45l.367-2.867h-2.817V6.944c0-.83.23-1.396 1.41-1.396h1.507V2.982a19.981 19.981 0 0 0-2.196-.113c-2.171 0-3.658 1.336-3.658 3.79v2.115H7.612v2.867h2.457V19z" fill="#000" fill-rule="evenodd" fill-opacity=".54"/></svg>