<svg width="26" height="17" viewBox="0 0 26 17" xmlns="http://www.w3.org/2000/svg"><title>3A418A09-2C13-4C55-BC45-67FDCDBCD3BC</title><path d="M23.067 6.831v-2.88H21.03v2.88h-2.934V8.89h2.934v2.963h2.038V8.889h2.853V6.83h-2.853zM8.232 6.667v3.292s3.163-.004 4.451-.004c-.697 2.134-1.782 3.296-4.45 3.296-2.702 0-4.81-2.21-4.81-4.938 0-2.728 2.108-4.938 4.81-4.938 1.427 0 2.35.506 3.196 1.213.677-.684.62-.781 2.343-2.424A8.159 8.159 0 0 0 8.232 0C3.686 0 0 3.722 0 8.313c0 4.59 3.686 8.313 8.232 8.313 6.796 0 8.458-5.976 7.907-9.96H8.232z" fill="#000" fill-rule="evenodd" fill-opacity=".54"/></svg>