<?xml version="1.0" encoding="UTF-8"?>
<svg width="20px" height="20px" viewBox="0 0 20 20" version="1.1" xmlns="http://www.w3.org/2000/svg" xmlns:xlink="http://www.w3.org/1999/xlink">
    <!-- Generator: Sketch 42 (36781) - http://www.bohemiancoding.com/sketch -->
    <title>ic-help</title>
    <desc>Created with Sketch.</desc>
    <defs></defs>
    <g id="Page-1" stroke="none" stroke-width="1" fill="none" fill-rule="evenodd">
        <g id="CD-slim-footer-01" transform="translate(-1009.000000, -475.000000)">
            <g id="Group-3" transform="translate(989.000000, 466.000000)">
                <g id="ic-help" transform="translate(18.000000, 7.000000)">
                    <g id="Group-2">
                        <polygon id="bound" points="0 0 24 0 24 24 0 24"></polygon>
                        <path d="M19.7590401,16.5632286 C20.1034949,15.9788001 20.3838031,15.3520469 20.5902827,14.6926508 C20.8565098,13.84245 21,12.937982 21,12 C21,7.02943725 16.9705627,3 12,3 C7.02943725,3 3,7.02943725 3,12 C3,16.9705627 7.02943725,21 12,21 C13.505009,21 14.9237371,20.6305876 16.1704565,19.9774906" id="Oval-5" stroke="#FFFFFF" stroke-width="2" stroke-linecap="round"></path>
                        <path d="M11.9999979,6 C10.0118878,6 8.4016085,7.61027925 8.4016085,9.59838939 C8.4016085,9.59838939 8.38096344,10.3993737 9.30464669,10.3993737 C10.2283299,10.3993737 10.2008032,9.59838939 10.2008032,9.59838939 C10.2008032,8.60883231 11.0104408,7.7991947 11.9999979,7.7991947 C12.989555,7.7991947 13.7991926,8.60883231 13.7991926,9.59838939 C13.7991926,11.3975841 11.1004005,11.1726848 11.1004005,14.0963761 C11.1004005,14.0963761 11.093226,15 11.9999979,15 C12.9067698,15 12.8995952,14.0963761 12.8995952,14.0963761 C12.8995952,12.0722821 15.5983873,11.8473828 15.5983873,9.59838939 C15.5983873,7.61027925 13.988108,6 11.9999979,6 Z" id="Path" fill="#FFFFFF"></path>
                        <circle id="Oval-2" fill="#FFFFFF" cx="12" cy="17" r="1"></circle>
                    </g>
                </g>
            </g>
        </g>
    </g>
</svg>