<?xml version="1.0" encoding="utf-8"?>
<!-- Generator: Adobe Illustrator 16.0.0, SVG Export Plug-In . SVG Version: 6.00 Build 0)  -->
<!DOCTYPE svg PUBLIC "-//W3C//DTD SVG 1.1//EN" "http://www.w3.org/Graphics/SVG/1.1/DTD/svg11.dtd">
<svg version="1.1" id="Layer_1" xmlns="http://www.w3.org/2000/svg" xmlns:xlink="http://www.w3.org/1999/xlink" x="0px" y="0px"
	 width="20px" height="20px" viewBox="0 0 20 20" enable-background="new 0 0 20 20" xml:space="preserve">
<title>ic-help</title>
<desc>Created with Sketch.</desc>
<g id="ic-help" transform="translate(18.000000, 7.000000)">
	<g id="Group-2">
		<polygon id="bound" fill="none" points="-20,-9 4,-9 4,15 -20,15 		"/>
		<path id="Oval-5" fill="none" stroke="#FFFFFF" stroke-width="2" stroke-linecap="round" d="M-0.24,7.563
			c0.344-0.585,0.624-1.212,0.83-1.871C0.856,4.842,1,3.938,1,3c0-4.971-4.029-9-9-9s-9,4.029-9,9s4.029,9,9,9
			c1.505,0,2.924-0.369,4.17-1.022"/>
	</g>
</g>
<g id="Page-2">
	<g id="_x32_-SignUp6-KYC-DocumentUpload-Incomplete_x28_a_x29_" transform="translate(-1087.000000, -1430.000000)">
		<g id="Group-3_1_" transform="translate(1068.000000, 1412.923077)">
			<g id="ic-help_1_" transform="translate(12.000000, 9.692308)">
				<g id="Group-2_1_">
					<g id="ic-close" transform="translate(4.000000, 4.307692)">
						<g>
							<polygon id="bound_1_" fill="none" points="7.752,7.479 18.248,7.479 18.248,18.675 7.752,18.675 							"/>
							
								<g id="group" transform="translate(7.500000, 8.000000) rotate(-45.000000) translate(-7.500000, -8.000000) translate(3.125000, 3.333333)">
								<path id="Line" fill="none" stroke="#FFFFFF" stroke-width="2" stroke-linecap="round" d="M4.674,8.88v6.532"/>
								<path id="Line_1_" fill="none" stroke="#FFFFFF" stroke-width="2" stroke-linecap="round" d="M1.613,12.146l6.123,0"/>
							</g>
						</g>
					</g>
				</g>
			</g>
		</g>
	</g>
</g>
</svg>
