<svg width="18" height="16" viewBox="0 0 18 16" xmlns="http://www.w3.org/2000/svg"><title>7BDFCEE8-6295-4DA6-B565-188DAC358E44</title><path d="M17.28 15.833h-3.82v-5.566c0-1.457-.597-2.451-1.91-2.451-1.005 0-1.564.671-1.824 1.318-.098.232-.083.555-.083.879v5.82H5.86s.049-9.86 0-10.756h3.783v1.688c.224-.738 1.433-1.791 3.362-1.791 2.394 0 4.274 1.547 4.274 4.879v5.98zM2.033 3.732H2.01C.79 3.732 0 2.91 0 1.868 0 .805.814 0 2.057 0 3.3 0 4.064.803 4.088 1.864c0 1.043-.788 1.868-2.054 1.868zM.436 5.077h3.368v10.756H.436V5.077z" fill="#000" fill-rule="evenodd" fill-opacity=".54"/></svg>