<svg xmlns="http://www.w3.org/2000/svg" width="37" height="33" viewBox="0 0 37 33">
    <path fill="#FFF" fill-rule="nonzero" stroke="#FFF" stroke-width=".5" d="M1.441 32H35.56c.264 0 .441-.18.441-.449s-.177-.448-.441-.448h-6.841v-8.076c0-.986.794-1.794 1.765-1.794.971 0 1.765.808 1.765 1.794 0 .27.177.45.442.45s.441-.18.441-.45c0-1.48-1.192-2.691-2.648-2.691-.265 0-.53.045-.794.134.308-.269.706-.538 1.103-.673a3.346 3.346 0 0 1 2.78.135c.221.09.486 0 .574-.224.089-.225 0-.494-.22-.584a4.197 4.197 0 0 0-3.443-.134 4.262 4.262 0 0 0-1.589 1.032c.486-1.436 1.854-2.513 3.443-2.513.265 0 .441-.179.441-.448 0-.27-.176-.449-.441-.449-1.5 0-2.825.763-3.664 1.884v-2.87c0-.27-.176-.45-.441-.45s-.441.18-.441.45v2.826c-.839-1.122-2.163-1.885-3.664-1.885-.264 0-.441.18-.441.449 0 .27.177.449.441.449a3.625 3.625 0 0 1 3.443 2.512 4.646 4.646 0 0 0-1.589-1.032c-1.147-.404-2.383-.359-3.443.135-.22.09-.308.358-.22.583.088.224.353.314.574.224a3.727 3.727 0 0 1 2.78-.134c.397.134.795.403 1.104.672a2.463 2.463 0 0 0-.795-.134c-1.456 0-2.648 1.211-2.648 2.692 0 .269.176.448.441.448s.442-.18.442-.448c0-.987.794-1.795 1.765-1.795.971 0 1.766.808 1.766 1.795v8.075h-7.195V10.87c0-1.346 1.06-2.423 2.384-2.423 1.324 0 2.383 1.077 2.383 2.423 0 .269.177.448.441.448.265 0 .442-.18.442-.448 0-1.84-1.457-3.32-3.266-3.32-.53 0-1.06.135-1.5.404a4.71 4.71 0 0 1 5.516-1.167c.22.09.486 0 .574-.224.088-.224 0-.494-.22-.583-2.34-1.077-4.988-.404-6.621 1.48.485-2.108 2.339-3.723 4.59-3.723.265 0 .441-.18.441-.449 0-.27-.176-.449-.441-.449-1.986 0-3.708 1.032-4.723 2.647V1.45c0-.27-.176-.449-.441-.449s-.441.18-.441.449v4.037c-1.016-1.57-2.737-2.647-4.723-2.647-.265 0-.441.18-.441.449 0 .27.176.449.441.449 2.251 0 4.105 1.57 4.59 3.723a5.596 5.596 0 0 0-6.62-1.48c-.22.09-.31.359-.22.583.087.224.352.314.573.224 1.942-.897 4.149-.359 5.517 1.167-.441-.225-.971-.404-1.5-.404-1.81 0-3.267 1.48-3.267 3.32 0 .269.177.448.442.448.264 0 .44-.18.44-.448 0-1.346 1.06-2.423 2.384-2.423 1.324 0 2.384 1.077 2.384 2.423v20.233h-9.357V20.874c0-1.3 1.059-2.378 2.339-2.378s2.34 1.077 2.34 2.378c0 .27.176.449.44.449.265 0 .442-.18.442-.449 0-1.794-1.457-3.275-3.222-3.275-.53 0-1.06.135-1.5.359a4.394 4.394 0 0 1 1.897-1.301 4.504 4.504 0 0 1 3.575.135c.22.09.486 0 .574-.225.088-.224 0-.493-.22-.583-1.369-.628-2.87-.718-4.282-.18-.883.36-1.677.898-2.295 1.616.486-2.109 2.34-3.679 4.546-3.679.265 0 .441-.18.441-.449s-.176-.448-.441-.448a5.469 5.469 0 0 0-4.678 2.602v-3.993c0-.27-.177-.449-.442-.449s-.441.18-.441.449v3.993a5.525 5.525 0 0 0-4.679-2.602c-.264 0-.44.18-.44.448 0 .27.176.449.44.449 2.207 0 4.061 1.57 4.546 3.679-.617-.718-1.412-1.301-2.295-1.615-1.412-.539-2.913-.449-4.28.18-.222.089-.31.358-.222.582.089.225.354.314.574.225a4.51 4.51 0 0 1 3.575-.135c.75.27 1.369.718 1.898 1.301a3.369 3.369 0 0 0-1.5-.359c-1.766 0-3.222 1.48-3.222 3.275 0 .27.176.449.44.449.266 0 .442-.18.442-.449 0-1.3 1.06-2.378 2.34-2.378 1.28 0 2.339 1.077 2.339 2.378v10.229h-7.9c-.265 0-.442.18-.442.448 0 .27.177.449.441.449z"/>
</svg>
