<svg width="27" height="25" viewBox="0 0 27 25" xmlns="http://www.w3.org/2000/svg"><title>4CFA9939-963A-48F6-9888-10DFE9EC8F33</title><path d="M10.33 2.16c1.614-2.878 4.713-2.882 6.331 0l9.705 17.28c1.605 2.858.031 5.56-3.238 5.56H3.875C.603 25-.972 22.303.635 19.44l9.694-17.28zm3.977 1.327c-.584-1.04-1.17-.839-1.623 0l-9.695 17.28c-.46.906-.321 1.527.886 1.527h19.253c.884 0 1.477-.472.884-1.527l-9.705-17.28zm-.812 17.453c-.746 0-1.35-.605-1.35-1.353 0-.747.604-1.353 1.35-1.353.745 0 1.35.606 1.35 1.353 0 .748-.605 1.353-1.35 1.353zm-1.35-12.174a1.35 1.35 0 1 1 2.7 0v7.119c0 .55-.446.996-1.006.996h-.69a1.008 1.008 0 0 1-1.005-.996v-7.12z" fill="#d94046" fill-rule="evenodd"/></svg>