<svg width="22" height="16" viewBox="0 0 22 16" xmlns="http://www.w3.org/2000/svg"><title>26B8B171-A7D9-42CD-A6A3-FE9DBACA875D</title><path d="M8.728 10.766V4.774l5.944 3.006-5.944 2.986zm13.052-7.03s-.215-1.47-.874-2.117C20.069.769 19.13.765 18.7.716 15.623.5 11.005.5 11.005.5h-.01S6.377.5 3.3.716c-.43.05-1.368.053-2.205.903C.434 2.266.22 3.736.22 3.736S0 5.462 0 7.187v1.618c0 1.727.22 3.452.22 3.452s.214 1.47.874 2.117c.837.85 1.937.823 2.426.911 1.76.164 7.48.215 7.48.215s4.623-.007 7.701-.223c.43-.05 1.368-.054 2.205-.903.659-.647.874-2.117.874-2.117s.22-1.725.22-3.452V7.187c0-1.725-.22-3.451-.22-3.451z" fill="#000" fill-rule="evenodd" fill-opacity=".54"/></svg>