<svg xmlns="http://www.w3.org/2000/svg" width="109" height="32" viewBox="0 0 109 32">
    <g fill="none" fill-rule="evenodd">
        <text fill="#2A2A2A" font-family="GothamRounded-Medium, Gotham Rounded" font-size="16" font-weight="400" letter-spacing="-.889" transform="translate(30 -2)">
            <tspan x="0" y="13">Currencies </tspan> <tspan x="0" y="29">Direct</tspan>
        </text>
        <g fill="#F64200" fill-rule="nonzero">
            <path d="M24.878 9.866C22.536 5.66 18.145 3 13.296 3 5.95 3 0 9.047 0 16.5S5.95 30 13.296 30c4.792 0 9.138-2.596 11.502-6.724a.966.966 0 0 0-.355-1.316.96.96 0 0 0-1.313.356c-2.025 3.536-5.74 5.755-9.834 5.755-6.278 0-11.373-5.177-11.373-11.571S7.018 4.929 13.296 4.929c4.143 0 7.896 2.273 9.903 5.877a.96.96 0 0 0 1.308.372.966.966 0 0 0 .371-1.312z"/>
            <path d="M5.77 18.429c0-.533.43-.965.96-.965h13.462c.531 0 .962.432.962.965a6.12 6.12 0 0 1-1.075 3.447c-1.381 2.04-3.881 3.303-6.617 3.303-4.219 0-7.693-2.987-7.693-6.75zm7.692 4.821c2.113 0 4.011-.96 5.026-2.457a4.32 4.32 0 0 0 .627-1.4H7.809c.534 2.178 2.84 3.857 5.653 3.857z"/>
        </g>
    </g>
</svg>
