<?xml version="1.0" encoding="utf-8"?>
<!-- Generator: Adobe Illustrator 21.1.0, SVG Export Plug-In . SVG Version: 6.00 Build 0)  -->
<svg version="1.1" id="Layer_1" xmlns="http://www.w3.org/2000/svg" xmlns:xlink="http://www.w3.org/1999/xlink" x="0px" y="0px"
	 viewBox="0 0 124 36" style="enable-background:new 0 0 124 36;" xml:space="preserve">
<style type="text/css">
	.st0{fill:#1D1D1B;stroke:#1D1D1B;stroke-width:0.5;stroke-miterlimit:10;}
</style>
<g>
	<defs>
		<path id="SVGID_1_" d="M29.9,10.9C27.6,6.6,23.1,4,18.3,4C10.9,4.1,4.9,10.1,5,17.5c0,0,0,0,0,0C4.9,24.9,10.9,30.9,18.3,31
			c0,0,0,0,0,0c4.8,0,9.2-2.6,11.5-6.7c0.4-0.4,0.4-1,0-1.4s-1-0.4-1.4,0c-0.1,0.1-0.2,0.2-0.2,0.4c-2,3.5-5.8,5.7-9.8,5.8
			C12,29,6.9,23.8,6.9,17.5C6.9,11.2,12,6,18.3,5.9c0,0,0,0,0,0c4.1,0,7.9,2.3,9.9,5.9c0.1,0.5,0.7,0.9,1.2,0.7
			c0.5-0.1,0.9-0.7,0.7-1.2C30.1,11.2,30,11,29.9,10.9z"/>
	</defs>
	<use xlink:href="#SVGID_1_"  style="overflow:visible;fill:#F64200;"/>
	<clipPath id="SVGID_2_">
		<use xlink:href="#SVGID_1_"  style="overflow:visible;"/>
	</clipPath>
</g>
<g>
	<g>
		<defs>
			<path id="SVGID_3_" d="M18.5,24.2c2,0.1,3.8-0.9,5-2.5c0.3-0.4,0.5-0.9,0.6-1.4H12.8C13.6,22.8,15.9,24.4,18.5,24.2z M10.8,19.4
				c0-0.6,0.4-1,1-1h13.4c0.6,0,1,0.4,1,1c0,1.2-0.4,2.4-1.1,3.5c-1.5,2.1-4,3.3-6.6,3.3C14.2,26.2,10.8,23.2,10.8,19.4z"/>
		</defs>
		<use xlink:href="#SVGID_3_"  style="overflow:visible;fill:#F64200;"/>
		<clipPath id="SVGID_4_">
			<use xlink:href="#SVGID_3_"  style="overflow:visible;"/>
		</clipPath>
	</g>
</g>
<g>
	<path class="st0" d="M60.4,16.2c0.4,0,0.7-0.3,0.7-0.7v-4.7c0-1.6,1.1-2.6,2.6-2.6c0.5,0,0.7-0.3,0.7-0.6c0-0.3-0.2-0.6-0.7-0.6
		c-2.1,0-3.8,1.2-3.8,3.5v5C59.7,15.9,60,16.2,60.4,16.2z"/>
	<path class="st0" d="M69.8,7.7c0-0.3-0.2-0.6-0.7-0.6c-2.1,0-3.8,1.2-3.8,3.5v5c0,0.4,0.3,0.7,0.7,0.7c0.4,0,0.7-0.3,0.7-0.7v-4.8
		c0-1.6,1.1-2.6,2.6-2.6C69.6,8.3,69.8,8,69.8,7.7z"/>
	<path class="st0" d="M57.4,21.8c-2.1,0-3.8,1.2-3.8,3.5v5c0,0.4,0.3,0.7,0.7,0.7s0.7-0.3,0.7-0.7v-4.7c0-1.6,1.1-2.6,2.6-2.6
		c0.5,0,0.7-0.3,0.7-0.6C58,22.1,57.8,21.8,57.4,21.8z"/>
	<path class="st0" d="M48.1,13.3c-0.2,0-0.3,0.1-0.4,0.2c-1,0.9-2,1.5-3.5,1.5c-2.6,0-4.6-2.1-4.6-4.8v-0.1c0-2.7,1.9-4.8,4.6-4.8
		c1.5,0,2.4,0.5,3.4,1.3c0.1,0.1,0.3,0.1,0.5,0.1c0.3,0,0.7-0.3,0.7-0.7c0-0.3-0.1-0.4-0.3-0.5C47.3,4.6,46.1,4,44.3,4
		c-3.4,0-5.9,2.8-5.9,6.1v0.1c0,3.4,2.5,6,5.9,6c1.9,0,3.2-0.7,4.4-1.7c0.1-0.1,0.2-0.3,0.2-0.5C48.7,13.6,48.4,13.3,48.1,13.3z"/>
	<path class="st0" d="M95.5,13.8c-0.2,0-0.3,0.1-0.4,0.2c-0.7,0.6-1.5,1.1-2.4,1.1c-1.8,0-3.2-1.5-3.2-3.4v-0.1
		c0-1.8,1.3-3.4,3.1-3.4c1.1,0,1.7,0.5,2.4,1.1c0.1,0.1,0.3,0.1,0.4,0.1c0.3,0,0.6-0.3,0.6-0.6c0-0.2-0.1-0.4-0.2-0.5
		c-0.8-0.7-1.7-1.3-3.2-1.3c-2.5,0-4.4,2-4.4,4.6v0.1c0,2.4,1.9,4.5,4.4,4.5c1.5,0,2.4-0.6,3.3-1.4c0.1-0.1,0.2-0.3,0.2-0.4
		C96,14.1,95.7,13.8,95.5,13.8z"/>
	<path class="st0" d="M113.1,11c-1.2-0.3-2.2-0.7-2.2-1.5l0,0c0-0.7,0.7-1.3,1.7-1.3c0.7,0,1.5,0.3,2.2,0.7C114.8,9,115,9,115,9
		c0.3,0,0.6-0.3,0.6-0.5c0-0.3-0.1-0.5-0.3-0.5c-0.9-0.5-1.8-0.7-2.8-0.7c-1.7,0-3,1-3,2.5v0.1c0,1.6,1.5,2,2.8,2.4
		c1.1,0.3,2.2,0.7,2.2,1.6v0.1c0,0.9-0.9,1.3-1.9,1.3c-1.1,0-1.8-0.4-2.5-1c-0.1-0.1-0.2-0.1-0.4-0.1c-0.3,0-0.6,0.3-0.6,0.5
		c0,0.1,0.1,0.3,0.2,0.4c0.8,0.8,1.8,1.3,3.3,1.3c1.7,0,3.1-0.9,3.1-2.6v-0.1C115.9,12,114.4,11.4,113.1,11z"/>
	<path class="st0" d="M42.3,19.1h-2.9c-0.3,0-0.7,0.3-0.7,0.7v10.4c0,0.4,0.3,0.7,0.7,0.7h2.9c3.7,0,6.2-2.6,6.2-5.9v-0.1
		C48.6,21.6,46,19.1,42.3,19.1z M47.2,24.9c0,2.6-1.9,4.6-4.9,4.6h-2.2v-9.2h2.2C45.3,20.3,47.2,22.4,47.2,24.9L47.2,24.9z"/>
	<path class="st0" d="M50.9,21.8c-0.3,0-0.7,0.3-0.7,0.7v7.7c0,0.4,0.3,0.7,0.7,0.7c0.4,0,0.7-0.3,0.7-0.7v-7.7
		C51.5,22.1,51.3,21.8,50.9,21.8z"/>
	<path class="st0" d="M74.7,28.5c-0.2,0-0.3,0.1-0.4,0.2c-0.7,0.6-1.5,1.1-2.4,1.1c-1.8,0-3.2-1.5-3.2-3.4l0,0
		c0-1.8,1.3-3.4,3.1-3.4c1.1,0,1.7,0.5,2.4,1.1c0.1,0.1,0.3,0.1,0.4,0.1c0.3,0,0.6-0.3,0.6-0.6c0-0.2-0.1-0.4-0.2-0.5
		c-0.8-0.7-1.7-1.3-3.2-1.3c-2.5,0-4.4,2-4.4,4.6v0.1c0,2.4,1.9,4.5,4.4,4.5c1.5,0,2.4-0.6,3.3-1.4c0.1-0.1,0.2-0.3,0.2-0.4
		C75.3,28.8,75,28.5,74.7,28.5z"/>
	<path class="st0" d="M80.7,29.5c-0.2,0-0.6,0.2-1.2,0.2c-0.9,0-1.5-0.4-1.5-1.5V23h2.4c0.3,0,0.6-0.3,0.6-0.6
		c0-0.3-0.3-0.6-0.6-0.6H78v-1.9c0-0.3-0.3-0.7-0.7-0.7c-0.4,0-0.7,0.3-0.7,0.7v8.4c0,1.8,1.1,2.4,2.4,2.4c0.5,0,1.2-0.1,1.7-0.3
		c0.2-0.1,0.4-0.3,0.4-0.5C81.2,29.8,81,29.5,80.7,29.5z"/>
	<circle class="st0" cx="50.9" cy="19.8" r="0.8"/>
	<path class="st0" d="M98.2,7.1c-0.3,0-0.7,0.3-0.7,0.7v7.7c0,0.4,0.3,0.7,0.7,0.7s0.7-0.3,0.7-0.7V7.8C98.8,7.4,98.6,7.1,98.2,7.1z
		"/>
	<circle class="st0" cx="98.2" cy="5.1" r="0.8"/>
	<path class="st0" d="M74.2,16.2c1.5,0,2.4-0.5,3.3-1.3c0.1-0.1,0.2-0.3,0.2-0.4c0-0.3-0.3-0.5-0.6-0.5c-0.1,0-0.3,0.1-0.4,0.1
		c-0.7,0.6-1.5,1-2.5,1c-1.5,0-2.8-1-3-2.9h6.3c0.3,0,0.6-0.3,0.6-0.6c0-2.3-1.5-4.4-4-4.4c-2.4,0-4.2,2-4.2,4.6
		C69.9,14.4,71.8,16.2,74.2,16.2z M74,8.2c1.7,0,2.6,1.3,2.8,2.8h-5.5C71.5,9.2,72.7,8.2,74,8.2z"/>
	<path class="st0" d="M104.3,7.1c-2.4,0-4.2,2-4.2,4.6c0,2.7,1.9,4.5,4.4,4.5c1.5,0,2.4-0.5,3.3-1.3c0.1-0.1,0.2-0.3,0.2-0.4
		c0-0.3-0.3-0.5-0.6-0.5c-0.1,0-0.3,0.1-0.4,0.1c-0.7,0.6-1.5,1-2.5,1c-1.5,0-2.8-1-3-2.9h6.3c0.3,0,0.6-0.3,0.6-0.6
		C108.3,9.2,106.8,7.1,104.3,7.1z M101.5,11c0.3-1.8,1.5-2.8,2.8-2.8c1.7,0,2.6,1.3,2.8,2.8H101.5z"/>
	<path class="st0" d="M62.2,21.8c-2.4,0-4.2,2-4.2,4.6c0,2.7,1.9,4.5,4.4,4.5c1.5,0,2.4-0.5,3.3-1.3c0.1-0.1,0.2-0.3,0.2-0.4
		c0-0.3-0.3-0.5-0.6-0.5c-0.1,0-0.3,0.1-0.4,0.1c-0.7,0.6-1.5,1-2.5,1c-1.5,0-2.8-1-3-2.9h6.3c0.3,0,0.6-0.3,0.6-0.6
		C66.3,23.9,64.8,21.8,62.2,21.8z M59.5,25.7c0.3-1.8,1.5-2.8,2.8-2.8c1.7,0,2.6,1.3,2.8,2.8H59.5z"/>
	<path class="st0" d="M83.3,7.1c-2.1,0-3.8,1.2-3.8,3.5v5c0,0.4,0.3,0.7,0.7,0.7s0.7-0.3,0.7-0.7v-4.8c0-1.6,1.1-2.6,2.6-2.6
		c1.5,0,2.4,0.9,2.4,2.6v4.7c0,0.4,0.3,0.7,0.7,0.7c0.3,0,0.7-0.3,0.7-0.7v-5C87,8.4,85.3,7.1,83.3,7.1z"/>
	<path class="st0" d="M54.1,16.2c2.1,0,3.7-1.2,3.7-3.5V7.8c0-0.4-0.3-0.7-0.7-0.7c-0.4,0-0.7,0.3-0.7,0.7v4.7
		c0,1.6-0.9,2.6-2.4,2.6c-1.5,0-2.6-0.9-2.6-2.6V7.8c0-0.4-0.3-0.7-0.7-0.7c-0.3,0-0.7,0.3-0.7,0.7v5C50.2,15,52,16.2,54.1,16.2z"/>
</g>
</svg>
