<svg id="Layer_1" data-name="Layer 1" xmlns="http://www.w3.org/2000/svg" xmlns:xlink="http://www.w3.org/1999/xlink" viewBox="0 0 36 36"><defs><style>.cls-1{fill:none;}.cls-2{clip-path:url(#clip-path);}.cls-3{clip-path:url(#clip-path-2);}.cls-4{fill:#f64200;}.cls-5{clip-path:url(#clip-path-3);}</style><clipPath id="clip-path"><path class="cls-1" d="M29.88,10.87A13.26,13.26,0,0,0,18.3,4,13.4,13.4,0,0,0,5,17.5,13.4,13.4,0,0,0,18.3,31a13.25,13.25,0,0,0,11.5-6.72,1,1,0,1,0-1.67-1,11.33,11.33,0,0,1-9.83,5.76A11.47,11.47,0,0,1,6.92,17.5,11.47,11.47,0,0,1,18.3,5.93a11.34,11.34,0,0,1,9.9,5.88,1,1,0,1,0,1.68-.94Z"/></clipPath><clipPath id="clip-path-2"><rect class="cls-1" x="2" y="1" width="32" height="32"/></clipPath><clipPath id="clip-path-3"><path class="cls-1" d="M18.46,24.25a6,6,0,0,0,5-2.46,4.32,4.32,0,0,0,.63-1.4H12.81A5.62,5.62,0,0,0,18.46,24.25Zm-7.69-4.82a1,1,0,0,1,1-1H25.19a1,1,0,0,1,1,1,6.12,6.12,0,0,1-1.08,3.45,8,8,0,0,1-6.62,3.3C14.24,26.18,10.77,23.19,10.77,19.43Z"/></clipPath></defs><title>h</title><g class="cls-2"><g class="cls-3"><rect class="cls-4" y="-1" width="35" height="37"/></g></g><g class="cls-5"><g class="cls-3"><rect class="cls-4" x="5.77" y="13.46" width="25.38" height="17.71"/></g></g></svg>