<?xml version="1.0" encoding="UTF-8"?>
<svg width="24px" height="24px" viewBox="0 0 24 24" version="1.1" xmlns="http://www.w3.org/2000/svg" xmlns:xlink="http://www.w3.org/1999/xlink">
    <!-- Generator: sketchtool 41.2 (35397) - http://www.bohemiancoding.com/sketch -->
    <title>FAA9E45C-349B-40D5-9B49-462FB27C26AA</title>
    <desc>Created with sketchtool.</desc>
    <defs></defs>
    <g id="Symbols" stroke="none" stroke-width="1" fill="none" fill-rule="evenodd">
        <g id="icon-camera-white" fill="#FFFFFF">
            <g id="Camera" transform="translate(4.000000, 6.000000)">
                <g id="Page-1">
                    <path d="M15.2404068,1.56266726 L5.80284746,1.56266726 L5.80284746,1.16109367 C5.80284746,0.529138269 5.27430508,0.0318911686 4.60284746,0.0318911686 L3.38250847,0.0318911686 C2.71077966,0.0318911686 2.18223729,0.529138269 2.18223729,1.16109367 L2.18223729,1.56266726 L0.758508475,1.56266726 C0.433355932,1.56266726 0.16840678,1.81192864 0.16840678,2.11782872 L0.16840678,11.9142855 C0.16840678,12.2201855 0.433355932,12.4694469 0.758508475,12.4694469 L15.2604746,12.4694469 C15.5858983,12.4694469 15.8505763,12.2201855 15.8505763,11.9142855 L15.8505763,2.11782872 C15.8305085,1.81192864 15.5655593,1.56266726 15.2404068,1.56266726 Z M3.36216949,1.16109367 C3.36216949,1.14221409 3.36216949,1.14221409 3.38250847,1.14221409 L4.60284746,1.14221409 C4.62291525,1.14221409 4.62291525,1.14221409 4.62291525,1.16109367 L4.62291525,1.56266726 L3.36216949,1.56266726 L3.36216949,1.16109367 Z M9.62711864,10.6138912 C7.57315254,10.6138912 5.88447458,9.02520071 5.88447458,7.09285103 C5.88447458,5.16050134 7.57315254,3.57181088 9.62711864,3.57181088 C11.6810847,3.57181088 13.3697627,5.16050134 13.3697627,7.09285103 C13.3697627,9.02520071 11.7011525,10.6138912 9.62711864,10.6138912 Z" id="Fill-1"></path>
                    <path d="M9.62711864,4.68213381 C8.22345763,4.68213381 7.06467797,5.77230152 7.06467797,7.09285103 C7.06467797,8.41340054 8.22345763,9.50356824 9.62711864,9.50356824 C11.0307797,9.50356824 12.1895593,8.41340054 12.1895593,7.09285103 C12.1895593,5.77230152 11.0508475,4.68213381 9.62711864,4.68213381 Z" id="Fill-2"></path>
                </g>
            </g>
        </g>
    </g>
</svg>