<?xml version="1.0" encoding="UTF-8"?>
<svg width="24px" height="24px" viewBox="0 0 24 24" version="1.1" xmlns="http://www.w3.org/2000/svg" xmlns:xlink="http://www.w3.org/1999/xlink">
    <!-- Generator: sketchtool 41.2 (35397) - http://www.bohemiancoding.com/sketch -->
    <title>B0A43885-B739-43E8-BEBF-469FE2C0759F</title>
    <desc>Created with sketchtool.</desc>
    <defs></defs>
    <g id="Symbols" stroke="none" stroke-width="1" fill="none" fill-rule="evenodd">
        <g id="icon-?-grey">
            <g id="Group-2" transform="translate(3.000000, 3.000000)">
                <circle id="Oval" fill="#9B9B9B" cx="9" cy="9" r="9"></circle>
                <path d="M8.80085653,10.5102041 C9.09635974,10.5102041 9.30192719,10.272509 9.35331906,9.9819928 L9.40471092,9.37454982 C10.8308351,9.12364946 12,8.37094838 12,6.70708283 L12,6.68067227 C12,5.030012 10.7794433,4 8.98072805,4 C7.7987152,4 6.9379015,4.43577431 6.25695931,5.09603842 C6.07708779,5.2545018 6,5.46578631 6,5.66386555 C6,6.06002401 6.32119914,6.39015606 6.71948608,6.39015606 C6.8993576,6.39015606 7.06638116,6.31092437 7.19486081,6.20528211 C7.70877944,5.72989196 8.26124197,5.4789916 8.94218415,5.4789916 C9.86723769,5.4789916 10.4197002,5.9939976 10.4197002,6.7334934 L10.4197002,6.75990396 C10.4197002,7.59183673 9.751606,8.06722689 8.54389722,8.18607443 C8.19700214,8.22569028 7.99143469,8.48979592 8.04282655,8.84633854 L8.17130621,9.9819928 C8.20985011,10.2857143 8.42826552,10.5102041 8.72376874,10.5102041 L8.80085653,10.5102041 Z M7.81156317,12.3853541 L7.81156317,12.517407 C7.81156317,13.032413 8.19700214,13.4285714 8.72376874,13.4285714 C9.25053533,13.4285714 9.6359743,13.032413 9.6359743,12.517407 L9.6359743,12.3853541 C9.6359743,11.8703481 9.25053533,11.4741897 8.72376874,11.4741897 C8.19700214,11.4741897 7.81156317,11.8703481 7.81156317,12.3853541 Z" id="?" fill="#FFFFFF"></path>
            </g>
        </g>
    </g>
</svg>