<?xml version="1.0" encoding="UTF-8"?>
<svg width="90px" height="90px" viewBox="0 0 90 90" version="1.1" xmlns="http://www.w3.org/2000/svg" xmlns:xlink="http://www.w3.org/1999/xlink">
    <!-- Generator: sketchtool 41.2 (35397) - http://www.bohemiancoding.com/sketch -->
    <title>36DD96D7-9E77-4C05-BC72-C48714D2D074</title>
    <desc>Created with sketchtool.</desc>
    <defs>
        <path d="M68.3620313,56.4124511 C60.1128775,65.761164 47.9799567,71.6674805 34.453125,71.6674805 C20.9262933,71.6674805 8.79337252,65.761164 0.54421875,56.4124511 L0.54421875,0.397998047 L68.3620313,0.397998047 L68.3620313,56.4124511 L68.3620313,56.4124511 Z" id="path-1"></path>
        <path d="M90,44.53125 C90,69.1250244 69.8526563,89.0625 45,89.0625 C20.1473438,89.0625 0,69.1250244 0,44.53125 C0,19.9381714 20.1473438,0 45,0 C69.8526563,0 90,19.9381714 90,44.53125" id="path-3"></path>
    </defs>
    <g id="Symbols" stroke="none" stroke-width="1" fill="none" fill-rule="evenodd">
        <g id="largeicon-personal">
            <g id="Business">
                <path d="M90,44.53125 C90,69.1250244 69.8526563,89.0625 45,89.0625 C20.1473438,89.0625 0,69.1250244 0,44.53125 C0,19.9381714 20.1473438,0 45,0 C69.8526563,0 90,19.9381714 90,44.53125" id="Fill-135" fill="#9AD5EC"></path>
                <g id="Woman" transform="translate(10.546875, 17.395020)">
                    <mask id="mask-2" fill="white">
                        <use xlink:href="#path-1"></use>
                    </mask>
                    <g id="Clip-137"></g>
                    <polyline id="Fill-136" fill="#416272" mask="url(#mask-2)" points="65.5495313 65.2897705 57.4635938 51.0258545 34.453125 46.8510498 11.4426563 51.0258545 3.35671875 65.2897705 0.54421875 75.7267822 68.3620313 75.7267822 65.5495313 65.2897705"></polyline>
                    <polyline id="Fill-138" fill="#385764" mask="url(#mask-2)" points="65.5495312 65.2897705 57.4635937 51.0258545 34.453125 46.8510498 33.046875 47.1071045 54.6510937 51.0258545 62.7370312 65.2897705 65.5495312 75.7267822 68.3620312 75.7267822 65.5495312 65.2897705"></polyline>
                    <path d="M60.6803906,31.2449341 C57.4017188,37.4152954 48.9375,43.5842651 34.453125,43.5842651 C19.96875,43.5842651 11.5045313,37.4152954 8.22585938,31.2449341 C8.22585938,31.2449341 13.9436719,22.262146 14.7825,18.9062988 C17.28,8.95913086 23.5933594,0.397998047 34.453125,0.397998047 C45.3185156,0.397998047 51.6269531,8.95913086 54.12375,18.9062988 C54.9682031,22.262146 60.6803906,31.2449341 60.6803906,31.2449341" id="Fill-139" fill="#FBD87E" mask="url(#mask-2)"></path>
                    <path d="M54.12375,18.9062988 C51.6269531,8.95913086 45.3185156,0.397998047 34.453125,0.397998047 C33.8934375,0.397998047 33.3499219,0.425830078 32.8141406,0.469665527 C42.676875,1.28862305 48.4783594,9.47124023 50.8457812,18.9062988 C51.6909375,22.262146 57.403125,31.2449341 57.403125,31.2449341 C54.2510156,37.1766357 46.2916406,43.0902466 32.8141406,43.5404297 C33.3569531,43.5592163 33.8920312,43.5842651 34.453125,43.5842651 C48.9375,43.5842651 57.4017187,37.4152954 60.6803906,31.2449341 C60.6803906,31.2449341 54.9682031,22.262146 54.12375,18.9062988" id="Fill-140" fill="#EDC96C" mask="url(#mask-2)"></path>
                    <path d="M34.453125,55.9549072 C32.7796875,55.9820435 28.8372656,47.2817505 28.8372656,47.2817505 L27.19125,35.2736206 L41.715,35.2736206 L40.1104687,46.9895142 C40.1104687,46.9895142 36.1750781,55.9263794 34.453125,55.9549072" id="Fill-141" fill="#F8D3C4" mask="url(#mask-2)"></path>
                    <path d="M39.605625,35.2736206 L38.0010937,46.9895142 C38.0010937,46.9895142 35.2947656,53.1320435 33.3885937,55.246582 C33.7914844,55.6898071 34.1578125,55.9597778 34.453125,55.9549072 C36.1750781,55.9263794 40.1104687,46.9895142 40.1104687,46.9895142 L41.715,35.2736206 L39.605625,35.2736206" id="Fill-142" fill="#EEC8BA" mask="url(#mask-2)"></path>
                    <path d="M21.5479687,25.5435425 C21.5479687,26.4397339 20.8153125,27.1654541 19.9096875,27.1654541 C19.0033594,27.1654541 18.2707031,26.4397339 18.2707031,25.5435425 C18.2707031,24.6480469 19.0033594,23.9216309 19.9096875,23.9216309 C20.8153125,23.9216309 21.5479687,24.6480469 21.5479687,25.5435425" id="Fill-143" fill="#297095" mask="url(#mask-2)"></path>
                    <path d="M49.8164062,25.5435425 C49.8164062,26.4397339 49.0830469,27.1654541 48.1774219,27.1654541 C47.2710937,27.1654541 46.5384375,26.4397339 46.5384375,25.5435425 C46.5384375,24.6480469 47.2710937,23.9216309 48.1774219,23.9216309 C49.0830469,23.9216309 49.8164062,24.6480469 49.8164062,25.5435425" id="Fill-144" fill="#297095" mask="url(#mask-2)"></path>
                    <path d="M48.1774219,24.1588989 C48.1774219,33.1333374 42.0328125,40.4093262 34.453125,40.4093262 C26.8734375,40.4093262 20.7288281,33.1333374 20.7288281,24.1588989 C20.7288281,15.1837646 26.8734375,7.90847168 34.453125,7.90847168 C42.0328125,7.90847168 48.1774219,15.1837646 48.1774219,24.1588989" id="Fill-145" fill="#FBDDD1" mask="url(#mask-2)"></path>
                    <path d="M34.453125,7.90847168 C34.0375781,7.90847168 33.6297656,7.93908691 33.2240625,7.98222656 C40.2271875,8.71907959 45.7192969,15.675 45.7192969,24.1588989 C45.7192969,32.6421021 40.2271875,39.5987183 33.2240625,40.3348755 C33.6297656,40.3780151 34.0375781,40.4093262 34.453125,40.4093262 C42.0328125,40.4093262 48.1774219,33.1333374 48.1774219,24.1588989 C48.1774219,15.1837646 42.0328125,7.90847168 34.453125,7.90847168" id="Fill-146" fill="#F0D3C5" mask="url(#mask-2)"></path>
                    <path d="M43.2611719,10.2394043 C43.2611719,18.1450928 20.7288281,11.1515991 20.7288281,25.5435425 C20.7288281,25.5435425 19.3971094,4.15810547 34.453125,4.15810547 C41.0104687,4.15810547 43.2611719,10.2394043 43.2611719,10.2394043" id="Fill-147" fill="#FBD87E" mask="url(#mask-2)"></path>
                    <polyline id="Fill-148" fill="#F8F8F6" mask="url(#mask-2)" points="49.2771094 49.9821533 40.4233594 44.6968506 34.453125 55.9549072 28.4828906 44.6968506 19.6291406 49.9821533 25.02 50.9096558 23.5546875 52.7653564 34.453125 61.288916 45.3515625 52.7653564 43.88625 50.9096558 49.2771094 49.9821533"></polyline>
                </g>
                <g id="Group-38">
                    <mask id="mask-4" fill="white">
                        <use xlink:href="#path-3"></use>
                    </mask>
                    <use id="Mask" fill="#9AD5EC" xlink:href="#path-3"></use>
                    <g id="largeicon-guy-seperate" mask="url(#mask-4)">
                        <g transform="translate(12.315789, 11.250000)" id="Group-187">
                            <g>
                                <path d="M69.1811458,73.6458333 C65.8430208,56.875 40.8078125,58.3333333 34.9657292,58.3333333 C29.1236458,58.3333333 4.0884375,56.875 0.7503125,73.6458333 C-2.5878125,90.4166667 14.1035417,96.25 14.1035417,96.25 L55.8279167,96.25 C55.8279167,96.25 72.5192708,90.4166667 69.1811458,73.6458333" id="Fill-177" fill="#469180"></path>
                                <path d="M69.1811458,73.6458333 C66.0778125,58.0540625 44.226875,58.218125 36.4758333,58.31875 C45.9907292,58.4871875 62.48375,60.2539583 65.1495833,73.6458333 C68.4877083,90.4166667 51.7970833,96.25 51.7970833,96.25 L55.8279167,96.25 C55.8279167,96.25 72.5192708,90.4166667 69.1811458,73.6458333" id="Fill-179" fill="#408474"></path>
                                <path d="M45.1740625,59.4270833 C45.1740625,61.6422917 40.604375,63.4375 34.9657292,63.4375 C29.3278125,63.4375 24.7573958,61.6422917 24.7573958,59.4270833 C24.7573958,57.2126042 29.3278125,55.4166667 34.9657292,55.4166667 C40.604375,55.4166667 45.1740625,57.2126042 45.1740625,59.4270833" id="Fill-180" fill="#F8F8F6"></path>
                                <path d="M44.0205208,57.28625 L44.0241667,57.28625 L41.5282292,49.5228125 L34.9657292,49.0364583 L28.4032292,49.5228125 L25.9072917,57.28625 L25.9109375,57.28625 C25.87375,57.3919792 25.8511458,57.500625 25.8511458,57.6092708 C25.8511458,59.2178125 29.9322917,60.5208333 34.9657292,60.5208333 C39.9991667,60.5208333 44.0803125,59.2178125 44.0803125,57.6092708 C44.0803125,57.500625 44.0577083,57.3919792 44.0205208,57.28625" id="Fill-181" fill="#E2C7BB"></path>
                                <path d="M44.0205208,57.28625 L44.0241667,57.28625 L41.5282292,49.5228125 L34.9657292,49.0364583 L33.6896875,49.1305208 L38.9761458,49.5228125 L41.4720833,57.28625 L41.4684375,57.28625 C41.505625,57.3919792 41.5282292,57.500625 41.5282292,57.6092708 C41.5282292,59.0785417 38.1171875,60.2904167 33.6896875,60.4902083 C34.1075,60.5084375 34.5311458,60.5208333 34.9657292,60.5208333 C39.9991667,60.5208333 44.0803125,59.2178125 44.0803125,57.6092708 C44.0803125,57.500625 44.0577083,57.3919792 44.0205208,57.28625" id="Fill-182" fill="#D2BAAF"></path>
                                <path d="M53.9240625,18.2291667 L53.9240625,10.644375 C53.9240625,4.72791667 49.7167708,0 34.9657292,0 C20.2154167,0 16.0073958,4.72791667 16.0073958,10.644375 L16.0073958,18.2291667 C16.0073958,18.2291667 13.0907292,18.445 13.0907292,20.4166667 L13.0907292,28.4885417 C13.0907292,30.4602083 13.8198958,32.0833333 16.0073958,32.0833333 C16.0073958,41.9438542 24.7748958,53.2291667 34.9657292,53.2291667 C45.1572917,53.2291667 53.9240625,41.9438542 53.9240625,32.0833333 C56.1115625,32.0833333 56.8407292,30.4602083 56.8407292,28.4885417 L56.8407292,20.4166667 C56.8407292,18.445 53.9240625,18.2291667 53.9240625,18.2291667" id="Fill-183" fill="#FBDDD1"></path>
                                <path d="M34.9657292,0 C34.5923958,0 34.2314583,0.00510416667 33.8719792,0.0116666667 C47.7348958,0.242083333 51.7365625,4.87739583 51.7365625,10.644375 L51.7365625,32.0833333 C51.7365625,41.58875 43.588125,52.4146875 33.8719792,53.1825 C34.2351042,53.2109375 34.5989583,53.2291667 34.9657292,53.2291667 C45.1572917,53.2291667 53.9240625,41.9438542 53.9240625,32.0833333 L53.9240625,10.644375 C53.9240625,4.72791667 49.7167708,0 34.9657292,0" id="Fill-184" fill="#F0D3C5"></path>
                                <path d="M34.9657292,0 C20.2154167,0 16.0073958,4.72791667 16.0073958,10.644375 L16.0073958,26.25 C16.6826042,22.8739583 18.6105208,13.2489583 22.9461458,10.10625 C26.3951042,11.0920833 30.5251042,11.6666667 34.9657292,11.6666667 C39.4063542,11.6666667 43.5363542,11.0920833 46.9860417,10.10625 C51.3209375,13.2489583 53.2488542,22.8739583 53.9240625,26.25 L53.9240625,10.644375 C53.9240625,4.72791667 49.7167708,0 34.9657292,0" id="Fill-185" fill="#8B5931"></path>
                                <path d="M34.9657292,0 C34.5938542,0 34.2329167,0.00510416667 33.8741667,0.0116666667 C47.7348958,0.2428125 51.7365625,4.878125 51.7365625,10.644375 L51.7365625,17.84125 C52.898125,21.1429167 53.5784375,24.5182292 53.9240625,26.25 L53.9240625,10.644375 C53.9240625,4.72791667 49.7167708,0 34.9657292,0" id="Fill-186" fill="#7E512D"></path>
                            </g>
                        </g>
                    </g>
                </g>
            </g>
        </g>
    </g>
</svg>