<?xml version="1.0" encoding="UTF-8"?>
<svg width="90px" height="90px" viewBox="0 0 90 90" version="1.1" xmlns="http://www.w3.org/2000/svg" xmlns:xlink="http://www.w3.org/1999/xlink">
    <!-- Generator: sketchtool 41.2 (35397) - http://www.bohemiancoding.com/sketch -->
    <title>44D8EB1F-C10D-4B45-841F-945167A0D8B9</title>
    <desc>Created with sketchtool.</desc>
    <defs>
        <path d="M68.3620313,56.4124511 C60.1128775,65.761164 47.9799567,71.6674805 34.453125,71.6674805 C20.9262933,71.6674805 8.79337252,65.761164 0.54421875,56.4124511 L0.54421875,0.397998047 L68.3620313,0.397998047 L68.3620313,56.4124511 L68.3620313,56.4124511 Z" id="path-1"></path>
        <path d="M90,44.53125 C90,69.1250244 69.8526563,89.0625 45,89.0625 C20.1473438,89.0625 0,69.1250244 0,44.53125 C0,19.9381714 20.1473438,0 45,0 C69.8526563,0 90,19.9381714 90,44.53125" id="path-3"></path>
    </defs>
    <g id="Symbols" stroke="none" stroke-width="1" fill="none" fill-rule="evenodd">
        <g id="largeicon-joint">
            <g id="Business">
                <path d="M90,44.53125 C90,69.1250244 69.8526563,89.0625 45,89.0625 C20.1473438,89.0625 0,69.1250244 0,44.53125 C0,19.9381714 20.1473438,0 45,0 C69.8526563,0 90,19.9381714 90,44.53125" id="Fill-135" fill="#9AD5EC"></path>
                <g id="Woman" transform="translate(10.546875, 17.395020)">
                    <mask id="mask-2" fill="white">
                        <use xlink:href="#path-1"></use>
                    </mask>
                    <g id="Clip-137"></g>
                    <polyline id="Fill-136" fill="#416272" mask="url(#mask-2)" points="65.5495313 65.2897705 57.4635938 51.0258545 34.453125 46.8510498 11.4426563 51.0258545 3.35671875 65.2897705 0.54421875 75.7267822 68.3620313 75.7267822 65.5495313 65.2897705"></polyline>
                    <polyline id="Fill-138" fill="#385764" mask="url(#mask-2)" points="65.5495312 65.2897705 57.4635937 51.0258545 34.453125 46.8510498 33.046875 47.1071045 54.6510937 51.0258545 62.7370312 65.2897705 65.5495312 75.7267822 68.3620312 75.7267822 65.5495312 65.2897705"></polyline>
                    <path d="M60.6803906,31.2449341 C57.4017188,37.4152954 48.9375,43.5842651 34.453125,43.5842651 C19.96875,43.5842651 11.5045313,37.4152954 8.22585938,31.2449341 C8.22585938,31.2449341 13.9436719,22.262146 14.7825,18.9062988 C17.28,8.95913086 23.5933594,0.397998047 34.453125,0.397998047 C45.3185156,0.397998047 51.6269531,8.95913086 54.12375,18.9062988 C54.9682031,22.262146 60.6803906,31.2449341 60.6803906,31.2449341" id="Fill-139" fill="#FBD87E" mask="url(#mask-2)"></path>
                    <path d="M54.12375,18.9062988 C51.6269531,8.95913086 45.3185156,0.397998047 34.453125,0.397998047 C33.8934375,0.397998047 33.3499219,0.425830078 32.8141406,0.469665527 C42.676875,1.28862305 48.4783594,9.47124023 50.8457812,18.9062988 C51.6909375,22.262146 57.403125,31.2449341 57.403125,31.2449341 C54.2510156,37.1766357 46.2916406,43.0902466 32.8141406,43.5404297 C33.3569531,43.5592163 33.8920312,43.5842651 34.453125,43.5842651 C48.9375,43.5842651 57.4017187,37.4152954 60.6803906,31.2449341 C60.6803906,31.2449341 54.9682031,22.262146 54.12375,18.9062988" id="Fill-140" fill="#EDC96C" mask="url(#mask-2)"></path>
                    <path d="M34.453125,55.9549072 C32.7796875,55.9820435 28.8372656,47.2817505 28.8372656,47.2817505 L27.19125,35.2736206 L41.715,35.2736206 L40.1104687,46.9895142 C40.1104687,46.9895142 36.1750781,55.9263794 34.453125,55.9549072" id="Fill-141" fill="#F8D3C4" mask="url(#mask-2)"></path>
                    <path d="M39.605625,35.2736206 L38.0010937,46.9895142 C38.0010937,46.9895142 35.2947656,53.1320435 33.3885937,55.246582 C33.7914844,55.6898071 34.1578125,55.9597778 34.453125,55.9549072 C36.1750781,55.9263794 40.1104687,46.9895142 40.1104687,46.9895142 L41.715,35.2736206 L39.605625,35.2736206" id="Fill-142" fill="#EEC8BA" mask="url(#mask-2)"></path>
                    <path d="M21.5479687,25.5435425 C21.5479687,26.4397339 20.8153125,27.1654541 19.9096875,27.1654541 C19.0033594,27.1654541 18.2707031,26.4397339 18.2707031,25.5435425 C18.2707031,24.6480469 19.0033594,23.9216309 19.9096875,23.9216309 C20.8153125,23.9216309 21.5479687,24.6480469 21.5479687,25.5435425" id="Fill-143" fill="#297095" mask="url(#mask-2)"></path>
                    <path d="M49.8164062,25.5435425 C49.8164062,26.4397339 49.0830469,27.1654541 48.1774219,27.1654541 C47.2710937,27.1654541 46.5384375,26.4397339 46.5384375,25.5435425 C46.5384375,24.6480469 47.2710937,23.9216309 48.1774219,23.9216309 C49.0830469,23.9216309 49.8164062,24.6480469 49.8164062,25.5435425" id="Fill-144" fill="#297095" mask="url(#mask-2)"></path>
                    <path d="M48.1774219,24.1588989 C48.1774219,33.1333374 42.0328125,40.4093262 34.453125,40.4093262 C26.8734375,40.4093262 20.7288281,33.1333374 20.7288281,24.1588989 C20.7288281,15.1837646 26.8734375,7.90847168 34.453125,7.90847168 C42.0328125,7.90847168 48.1774219,15.1837646 48.1774219,24.1588989" id="Fill-145" fill="#FBDDD1" mask="url(#mask-2)"></path>
                    <path d="M34.453125,7.90847168 C34.0375781,7.90847168 33.6297656,7.93908691 33.2240625,7.98222656 C40.2271875,8.71907959 45.7192969,15.675 45.7192969,24.1588989 C45.7192969,32.6421021 40.2271875,39.5987183 33.2240625,40.3348755 C33.6297656,40.3780151 34.0375781,40.4093262 34.453125,40.4093262 C42.0328125,40.4093262 48.1774219,33.1333374 48.1774219,24.1588989 C48.1774219,15.1837646 42.0328125,7.90847168 34.453125,7.90847168" id="Fill-146" fill="#F0D3C5" mask="url(#mask-2)"></path>
                    <path d="M43.2611719,10.2394043 C43.2611719,18.1450928 20.7288281,11.1515991 20.7288281,25.5435425 C20.7288281,25.5435425 19.3971094,4.15810547 34.453125,4.15810547 C41.0104687,4.15810547 43.2611719,10.2394043 43.2611719,10.2394043" id="Fill-147" fill="#FBD87E" mask="url(#mask-2)"></path>
                    <polyline id="Fill-148" fill="#F8F8F6" mask="url(#mask-2)" points="49.2771094 49.9821533 40.4233594 44.6968506 34.453125 55.9549072 28.4828906 44.6968506 19.6291406 49.9821533 25.02 50.9096558 23.5546875 52.7653564 34.453125 61.288916 45.3515625 52.7653564 43.88625 50.9096558 49.2771094 49.9821533"></polyline>
                </g>
                <g id="Group-38">
                    <mask id="mask-4" fill="white">
                        <use xlink:href="#path-3"></use>
                    </mask>
                    <use id="Mask" fill="#9AD5EC" xlink:href="#path-3"></use>
                    <g id="largeicon-woman-seperate" mask="url(#mask-4)">
                        <g transform="translate(25.578947, 20.625000)" id="Group-38">
                            <g>
                                <path d="M70,35.713988 C66.2492631,42.8573413 56.5679509,50 39.9996532,50 C23.4320491,50 13.7500433,42.8573413 10,35.713988 C10,35.713988 16.5402088,25.3132989 17.5000867,21.4286707 C20.3561397,9.91233189 27.5781115,0 39.9996532,0 C52.4281305,0 59.6438603,9.91233189 62.4992198,21.4286707 C63.4660332,25.3132989 70,35.713988 70,35.713988" id="Fill-19" fill="#DA7A45"></path>
                                <path d="M63.46981,21.4286707 C60.6032551,9.91233189 53.3592332,0 40.8820253,0 C40.2393655,0 39.6148089,0.0326497721 39,0.0840557964 C50.3255728,1.03159386 56.9875106,10.5055852 59.7064558,21.4286707 C60.67706,25.3132989 67.2366457,35.713988 67.2366457,35.713988 C63.6167236,42.5808603 54.4760547,49.427587 39,49.948594 C39.6231641,49.9701289 40.237973,50 40.8820253,50 C57.5152854,50 67.2345569,42.8573413 71,35.713988 C71,35.713988 64.4404143,25.3132989 63.46981,21.4286707" id="Fill-21" fill="#CA7342"></path>
                                <path d="M79.0849274,65.8182094 C76.8363706,56.1908717 63.4620469,52.5065609 58.0967618,51.1597751 C52.7314767,49.8136928 47.483209,50.0100111 40.5,50.0100111 C33.516791,50.0100111 28.2678226,49.8136928 22.9032382,51.1597751 C17.5379531,52.5065609 4.16362942,56.1908717 1.91507255,65.8182094 C-0.334185011,75.4455472 0.0203708542,88.7578993 0.0203708542,96.2454377 C16.4203314,96.2454377 40.5,101 40.5,101 C40.5,101 64.5796686,96.2454377 80.9796291,96.2454377 C80.9796291,88.7578993 81.334185,75.4455472 79.0849274,65.8182094" id="Fill-22" fill="#B0352B"></path>
                                <path d="M79.1027257,65.818604 C76.8750665,56.1913743 63.6250409,52.5071048 58.3096197,51.160334 C53.4752728,49.9352933 48.7221464,49.9873628 42.6986502,50.0063611 C47.031791,50.028174 50.7713985,50.20127 54.5575168,51.160334 C59.8722438,52.5071048 73.1229636,56.1913743 75.3506228,65.818604 C77.5789763,75.4458337 77.2270214,88.7580366 77.2270214,96.2454911 C63.7048729,96.2454911 44.9228385,99.5378319 39,100.641846 C40.1933145,100.864197 40.8763985,101 40.8763985,101 C40.8763985,101 64.7322757,96.2454911 80.9798185,96.2454911 C80.9798185,88.7580366 81.3310792,75.4458337 79.1027257,65.818604" id="Fill-23" fill="#A2322A"></path>
                                <path d="M36.9710907,50.0112765 C37.6679182,50.0112765 38.3332082,50.0082765 39,50.0052765 C37.6085977,49.9992765 36.2795194,49.9972765 35,50.0052765 C35.6480195,50.0082765 36.2937864,50.0112765 36.9710907,50.0112765" id="Fill-24" fill="#A2322A"></path>
                                <path d="M40.5,55.9994869 C38.5414093,56.030225 33.9266572,54.6695538 33.9266572,54.6695538 L32,41 L49,41 L47.1208883,54.3375829 C47.1208883,54.3375829 42.5153615,55.9673828 40.5,55.9994869" id="Fill-25" fill="#DEA998"></path>
                                <path d="M46.1485831,41 L44.2872512,54.3375844 C44.2872512,54.3375844 41.2072991,55.4366407 39,55.8464814 C39.5998172,55.9441601 40.1525209,56.0063193 40.5772449,55.9994886 C42.5742915,55.9673844 47.137965,54.3375844 47.137965,54.3375844 L49,41 L46.1485831,41" id="Fill-26" fill="#CE9F8F"></path>
                                <path d="M26,29.5 C26,30.32875 25.3295,31 24.5,31 C23.67125,31 23,30.32875 23,29.5 C23,28.67125 23.67125,28 24.5,28 C25.3295,28 26,28.67125 26,29.5" id="Fill-27" fill="#872C25"></path>
                                <path d="M58,29.5 C58,30.32875 57.3295,31 56.5,31 C55.67125,31 55,30.32875 55,29.5 C55,28.67125 55.67125,28 56.5,28 C57.3295,28 58,28.67125 58,29.5" id="Fill-28" fill="#872C25"></path>
                                <path d="M57,28 C57,38.4930399 49.8365805,47 41,47 C32.1634195,47 25,38.4930399 25,28 C25,17.5062585 32.1634195,9 41,9 C49.8365805,9 57,17.5062585 57,28" id="Fill-29" fill="#FBDDD1"></path>
                                <path d="M40.3972508,9 C39.9250669,9 39.4611548,9.0357789 39,9.08558875 C46.9609521,9.94708858 53.2054983,18.0808256 53.2054983,28 C53.2054983,37.9184728 46.9609521,46.0522099 39,46.9137097 C39.4611548,46.9635196 39.9250669,47 40.3972508,47 C49.0144352,47 56,38.4930399 56,28 C56,17.5062585 49.0144352,9 40.3972508,9" id="Fill-30" fill="#F0D3C5"></path>
                                <path d="M51,11.1083864 C51,20.3505513 25.0346588,12.1752757 25.0346588,29 C25.0346588,29 23.5002575,4 40.8503123,4 C48.4063307,4 51,11.1083864 51,11.1083864" id="Fill-31" fill="#DA7A45"></path>
                                <path d="M47.9305141,47 C47.9305141,50.4155298 44.6044479,55.0391248 40.5,55.0391248 C36.396249,55.0391248 33.0694859,50.4155298 33.0694859,47 C31.086947,47.77426 24.2229722,49.7064779 23,50.8651223 C23.9874368,55.1928786 32.8938797,62.9231231 35.498009,63 C35.6325011,60.6037752 37.0206268,57.4737881 38.2888942,56.8937795 C39.0895751,56.8937795 39.8414765,57.0482196 40.5,57.0482196 C41.1585235,57.0482196 41.9104249,56.8937795 42.7111058,56.8937795 C43.9793732,57.4737881 45.3674989,60.6037752 45.5026879,63 C48.1061203,62.9231231 57.0118664,55.1928786 58,50.8651223 C56.776331,49.7064779 49.9144467,47.77426 47.9305141,47" id="Fill-32" fill="#F8F8F6"></path>
                                <path d="M40,57.199 C39.9239569,57.119 39.8472409,57.052 39.7705249,57 C39.5074024,57 39.2516824,57.029 39,57.063 C39.3485868,57.112 39.6830417,57.167 40,57.199" id="Fill-33" fill="#C7C7C2"></path>
                                <path d="M40,54.9977884 C35.9082177,54.1387084 32.7982924,50.002676 32.7982924,47 C32.2049093,47.2263977 31.1803629,47.5526565 30,47.928162 C30.529349,51.183227 35.4727855,55.1065413 40,54.9977884" id="Fill-34" fill="#E6E6E1"></path>
                                <path d="M35.6470213,57.5404227 C34.7068504,58.0991179 33.382064,59.7435283 33,61.8509345 C34.0167113,62.5457653 34.8911851,62.9824776 35.445465,63 C35.5609134,60.7935248 36.9022835,57.8180855 38,57.0046415 C37.8839138,57.0134027 36.747927,56.8860283 35.6470213,57.5404227" id="Fill-35" fill="#E6E6E1"></path>
                                <path d="M47.6524182,47 C47.6524182,47.3013299 47.6158973,47.615015 47.5650545,47.9314457 C50.4280048,48.841613 54.2082737,50.0455598 55.0969483,50.8651223 C54.3185524,54.1852424 48.7580698,59.4959245 45,61.8296868 C45.0787705,62.229172 45.1353421,62.6238524 45.157541,63 C47.8328743,62.9231231 56.9845764,55.1928786 58,50.8651223 C56.7425361,49.7064779 49.6911424,47.77426 47.6524182,47" id="Fill-36" fill="#E6E6E1"></path>
                                <path d="M43,68 C43,69.1039586 42.1054384,70 41,70 C39.8945616,70 39,69.1039586 39,68 C39,66.8953015 39.8945616,66 41,66 C42.1054384,66 43,66.8953015 43,68" id="Fill-37" fill="#1E1E1C"></path>
                            </g>
                        </g>
                    </g>
                    <g id="largeicon-guy-seperate" mask="url(#mask-4)">
                        <g transform="translate(-5.684211, 15.000000)" id="Group-187">
                            <g>
                                <path d="M69.1811458,73.6458333 C65.8430208,56.875 40.8078125,58.3333333 34.9657292,58.3333333 C29.1236458,58.3333333 4.0884375,56.875 0.7503125,73.6458333 C-2.5878125,90.4166667 14.1035417,96.25 14.1035417,96.25 L55.8279167,96.25 C55.8279167,96.25 72.5192708,90.4166667 69.1811458,73.6458333" id="Fill-177" fill="#469180"></path>
                                <path d="M69.1811458,73.6458333 C66.0778125,58.0540625 44.226875,58.218125 36.4758333,58.31875 C45.9907292,58.4871875 62.48375,60.2539583 65.1495833,73.6458333 C68.4877083,90.4166667 51.7970833,96.25 51.7970833,96.25 L55.8279167,96.25 C55.8279167,96.25 72.5192708,90.4166667 69.1811458,73.6458333" id="Fill-179" fill="#408474"></path>
                                <path d="M45.1740625,59.4270833 C45.1740625,61.6422917 40.604375,63.4375 34.9657292,63.4375 C29.3278125,63.4375 24.7573958,61.6422917 24.7573958,59.4270833 C24.7573958,57.2126042 29.3278125,55.4166667 34.9657292,55.4166667 C40.604375,55.4166667 45.1740625,57.2126042 45.1740625,59.4270833" id="Fill-180" fill="#F8F8F6"></path>
                                <path d="M44.0205208,57.28625 L44.0241667,57.28625 L41.5282292,49.5228125 L34.9657292,49.0364583 L28.4032292,49.5228125 L25.9072917,57.28625 L25.9109375,57.28625 C25.87375,57.3919792 25.8511458,57.500625 25.8511458,57.6092708 C25.8511458,59.2178125 29.9322917,60.5208333 34.9657292,60.5208333 C39.9991667,60.5208333 44.0803125,59.2178125 44.0803125,57.6092708 C44.0803125,57.500625 44.0577083,57.3919792 44.0205208,57.28625" id="Fill-181" fill="#E2C7BB"></path>
                                <path d="M44.0205208,57.28625 L44.0241667,57.28625 L41.5282292,49.5228125 L34.9657292,49.0364583 L33.6896875,49.1305208 L38.9761458,49.5228125 L41.4720833,57.28625 L41.4684375,57.28625 C41.505625,57.3919792 41.5282292,57.500625 41.5282292,57.6092708 C41.5282292,59.0785417 38.1171875,60.2904167 33.6896875,60.4902083 C34.1075,60.5084375 34.5311458,60.5208333 34.9657292,60.5208333 C39.9991667,60.5208333 44.0803125,59.2178125 44.0803125,57.6092708 C44.0803125,57.500625 44.0577083,57.3919792 44.0205208,57.28625" id="Fill-182" fill="#D2BAAF"></path>
                                <path d="M53.9240625,18.2291667 L53.9240625,10.644375 C53.9240625,4.72791667 49.7167708,0 34.9657292,0 C20.2154167,0 16.0073958,4.72791667 16.0073958,10.644375 L16.0073958,18.2291667 C16.0073958,18.2291667 13.0907292,18.445 13.0907292,20.4166667 L13.0907292,28.4885417 C13.0907292,30.4602083 13.8198958,32.0833333 16.0073958,32.0833333 C16.0073958,41.9438542 24.7748958,53.2291667 34.9657292,53.2291667 C45.1572917,53.2291667 53.9240625,41.9438542 53.9240625,32.0833333 C56.1115625,32.0833333 56.8407292,30.4602083 56.8407292,28.4885417 L56.8407292,20.4166667 C56.8407292,18.445 53.9240625,18.2291667 53.9240625,18.2291667" id="Fill-183" fill="#FBDDD1"></path>
                                <path d="M34.9657292,0 C34.5923958,0 34.2314583,0.00510416667 33.8719792,0.0116666667 C47.7348958,0.242083333 51.7365625,4.87739583 51.7365625,10.644375 L51.7365625,32.0833333 C51.7365625,41.58875 43.588125,52.4146875 33.8719792,53.1825 C34.2351042,53.2109375 34.5989583,53.2291667 34.9657292,53.2291667 C45.1572917,53.2291667 53.9240625,41.9438542 53.9240625,32.0833333 L53.9240625,10.644375 C53.9240625,4.72791667 49.7167708,0 34.9657292,0" id="Fill-184" fill="#F0D3C5"></path>
                                <path d="M34.9657292,0 C20.2154167,0 16.0073958,4.72791667 16.0073958,10.644375 L16.0073958,26.25 C16.6826042,22.8739583 18.6105208,13.2489583 22.9461458,10.10625 C26.3951042,11.0920833 30.5251042,11.6666667 34.9657292,11.6666667 C39.4063542,11.6666667 43.5363542,11.0920833 46.9860417,10.10625 C51.3209375,13.2489583 53.2488542,22.8739583 53.9240625,26.25 L53.9240625,10.644375 C53.9240625,4.72791667 49.7167708,0 34.9657292,0" id="Fill-185" fill="#8B5931"></path>
                                <path d="M34.9657292,0 C34.5938542,0 34.2329167,0.00510416667 33.8741667,0.0116666667 C47.7348958,0.2428125 51.7365625,4.878125 51.7365625,10.644375 L51.7365625,17.84125 C52.898125,21.1429167 53.5784375,24.5182292 53.9240625,26.25 L53.9240625,10.644375 C53.9240625,4.72791667 49.7167708,0 34.9657292,0" id="Fill-186" fill="#7E512D"></path>
                            </g>
                        </g>
                    </g>
                </g>
            </g>
        </g>
    </g>
</svg>