<?xml version="1.0" encoding="UTF-8"?>
<svg width="128px" height="128px" viewBox="0 0 128 128" version="1.1" xmlns="http://www.w3.org/2000/svg" xmlns:xlink="http://www.w3.org/1999/xlink">
    <!-- Generator: sketchtool 41.2 (35397) - http://www.bohemiancoding.com/sketch -->
    <title>FAF77E72-08E8-4C8D-9781-903E25D51E63</title>
    <desc>Created with sketchtool.</desc>
    <defs></defs>
    <g id="Symbols" stroke="none" stroke-width="1" fill="none" fill-rule="evenodd">
        <g id="largeicon-house">
            <path d="M128,64 C128,99.346 99.346,128 64,128 C28.654,128 0,99.346 0,64 C0,28.654 28.654,0 64,0 C99.346,0 128,28.654 128,64" id="Fill-109" fill="#9AD5EC"></path>
            <polygon id="Fill-110" fill="#BE5349" points="82 48 92 48 92 30 82 30"></polygon>
            <polyline id="Fill-111" fill="#A44941" points="92 41.043 82 32.565 82 48 92 48 92 41.043"></polyline>
            <polygon id="Fill-112" fill="#B04F45" points="81 30 93 30 93 28 81 28"></polygon>
            <polyline id="Fill-113" fill="#E6E6E1" points="103 104 25 104 25 58 64 25 103 58 103 104"></polyline>
            <polyline id="Fill-114" fill="#D6D5D0" points="25 58 25 65.258 64 32.193 103 65.258 103 58 64 25 25 58"></polyline>
            <path d="M30.222,104 C30.7,103.468 31,102.772 31,102 C32.657,102 34,100.657 34,99 C34,97.689 33.154,96.586 31.982,96.178 L32,96 C32,94.343 30.657,93 29,93 L28.979,93.002 C28.066,91.793 26.632,91 25,91 L25,104 L30.222,104" id="Fill-115" fill="#C7C7C2"></path>
            <polygon id="Fill-118" fill="#8B5931" points="37 88 53 88 53 68 37 68"></polygon>
            <polygon id="Fill-119" fill="#7E512D" points="37 69 53 69 53 68 37 68"></polygon>
            <polygon id="Fill-121" fill="#8B5931" points="77 104 93 104 93 74 77 74"></polygon>
            <polygon id="Fill-122" fill="#7E512D" points="77 75 93 75 93 74 77 74"></polygon>
            <polygon id="Fill-123" fill="#91CCE4" points="39 86 51 86 51 70 39 70"></polygon>
            <path d="M41,79 C40.744,79 40.488,78.902 40.293,78.707 C39.902,78.316 39.902,77.684 40.293,77.293 L46.293,71.293 C46.488,71.098 46.744,71 47,71 C47.256,71 47.512,71.098 47.707,71.293 C48.098,71.683 48.098,72.316 47.707,72.707 L41.707,78.707 C41.512,78.902 41.256,79 41,79 M41,75 C40.744,75 40.488,74.902 40.293,74.707 C39.902,74.316 39.902,73.684 40.293,73.293 L42.293,71.293 C42.488,71.098 42.744,71 43,71 C43.256,71 43.512,71.098 43.707,71.293 C44.098,71.683 44.098,72.316 43.707,72.707 L41.707,74.707 C41.512,74.902 41.256,75 41,75" id="Fill-124" fill="#B0DAE8"></path>
            <path d="M14.057,104 C25.786,118.626 43.794,128 64,128 C84.206,128 102.214,118.626 113.943,104 L14.057,104" id="Fill-125" fill="#714A29"></path>
            <path d="M30.982,96.178 L31,96 C31,94.343 29.657,93 28,93 L27.979,93.002 C27.066,91.793 25.632,91 24,91 C21.926,91 20.147,92.264 19.391,94.062 C18.025,94.344 17,95.552 17,97 C17,97.772 17.3,98.468 17.778,99 C17.3,99.532 17,100.228 17,101 C17,102.657 18.343,104 20,104 C20.243,104 20.477,103.963 20.703,103.909 C21.253,104.57 22.072,105 23,105 C23.771,105 24.469,104.7 25,104.222 C25.531,104.7 26.229,105 27,105 C28.657,105 30,103.657 30,102 C31.657,102 33,100.657 33,99 C33,97.689 32.154,96.586 30.982,96.178" id="Fill-126" fill="#217753"></path>
            <path d="M19.703,103.909 L19.438,103.943 C19.546,103.964 19.66,103.969 19.773,103.977 L19.703,103.909" id="Fill-127" fill="#1C6A4A"></path>
            <path d="M30.982,96.178 L31,96 C31,94.343 29.657,93 28,93 L27.979,93.002 C27.066,91.793 25.632,91 24,91 C23.849,91 23.703,91.02 23.556,91.034 C24.955,91.191 26.172,91.933 26.979,93.002 L27,93 C28.657,93 30,94.343 30,96 L29.982,96.178 C31.154,96.586 32,97.689 32,99 C32,100.657 30.657,102 29,102 C29,103.489 27.912,104.716 26.489,104.951 C26.655,104.98 26.825,105 27,105 C28.657,105 30,103.657 30,102 C31.657,102 33,100.657 33,99 C33,97.689 32.154,96.586 30.982,96.178" id="Fill-128" fill="#1C6A4A"></path>
            <path d="M24,104.222 C23.597,104.584 23.099,104.843 22.545,104.947 C22.694,104.971 22.843,105 23,105 C23.55,105 24.059,104.842 24.5,104.582 C24.322,104.477 24.152,104.359 24,104.222" id="Fill-129" fill="#1C6A4A"></path>
            <path d="M16.599,107 L111.401,107 C112.282,106.03 113.123,105.023 113.943,104 L14.057,104 C14.877,105.023 15.718,106.03 16.599,107" id="Fill-130" fill="#8B5930"></path>
            <path d="M107.413,66 L64,29.193 L20.587,66 L15.413,59.898 L61.413,20.898 C62.905,19.633 65.095,19.633 66.587,20.898 L112.587,59.898 L107.413,66" id="Fill-131" fill="#BE5349"></path>
            <path d="M74,50 C74,55.522 69.522,60 64,60 C58.478,60 54,55.522 54,50 C54,44.477 58.478,40 64,40 C69.522,40 74,44.477 74,50" id="Fill-132" fill="#8B5A31"></path>
            <path d="M64,58 C59.589,58 56,54.411 56,50 C56,45.589 59.589,42 64,42 C68.411,42 72,45.589 72,50 C72,54.411 68.411,58 64,58" id="Fill-133" fill="#91CCE4"></path>
            <path d="M92,92 C92,92.552 91.553,93 91,93 C90.447,93 90,92.552 90,92 C90,91.448 90.447,91 91,91 C91.553,91 92,91.448 92,92" id="Fill-134" fill="#243135"></path>
        </g>
    </g>
</svg>