<svg xmlns="http://www.w3.org/2000/svg" width="19" height="16" viewBox="0 0 19 16">
    <path fill="#1DA1F2" fill-rule="evenodd" d="M18.85 1.874a7.508 7.508 0 0 1-2.22.63 3.984 3.984 0 0 0 1.7-2.211 7.582 7.582 0 0 1-2.457.968A3.8 3.8 0 0 0 13.05 0c-2.134 0-3.866 1.79-3.866 3.997 0 .313.034.617.1.91C6.07 4.74 3.221 3.151 1.312.73A4.095 4.095 0 0 0 .79 2.74c0 1.386.683 2.61 1.72 3.327a3.774 3.774 0 0 1-1.752-.499v.05c0 1.937 1.333 3.553 3.103 3.919a3.66 3.66 0 0 1-1.019.14c-.249 0-.492-.024-.728-.07.493 1.587 1.92 2.743 3.613 2.774A7.6 7.6 0 0 1 0 14.039a10.707 10.707 0 0 0 5.928 1.794c7.115 0 11.004-6.09 11.004-11.372 0-.174-.004-.347-.01-.518a7.975 7.975 0 0 0 1.928-2.069"/>
</svg>
