<?xml version="1.0" encoding="UTF-8"?>
<svg width="200px" height="200px" viewBox="0 0 200 200" version="1.1" xmlns="http://www.w3.org/2000/svg" xmlns:xlink="http://www.w3.org/1999/xlink">
    <!-- Generator: sketchtool 41.2 (35397) - http://www.bohemiancoding.com/sketch -->
    <title>13320646-71C1-468C-8584-367AE8EF4F54</title>
    <desc>Created with sketchtool.</desc>
    <defs></defs>
    <g id="FINAL" stroke="none" stroke-width="1" fill="none" fill-rule="evenodd">
        <g id="2-SignUp6-Loader1" transform="translate(-521.000000, -204.000000)">
            <g id="Group" transform="translate(521.000000, 204.000000)">
                <path d="M200,100 C200,155.228125 155.228125,200 100,200 C44.771875,200 0,155.228125 0,100 C0,44.771875 44.771875,0 100,0 C155.228125,0 200,44.771875 200,100" id="Fill-23" fill="#48B095"></path>
                <path d="M180.557812,159.232812 L154.170312,94.0375 C153.126562,90.78125 150.34375,88.2890625 146.925,87.6609375 C146.867187,87.53125 146.809375,87.4015625 146.75,87.271875 C146.3125,85.8984375 145.7875,84.565625 145.1875,83.271875 C144.751562,81.8984375 144.225,80.5625 143.625,79.2671875 C143.1875,77.89375 142.6625,76.5609375 142.0625,75.26875 C141.376562,73.1140625 140.484375,71.053125 139.409375,69.10625 C139.260937,68.753125 139.096875,68.409375 138.9375,68.0625 C138.5,66.6890625 137.975,65.35625 137.375,64.0625 C136.939062,62.6890625 136.4125,61.353125 135.8125,60.059375 C135.375,58.6859375 134.85,57.3515625 134.25,56.059375 C133.164062,52.646875 131.554687,49.46875 129.523437,46.609375 C123.532812,36.490625 112.5125,29.6875 99.9265625,29.6875 C80.971875,29.6875 65.5515625,45.1078125 65.5515625,64.0625 L65.5515625,87.5 L54.6140625,87.5 C49.4578125,87.5 45.2390625,91.71875 45.2390625,96.875 L45.2390625,153.125 L59.75625,191.545312 C72.0734375,196.96875 85.6796875,200 100,200 C133.054687,200 162.353125,183.951562 180.557812,159.232812" id="Fill-24" fill="#439D86"></path>
                <path d="M154.614062,153.125 C154.614062,158.28125 150.395312,162.5 145.239062,162.5 L54.6140625,162.5 C49.4578125,162.5 45.2390625,158.28125 45.2390625,153.125 L45.2390625,96.875 C45.2390625,91.71875 49.4578125,87.5 54.6140625,87.5 L145.239062,87.5 C150.395312,87.5 154.614062,91.71875 154.614062,96.875 L154.614062,153.125" id="Fill-25" fill="#E6E6E1"></path>
                <path d="M154.614062,153.125 C154.614062,158.28125 150.395312,162.5 145.239062,162.5 L54.6140625,162.5 C49.4578125,162.5 45.2390625,158.28125 45.2390625,153.125 L45.2390625,96.875 C45.2390625,91.71875 49.4578125,87.5 54.6140625,87.5 L145.239062,87.5 C150.395312,87.5 154.614062,91.71875 154.614062,96.875 L154.614062,153.125" id="Fill-26" fill="#FAD066"></path>
                <path d="M145.239062,87.5 L138.989062,87.5 C144.145312,87.5 148.364062,91.71875 148.364062,96.875 L148.364062,153.125 C148.364062,158.28125 144.145312,162.5 138.989062,162.5 L145.239062,162.5 C150.395312,162.5 154.614062,158.28125 154.614062,153.125 L154.614062,96.875 C154.614062,91.71875 150.395312,87.5 145.239062,87.5" id="Fill-27" fill="#DDB95B"></path>
                <path d="M112.426562,117.1875 C112.426562,110.284375 106.829687,104.6875 99.9265625,104.6875 C93.0234375,104.6875 87.4265625,110.284375 87.4265625,117.1875 C87.4265625,121.132812 89.259375,124.645313 92.1140625,126.935938 L92.1140625,137.5 C92.1140625,141.814063 95.6109375,145.3125 99.9265625,145.3125 C104.242187,145.3125 107.739062,141.814063 107.739062,137.5 L107.739062,126.935938 C110.59375,124.645313 112.426562,121.132812 112.426562,117.1875" id="Fill-28" fill="#BF793F"></path>
                <path d="M124.926562,76.5625 L134.301562,76.5625 L134.301562,64.0625 C134.301562,45.1078125 118.88125,29.6875 99.9265625,29.6875 C80.971875,29.6875 65.5515625,45.1078125 65.5515625,64.0625 L65.5515625,87.5 L74.9265625,87.5 L74.9265625,64.0625 C74.9265625,50.278125 86.1421875,39.0625 99.9265625,39.0625 C113.710937,39.0625 124.926562,50.278125 124.926562,64.0625 L124.926562,76.5625" id="Fill-29" fill="#E6E6E1"></path>
                <path d="M95.2390625,137.5 L95.2390625,126.935938 C92.384375,124.645313 90.5515625,121.132812 90.5515625,117.1875 C90.5515625,110.814062 95.325,105.565625 101.489062,104.795312 C100.976562,104.73125 100.457812,104.6875 99.9265625,104.6875 C93.0234375,104.6875 87.4265625,110.284375 87.4265625,117.1875 C87.4265625,121.132812 89.259375,124.645313 92.1140625,126.935938 L92.1140625,137.5 C92.1140625,141.814063 95.6109375,145.3125 99.9265625,145.3125 C100.4625,145.3125 100.984375,145.257813 101.489062,145.154688 C97.9234375,144.429688 95.2390625,141.279688 95.2390625,137.5" id="Fill-30" fill="#A66A38"></path>
                <path d="M99.9265625,29.6875 C80.971875,29.6875 65.5515625,45.1078125 65.5515625,64.0625 L65.5515625,68.75 C68.1390625,68.75 70.2390625,66.6515625 70.2390625,64.0625 C70.2390625,47.6921875 83.55625,34.375 99.9265625,34.375 C116.296875,34.375 129.614062,47.6921875 129.614062,64.0625 C129.614062,66.6515625 131.714062,68.75 134.301562,68.75 L134.301562,64.0625 C134.301562,45.1078125 118.88125,29.6875 99.9265625,29.6875" id="Fill-31" fill="#F8F8F6"></path>
                <path d="M104.614062,117.1875 C104.614062,119.776563 102.514062,121.875 99.9265625,121.875 C97.3390625,121.875 95.2390625,119.776563 95.2390625,117.1875 C95.2390625,114.598437 97.3390625,112.5 99.9265625,112.5 C102.514062,112.5 104.614062,114.598437 104.614062,117.1875" id="Fill-32" fill="#FAD066"></path>
                <path d="M99.9265625,112.5 C99.6578125,112.5 99.4015625,112.535938 99.1453125,112.578125 C101.360937,112.953125 103.051562,114.867187 103.051562,117.1875 C103.051562,119.507813 101.360937,121.421875 99.1453125,121.796875 C99.4015625,121.839062 99.6578125,121.875 99.9265625,121.875 C102.514062,121.875 104.614062,119.776563 104.614062,117.1875 C104.614062,114.598437 102.514062,112.5 99.9265625,112.5" id="Fill-33" fill="#DDB95B"></path>
                <polygon id="Fill-34" fill="#FFF3CA" points="45.2390625 101.5625 154.614062 101.5625 154.614062 95.3125 45.2390625 95.3125"></polygon>
                <polygon id="Fill-35" fill="#FFF3CA" points="45.2390625 154.6875 154.614062 154.6875 154.614062 148.4375 45.2390625 148.4375"></polygon>
                <polygon id="Fill-36" fill="#C7C7C2" points="65.5515625 87.5 74.9265625 87.5 74.9265625 85.9375 65.5515625 85.9375"></polygon>
            </g>
        </g>
    </g>
</svg>