<svg xmlns="http://www.w3.org/2000/svg" width="24" height="24" viewBox="0 0 24 24">
    <g fill="none" fill-rule="evenodd">
        <circle cx="12" cy="12" r="12" fill="#9B9B9B"/>
        <path fill="#FFF" d="M12.268 14.25c.344 0 .584-.265.644-.588l.06-.677c1.664-.28 3.028-1.117 3.028-2.97v-.03C16 8.147 14.576 7 12.478 7c-1.38 0-2.384.485-3.178 1.22a.82.82 0 0 0-.3.633c0 .441.375.809.84.809.21 0 .404-.088.554-.206.6-.53 1.244-.809 2.039-.809 1.079 0 1.723.574 1.723 1.397v.03c0 .926-.78 1.455-2.188 1.588-.405.044-.645.338-.585.735l.15 1.265c.045.338.3.588.645.588h.09zm-1.155 2.088v.147c0 .574.45 1.015 1.065 1.015.614 0 1.064-.441 1.064-1.015v-.147c0-.573-.45-1.014-1.064-1.014-.615 0-1.065.44-1.065 1.014z"/>
    </g>
</svg>
