<?xml version="1.0" encoding="UTF-8"?>
<svg width="95px" height="95px" viewBox="0 0 95 95" version="1.1" xmlns="http://www.w3.org/2000/svg" xmlns:xlink="http://www.w3.org/1999/xlink">
    <!-- Generator: sketchtool 41.2 (35397) - http://www.bohemiancoding.com/sketch -->
    <title>76E8F4BD-2719-4010-95E8-D17A3B4F2BDB</title>
    <desc>Created with sketchtool.</desc>
    <defs>
        <path d="M95,47.5 C95,73.7333594 73.7333594,95 47.5,95 C21.2666406,95 0,73.7333594 0,47.5 C0,21.2666406 21.2666406,0 47.5,0 C73.7333594,0 95,21.2666406 95,47.5" id="path-1"></path>
    </defs>
    <g id="Symbols" stroke="none" stroke-width="1" fill="none" fill-rule="evenodd">
        <g id="largeicon-etailor">
            <g id="E-tailor">
                <mask id="mask-2" fill="white">
                    <use xlink:href="#path-1"></use>
                </mask>
                <use id="Mask" fill="#9AD5EC" xlink:href="#path-1"></use>
                <g id="largeicon-etailor-seperate" mask="url(#mask-2)">
                    <g transform="translate(14.000000, 23.000000)" id="Building">
                        <g>
                            <path d="M0,73 L0,68.7142857 C0,67.7714286 0.751898734,67 1.67088608,67 L64.3291139,67 C65.2481013,67 66,67.7714286 66,68.7142857 L66,73 L0,73" id="Fill-238" fill="#ADADAA"></path>
                            <polygon id="Fill-239" fill="#E6E6E1" points="3 67 63 67 63 16 3 16"></polygon>
                            <path d="M63,16 L3,16 L3,29.055875 C3.98166667,29.652625 5.1175,30 6.33333333,30 C10.015,30 13,26.86575 13,23 C13,26.86575 15.985,30 19.6666667,30 C23.3483333,30 26.3333333,26.86575 26.3333333,23 C26.3333333,26.86575 29.3183333,30 33,30 C36.6816667,30 39.6666667,26.86575 39.6666667,23 C39.6666667,26.86575 42.6516667,30 46.3333333,30 C50.015,30 53,26.86575 53,23 C53,26.86575 55.985,30 59.6666667,30 C60.8825,30 62.0183333,29.652625 63,29.055875 L63,16" id="Fill-240" fill="#C7C7C2"></path>
                            <path d="M27,0 L27,21.2121212 C27,24.9607273 29.910375,28 33.5,28 C37.089625,28 40,24.9607273 40,21.2121212 L40,0 L27,0" id="Fill-241" fill="#BE5349"></path>
                            <path d="M54,0 L54,21.2121212 C54,24.9607273 56.910375,28 60.5,28 C64.089625,28 67,24.9607273 67,21.2121212 L63.75,0 L54,0" id="Fill-242" fill="#BE5349"></path>
                            <path d="M3.25,0 L0,21.2121212 C0,24.9607273 2.910375,28 6.5,28 C10.089625,28 13,24.9607273 13,21.2121212 L13,0 L3.25,0" id="Fill-243" fill="#BE5349"></path>
                            <path d="M0,21 C0,24.86575 2.910375,28 6.5,28 C10.089625,28 13,24.86575 13,21 L0,21" id="Fill-244" fill="#B04F45"></path>
                            <path d="M13,0 L13,21.2121212 C13,24.9607273 15.910375,28 19.5,28 C23.089625,28 26,24.9607273 26,21.2121212 L26,0 L13,0" id="Fill-245" fill="#F8F8F6"></path>
                            <path d="M13,21 C13,24.86575 15.910375,28 19.5,28 C23.089625,28 26,24.86575 26,21 L13,21" id="Fill-246" fill="#E6E6E1"></path>
                            <path d="M27,21 C27,24.86575 29.910375,28 33.5,28 C37.089625,28 40,24.86575 40,21 L27,21" id="Fill-247" fill="#B04F45"></path>
                            <path d="M54,21 C54,24.86575 56.910375,28 60.5,28 C64.089625,28 67,24.86575 67,21 L54,21" id="Fill-248" fill="#B04F45"></path>
                            <path d="M40,0 L40,21.2121212 C40,24.9607273 42.910375,28 46.5,28 C50.089625,28 53,24.9607273 53,21.2121212 L53,0 L40,0" id="Fill-249" fill="#F8F8F6"></path>
                            <path d="M40,21 C40,24.86575 42.910375,28 46.5,28 C50.089625,28 53,24.86575 53,21 L40,21" id="Fill-250" fill="#E6E6E1"></path>
                            <polyline id="Fill-251" fill="#8CCAB7" points="67.16 22 67.16 22 67 21 67.16 21 67.16 22"></polyline>
                            <polyline id="Fill-252" fill="#D19087" points="67 22 54 22 54 21 66.87 21 67 22"></polyline>
                            <polygon id="Fill-253" fill="#D19087" points="27 22 40 22 40 21 27 21"></polygon>
                            <polyline id="Fill-254" fill="#8CCAB7" points="0 22 0 21 0.16 21 0 22"></polyline>
                            <polyline id="Fill-255" fill="#D19087" points="13 22 0 22 0.13 21 13 21 13 22"></polyline>
                            <polygon id="Fill-256" fill="#F8F8F6" points="13 22 26 22 26 21 13 21"></polygon>
                            <polygon id="Fill-257" fill="#F8F8F6" points="40 22 53 22 53 21 40 21"></polygon>
                            <polygon id="Fill-258" fill="#91928E" points="7 62 61 62 61 33 7 33"></polygon>
                            <polygon id="Fill-259" fill="#C2E0E9" points="9 60 59 60 59 35 9 35"></polygon>
                            <path d="M11.8573265,50 C11.6379058,50 11.4184851,49.916 11.2513482,49.7488571 C10.9162173,49.4137143 10.9162173,48.872 11.2513482,48.5368571 L21.5366951,38.2511429 C21.703832,38.084 21.9232527,38 22.1426735,38 C22.3620942,38 22.5815149,38.084 22.7486518,38.2511429 C23.0837827,38.5862857 23.0837827,39.128 22.7486518,39.4631429 L12.4633049,49.7488571 C12.296168,49.916 12.0767473,50 11.8573265,50 M11.8573265,44.8571429 C11.6379058,44.8571429 11.4184851,44.7731429 11.2513482,44.606 C10.9162173,44.2708571 10.9162173,43.7291429 11.2513482,43.394 L16.3940216,38.2511429 C16.5611585,38.084 16.7805793,38 17,38 C17.2194207,38 17.4388415,38.084 17.6059784,38.2511429 C17.9411092,38.5862857 17.9411092,39.128 17.6059784,39.4631429 L12.4633049,44.606 C12.296168,44.7731429 12.0767473,44.8571429 11.8573265,44.8571429" id="Fill-260" fill="#D0E7ED"></path>
                            <polygon id="Fill-261" fill="#C7C7C2" points="3 67 63 67 63 66 3 66"></polygon>
                            <polygon id="Fill-262" fill="#C7C7C2" points="7 73 8 73 8 67 7 67"></polygon>
                            <polygon id="Fill-263" fill="#C7C7C2" points="18 73 19 73 19 67 18 67"></polygon>
                            <polygon id="Fill-264" fill="#C7C7C2" points="28 73 29 73 29 67 28 67"></polygon>
                            <polygon id="Fill-265" fill="#C7C7C2" points="38 73 39 73 39 67 38 67"></polygon>
                            <polygon id="Fill-266" fill="#C7C7C2" points="48 73 49 73 49 67 48 67"></polygon>
                            <polygon id="Fill-267" fill="#C7C7C2" points="58 73 59 73 59 67 58 67"></polygon>
                        </g>
                    </g>
                </g>
            </g>
        </g>
    </g>
</svg>