<svg xmlns="http://www.w3.org/2000/svg" width="20" height="20" viewBox="0 0 20 20">
    <g fill="#F64200" fill-rule="nonzero">
        <path d="M10.234 14.571l-2.286 2.286a2.986 2.986 0 0 1-2.13.883 2.986 2.986 0 0 1-2.13-.883l-.727-.727A2.986 2.986 0 0 1 2.078 14c0-.805.312-1.558.883-2.13L6 8.831a3.026 3.026 0 0 1 4.26 0l1.09 1.091a1.035 1.035 0 0 0 1.481 0 1.035 1.035 0 0 0 0-1.48l-1.09-1.091c-1.975-1.974-5.222-1.974-7.196 0L1.481 10.39A5.045 5.045 0 0 0 0 14c0 1.377.52 2.623 1.48 3.584l.728.728a5.029 5.029 0 0 0 3.584 1.48c1.35 0 2.624-.52 3.585-1.48l2.285-2.286a1.035 1.035 0 0 0 0-1.48c-.363-.39-1.013-.39-1.428.025z"/>
        <path d="M17.584 1.48A5.029 5.029 0 0 0 14 0c-1.35 0-2.623.52-3.584 1.48L8.494 3.404a1.035 1.035 0 0 0 0 1.48 1.035 1.035 0 0 0 1.48 0l1.922-1.922a2.986 2.986 0 0 1 2.13-.883c.805 0 1.558.312 2.13.883l.727.727c.572.572.883 1.325.883 2.13 0 .805-.311 1.559-.883 2.13l-2.675 2.65a2.986 2.986 0 0 1-2.13.883 2.986 2.986 0 0 1-2.13-.884l-1.09-1.09a1.035 1.035 0 0 0-1.481 0 1.035 1.035 0 0 0 0 1.48l1.09 1.09a5.029 5.029 0 0 0 3.585 1.481c1.35 0 2.623-.519 3.584-1.48l2.65-2.65a5.029 5.029 0 0 0 1.48-3.584c0-1.35-.52-2.623-1.48-3.584l-.702-.78z"/>
    </g>
</svg>
