<svg xmlns="http://www.w3.org/2000/svg" width="22" height="23" viewBox="0 0 22 23">
    <g fill="none" fill-rule="nonzero">
        <path fill="#757575" d="M8.25 15.333h.625c1.034 0 1.875-.86 1.875-1.916 0-1.057-.841-1.917-1.875-1.917H7v5.111h1.25v-1.278zm0-2.555h.625c.345 0 .625.287.625.639 0 .352-.28.639-.625.639H8.25v-1.278zM17 15.333h1.875v-1.277H17v-1.278h2.5V11.5h-3.75v5.111H17zM15.125 14.694v-1.277c0-1.057-.841-1.917-1.875-1.917h-1.875v5.111h1.875c1.034 0 1.875-.86 1.875-1.917zm-2.5-1.916h.625c.345 0 .625.287.625.639v1.277c0 .353-.28.64-.625.64h-.625v-2.556z"/>
        <path fill="#757575" d="M17.625 6.389L11.375 0h-8.75c-1.38 0-2.5 1.144-2.5 2.556v17.888c0 1.412 1.12 2.556 2.5 2.556h12.5c1.38 0 2.5-1.144 2.5-2.556v-1.277H22V8.944h-4.375V6.39zM10.75 2.072l4.848 4.956H10.75V2.072zm10 8.15v7.667h-15v-7.667h15z"/>
    </g>
</svg>
