<?xml version="1.0" encoding="UTF-8"?>
<svg width="95px" height="95px" viewBox="0 0 95 95" version="1.1" xmlns="http://www.w3.org/2000/svg" xmlns:xlink="http://www.w3.org/1999/xlink">
    <!-- Generator: sketchtool 41.2 (35397) - http://www.bohemiancoding.com/sketch -->
    <title>E5252C39-B0CD-452F-B776-32A738790084</title>
    <desc>Created with sketchtool.</desc>
    <defs>
        <path d="M72.1599219,60.1732811 C63.4524818,70.1452416 50.6455099,76.4453125 36.3671875,76.4453125 C22.0888651,76.4453125 9.28189321,70.1452416 0.574453125,60.1732811 L0.574453125,0.42453125 L72.1599219,0.42453125 L72.1599219,60.1732811 L72.1599219,60.1732811 Z" id="path-1"></path>
    </defs>
    <g id="Symbols" stroke="none" stroke-width="1" fill="none" fill-rule="evenodd">
        <g id="largeicon-business">
            <g id="Business">
                <path d="M95,47.5 C95,73.7333594 73.7333594,95 47.5,95 C21.2666406,95 0,73.7333594 0,47.5 C0,21.2673828 21.2666406,0 47.5,0 C73.7333594,0 95,21.2673828 95,47.5" id="Fill-135" fill="#9AD5EC"></path>
                <g id="largeicon-business-seperate" transform="translate(11.000000, 18.000000)">
                    <g id="Woman" transform="translate(0.132812, 0.554688)">
                        <mask id="mask-2" fill="white">
                            <use xlink:href="#path-1"></use>
                        </mask>
                        <g id="Clip-137"></g>
                        <polyline id="Fill-136" fill="#416272" mask="url(#mask-2)" points="69.1911719 69.6424219 60.6560156 54.4275781 36.3671875 49.9744531 12.0783594 54.4275781 3.54320313 69.6424219 0.574453125 80.7752344 72.1599219 80.7752344 69.1911719 69.6424219"></polyline>
                        <polyline id="Fill-138" fill="#385764" mask="url(#mask-2)" points="69.1911719 69.6424219 60.6560156 54.4275781 36.3671875 49.9744531 34.8828125 50.2475781 57.6872656 54.4275781 66.2224219 69.6424219 69.1911719 80.7752344 72.1599219 80.7752344 69.1911719 69.6424219"></polyline>
                        <path d="M64.0515234,33.3279297 C60.5907031,39.9096484 51.65625,46.4898828 36.3671875,46.4898828 C21.078125,46.4898828 12.1436719,39.9096484 8.68285156,33.3279297 C8.68285156,33.3279297 14.7183203,23.7462891 15.60375,20.1667187 C18.24,9.55640625 24.9041016,0.42453125 36.3671875,0.42453125 C47.8362109,0.42453125 54.4951172,9.55640625 57.130625,20.1667187 C58.0219922,23.7462891 64.0515234,33.3279297 64.0515234,33.3279297" id="Fill-139" fill="#FBD87E" mask="url(#mask-2)"></path>
                        <path d="M57.130625,20.1667187 C54.4951172,9.55640625 47.8362109,0.42453125 36.3671875,0.42453125 C35.7764062,0.42453125 35.2026953,0.45421875 34.6371484,0.500976562 C45.0478125,1.37453125 51.1716016,10.1026562 53.6705469,20.1667187 C54.5626562,23.7462891 60.5921875,33.3279297 60.5921875,33.3279297 C57.2649609,39.6550781 48.8633984,45.9629297 34.6371484,46.443125 C35.2101172,46.4631641 35.7749219,46.4898828 36.3671875,46.4898828 C51.65625,46.4898828 60.5907031,39.9096484 64.0515234,33.3279297 C64.0515234,33.3279297 58.0219922,23.7462891 57.130625,20.1667187" id="Fill-140" fill="#EDC96C" mask="url(#mask-2)"></path>
                        <path d="M36.3671875,59.6852344 C34.6007812,59.7141797 30.4393359,50.4338672 30.4393359,50.4338672 L28.701875,37.6251953 L44.0325,37.6251953 L42.3388281,50.1221484 C42.3388281,50.1221484 38.1848047,59.6548047 36.3671875,59.6852344" id="Fill-141" fill="#F8D3C4" mask="url(#mask-2)"></path>
                        <path d="M41.8059375,37.6251953 L40.1122656,50.1221484 C40.1122656,50.1221484 37.2555859,56.6741797 35.2435156,58.9296875 C35.6687891,59.4024609 36.0554687,59.6904297 36.3671875,59.6852344 C38.1848047,59.6548047 42.3388281,50.1221484 42.3388281,50.1221484 L44.0325,37.6251953 L41.8059375,37.6251953" id="Fill-142" fill="#EEC8BA" mask="url(#mask-2)"></path>
                        <path d="M22.7450781,27.2464453 C22.7450781,28.2023828 21.9717187,28.9764844 21.0157812,28.9764844 C20.0591016,28.9764844 19.2857422,28.2023828 19.2857422,27.2464453 C19.2857422,26.29125 20.0591016,25.5164063 21.0157812,25.5164063 C21.9717187,25.5164063 22.7450781,26.29125 22.7450781,27.2464453" id="Fill-143" fill="#297095" mask="url(#mask-2)"></path>
                        <path d="M52.5839844,27.2464453 C52.5839844,28.2023828 51.8098828,28.9764844 50.8539453,28.9764844 C49.8972656,28.9764844 49.1239062,28.2023828 49.1239062,27.2464453 C49.1239062,26.29125 49.8972656,25.5164063 50.8539453,25.5164063 C51.8098828,25.5164063 52.5839844,26.29125 52.5839844,27.2464453" id="Fill-144" fill="#297095" mask="url(#mask-2)"></path>
                        <path d="M50.8539453,25.7694922 C50.8539453,35.3422266 44.3679688,43.1032812 36.3671875,43.1032812 C28.3664063,43.1032812 21.8804297,35.3422266 21.8804297,25.7694922 C21.8804297,16.1960156 28.3664063,8.43570312 36.3671875,8.43570312 C44.3679688,8.43570312 50.8539453,16.1960156 50.8539453,25.7694922" id="Fill-145" fill="#FBDDD1" mask="url(#mask-2)"></path>
                        <path d="M36.3671875,8.43570312 C35.9285547,8.43570312 35.4980859,8.46835937 35.0698437,8.514375 C42.4620312,9.30035156 48.2592578,16.72 48.2592578,25.7694922 C48.2592578,34.8182422 42.4620312,42.2386328 35.0698437,43.0238672 C35.4980859,43.0698828 35.9285547,43.1032812 36.3671875,43.1032812 C44.3679687,43.1032812 50.8539453,35.3422266 50.8539453,25.7694922 C50.8539453,16.1960156 44.3679687,8.43570312 36.3671875,8.43570312" id="Fill-146" fill="#F0D3C5" mask="url(#mask-2)"></path>
                        <path d="M45.6645703,10.9220313 C45.6645703,19.3547656 21.8804297,11.8950391 21.8804297,27.2464453 C21.8804297,27.2464453 20.4747266,4.4353125 36.3671875,4.4353125 C43.2888281,4.4353125 45.6645703,10.9220313 45.6645703,10.9220313" id="Fill-147" fill="#FBD87E" mask="url(#mask-2)"></path>
                        <polyline id="Fill-148" fill="#F8F8F6" mask="url(#mask-2)" points="52.0147266 53.3142969 42.6691016 47.6766406 36.3671875 59.6852344 30.0652734 47.6766406 20.7196484 53.3142969 26.41 54.3036328 24.8632812 56.2830469 36.3671875 65.3748438 47.8710937 56.2830469 46.324375 54.3036328 52.0147266 53.3142969"></polyline>
                    </g>
                </g>
            </g>
        </g>
    </g>
</svg>