<svg xmlns="http://www.w3.org/2000/svg" width="198" height="159" viewBox="0 0 198 159">
    <g fill="none" fill-rule="evenodd" transform="translate(1 1)">
        <path fill="#F7F7F7" d="M80 85.304c0 21.998-17.909 39.83-40 39.83S0 107.302 0 85.304c0-21.997 17.909-39.83 40-39.83s40 17.833 40 39.83"/>
        <path fill="#F8D39F" stroke="#E47700" stroke-width="2" d="M80 85.304c0 21.998-17.909 39.83-40 39.83S0 107.302 0 85.304c0-21.997 17.909-39.83 40-39.83s40 17.833 40 39.83z"/>
        <path fill="#F8D39F" d="M32.309 93.857v11.323c0 1.25 3.436 2.264 7.675 2.264s7.676-1.014 7.676-2.264V93.857H32.309z"/>
        <path stroke="#E47700" stroke-width="2" d="M32.309 93.857v11.323c0 1.25 3.436 2.264 7.675 2.264s7.676-1.014 7.676-2.264V93.857H32.309z"/>
        <path fill="#F8D39F" stroke="#E47700" stroke-width="2" d="M31.08 84.22c0 2.101-1.923 3.804-4.297 3.804-2.374 0-4.298-2.518-4.298-4.62 0-2.1 1.924-2.988 4.298-2.988s4.298 1.703 4.298 3.804M48.888 83.812c0 2.101 1.924 3.804 4.298 3.804s4.298-2.518 4.298-4.619-1.924-2.989-4.298-2.989-4.298 1.703-4.298 3.804"/>
        <path fill="#E47700" d="M39.984 65.8c-7.63 0-13.816 5.84-13.816 13.044 0 7.203 6.186 13.043 13.816 13.043 7.63 0 13.815-5.84 13.815-13.043 0-7.204-6.185-13.044-13.815-13.044"/>
        <path stroke="#E47700" stroke-width="2" d="M39.984 65.8c-7.63 0-13.816 5.84-13.816 13.044 0 7.203 6.186 13.043 13.816 13.043 7.63 0 13.815-5.84 13.815-13.043 0-7.204-6.185-13.044-13.815-13.044z"/>
        <path fill="#F8D39F" d="M49.394 72.886c-2.468-1.358-5.77-2.195-9.41-2.195-3.64 0-6.94.837-9.408 2.195-.854 2.674-1.775 4.984-4.407 6.75v2.468c0 9.714 6.275 16.304 13.816 16.304 7.54 0 13.815-6.59 13.815-16.304v-2.468c-2.632-1.766-3.553-4.076-4.406-6.75"/>
        <path fill="#E78316" d="M34.703 82.541a1.78 1.78 0 1 1-3.56 0 1.78 1.78 0 0 1 3.56 0M49.741 82.541a1.78 1.78 0 1 1-3.56 0 1.78 1.78 0 0 1 3.56 0"/>
        <path stroke="#E47700" stroke-width="2" d="M49.394 72.886c-2.468-1.358-5.77-2.195-9.41-2.195-3.64 0-6.94.837-9.408 2.195-.854 2.674-1.775 4.984-4.407 6.75v2.468c0 9.714 6.275 16.304 13.816 16.304 7.54 0 13.815-6.59 13.815-16.304v-2.468c-2.632-1.766-3.553-4.076-4.406-6.75z"/>
        <g>
            <path fill="#F7F7F7" d="M196.014 74.304c0 21.998-17.909 39.83-40 39.83s-40-17.832-40-39.83c0-21.997 17.909-39.83 40-39.83s40 17.833 40 39.83"/>
            <path fill="#D8F0C8" stroke="#5ABC3E" stroke-width="2" d="M196.014 74.304c0 21.998-17.909 39.83-40 39.83s-40-17.832-40-39.83c0-21.997 17.909-39.83 40-39.83s40 17.833 40 39.83z"/>
        </g>
        <g>
            <path fill="#FFF" d="M102.007 156.69c-22.056 0-40-17.868-40-39.83s17.944-39.83 40-39.83 40 17.868 40 39.83-17.944 39.83-40 39.83"/>
            <path fill="#C2E9F9" stroke="#00A7DF" stroke-width="2" d="M142.007 116.86c0 21.997-17.909 39.83-40 39.83s-40-17.833-40-39.83c0-21.998 17.909-39.83 40-39.83s40 17.832 40 39.83z"/>
        </g>
        <circle cx="79" cy="36" r="5" fill="#C2E9F9" stroke="#00A7DF" stroke-width="2"/>
        <circle cx="118" cy="21" r="3" fill="#F8D39F" stroke="#E47700" stroke-width="2"/>
        <circle cx="90" cy="3" r="3" fill="#D8F0C8" stroke="#48B429" stroke-width="2"/>
        <g>
            <path fill="#00A7DF" d="M128.258 125.995c-3.253 0-5.89-2.334-5.89-5.214 0-.627.132-1.226.36-1.783a9.744 9.744 0 0 0-1.992-.213c-4.776 0-8.647 3.428-8.647 7.654 0 4.227 3.87 7.654 8.647 7.654 4.776 0 8.648-3.427 8.648-7.654 0-.182-.017-.36-.031-.538-.355.06-.721.094-1.095.094"/>
            <path stroke="#00A7DF" stroke-width="2" d="M128.258 125.995c-3.253 0-5.89-2.334-5.89-5.214 0-.627.132-1.226.36-1.783a9.744 9.744 0 0 0-1.992-.213c-4.776 0-8.647 3.428-8.647 7.654 0 4.227 3.87 7.654 8.647 7.654 4.776 0 8.648-3.427 8.648-7.654 0-.182-.017-.36-.031-.538-.355.06-.721.094-1.095.094z"/>
            <path fill="#00A7DF" d="M103.316 115.513c0 5.882-5.386 10.649-12.031 10.649-6.645 0-12.031-4.767-12.031-10.649 0-5.881 5.386-10.649 12.03-10.649 6.646 0 12.032 4.768 12.032 10.65"/>
            <path stroke="#00A7DF" stroke-width="2" d="M103.316 115.513c0 5.882-5.386 10.649-12.031 10.649-6.645 0-12.031-4.767-12.031-10.649 0-5.881 5.386-10.649 12.03-10.649 6.646 0 12.032 4.768 12.032 10.65z"/>
            <path fill="#00A7DF" d="M90.533 118.175c0-7.994 7.322-14.476 16.355-14.476 9.032 0 16.354 6.482 16.354 14.476 0 7.995-7.322 14.476-16.354 14.476-9.033 0-16.355-6.481-16.355-14.476"/>
            <path stroke="#00A7DF" stroke-width="2" d="M90.533 118.175c0-7.994 7.322-14.476 16.355-14.476 9.032 0 16.354 6.482 16.354 14.476 0 7.995-7.322 14.476-16.354 14.476-9.033 0-16.355-6.481-16.355-14.476z"/>
            <path fill="#00A7DF" d="M105.572 124.775c0-6.064-5.555-10.981-12.407-10.981s-12.407 4.917-12.407 10.981c0 6.065 5.555 10.982 12.407 10.982s12.407-4.917 12.407-10.982"/>
            <path stroke="#00A7DF" stroke-width="2" d="M105.572 124.775c0-6.064-5.555-10.981-12.407-10.981s-12.407 4.917-12.407 10.981c0 6.065 5.555 10.982 12.407 10.982s12.407-4.917 12.407-10.982z"/>
            <path fill="#00A7DF" d="M120.234 125.972c0-5.697-5.218-10.316-11.655-10.316-6.437 0-11.655 4.619-11.655 10.316 0 5.698 5.218 10.316 11.655 10.316 6.437 0 11.655-4.618 11.655-10.316"/>
            <path stroke="#00A7DF" stroke-width="2" d="M120.234 125.972c0-5.697-5.218-10.316-11.655-10.316-6.437 0-11.655 4.619-11.655 10.316 0 5.698 5.218 10.316 11.655 10.316 6.437 0 11.655-4.618 11.655-10.316z"/>
            <path fill="#00A7DF" d="M82.924 109.128c0-7.939 7.272-14.376 16.242-14.376s16.242 6.437 16.242 14.376"/>
            <path stroke="#00A7DF" stroke-width="2" d="M82.924 109.128c0-7.939 7.272-14.376 16.242-14.376s16.242 6.437 16.242 14.376"/>
            <path fill="#C2E9F9" d="M92.85 123.88v13.578c0 1.324 2.828 2.396 6.316 2.396 3.489 0 6.317-1.072 6.317-2.396v-13.577H92.85z"/>
            <path stroke="#00A7DF" stroke-width="2" d="M92.85 123.88v13.578c0 1.324 2.828 2.396 6.316 2.396 3.489 0 6.317-1.072 6.317-2.396v-13.577H92.85z"/>
            <path fill="#C2E9F9" d="M85.631 112.167v2.044c0 9.347 6.147 17.257 13.535 17.257 7.387 0 13.535-7.91 13.535-17.257v-2.044"/>
            <path stroke="#00A7DF" stroke-width="2" d="M85.631 112.167v2.044c0 9.347 6.147 17.257 13.535 17.257 7.387 0 13.535-7.91 13.535-17.257v-2.044"/>
            <path fill="#C2E9F9" d="M87.055 113.167c0-2.94 4.636-5.325 12.111-5.325 7.476 0 13.536 2.385 13.536 5.325"/>
            <path stroke="#00A7DF" stroke-width="2" d="M85.632 112.167c0-2.94 6.06-5.325 13.534-5.325 7.476 0 13.536 2.385 13.536 5.325"/>
            <path fill="#00A7DF" d="M93.703 118.541a1.78 1.78 0 1 1-3.56 0 1.78 1.78 0 0 1 3.56 0M108.741 118.541a1.78 1.78 0 1 1-3.56 0 1.78 1.78 0 0 1 3.56 0M102.094 95.366c4.82 4.265 4.82 11.182 0 15.447-4.819 4.265-12.633 4.265-17.452 0"/>
            <path stroke="#00A7DF" stroke-width="2" d="M102.094 95.366c4.82 4.265 4.82 11.182 0 15.447-4.819 4.265-12.633 4.265-17.452 0"/>
            <path fill="#00A7DF" d="M107.33 101.645c-3.13 2.77-3.13 7.261 0 10.031 3.13 2.77 8.204 2.77 11.334 0"/>
            <path stroke="#00A7DF" stroke-width="2" d="M107.33 101.645c-3.13 2.77-3.13 7.261 0 10.031 3.13 2.77 8.204 2.77 11.334 0"/>
        </g>
        <g>
            <path fill="#48B429" d="M141.002 65.806c0-7.821 7.163-14.161 16-14.161s16 6.34 16 14.161"/>
            <path stroke="#48B429" stroke-width="2" d="M141.002 65.806c0-7.821 7.163-14.161 16-14.161s16 6.34 16 14.161"/>
            <path fill="#48B429" d="M170.002 92.753h-26c-1.657 0-3-1.19-3-2.656v-24.29h32v24.29c0 1.467-1.343 2.656-3 2.656"/>
            <path stroke="#48B429" stroke-width="2" d="M170.002 92.753h-26c-1.657 0-3-1.19-3-2.656v-24.29h32v24.29c0 1.467-1.343 2.656-3 2.656z"/>
            <path fill="#48B429" d="M157.001 94.5c0 2.174-1.99 3.936-4.446 3.936-2.455 0-4.445-1.762-4.445-3.935s1.99-3.935 4.445-3.935c2.456 0 4.446 1.762 4.446 3.935M165.892 94.5c0 2.174-1.99 3.936-4.446 3.936-2.455 0-4.445-1.762-4.445-3.935s1.99-3.935 4.445-3.935c2.456 0 4.446 1.762 4.446 3.935"/>
            <path fill="#D8F0C8" d="M150.78 80.34v13.374c0 1.304 2.785 2.36 6.221 2.36 3.437 0 6.222-1.056 6.222-2.36V80.339H150.78z"/>
            <path stroke="#48B429" stroke-width="2" d="M150.78 80.34v13.374c0 1.304 2.785 2.36 6.221 2.36 3.437 0 6.222-1.056 6.222-2.36V80.339H150.78z"/>
            <path fill="#D8F0C8" d="M143.668 66.177v4.72c0 9.376 6.056 17.31 13.333 17.31 7.278 0 13.334-7.934 13.334-17.31v-4.72h-26.667z"/>
            <path stroke="#48B429" stroke-width="2" d="M143.668 66.177v4.72c0 9.376 6.056 17.31 13.333 17.31 7.278 0 13.334-7.934 13.334-17.31v-4.72h-26.667z"/>
            <path fill="#48B429" d="M170.335 66.177c0 1.304-5.97 2.36-13.333 2.36-7.364 0-13.334-1.056-13.334-2.36 0-1.304 5.97-2.36 13.334-2.36 7.363 0 13.333 1.056 13.333 2.36"/>
            <path stroke="#48B429" stroke-width="2" d="M170.335 66.177c0 1.304-5.97 2.36-13.333 2.36-7.364 0-13.334-1.056-13.334-2.36 0-1.304 5.97-2.36 13.334-2.36 7.363 0 13.333 1.056 13.333 2.36z"/>
            <path fill="#48B429" d="M151.669 73.465a1.78 1.78 0 1 1-3.558.002 1.78 1.78 0 0 1 3.558-.002M165.892 73.465a1.78 1.78 0 1 1-3.558.002 1.78 1.78 0 0 1 3.558-.002"/>
        </g>
    </g>
</svg>
