<svg xmlns="http://www.w3.org/2000/svg" width="80" height="62" viewBox="0 0 80 62">
    <g fill="none" fill-rule="evenodd">
        <path d="M0-11h80v80H0z"/>
        <g fill-rule="nonzero">
            <path fill="#F7F7F7" d="M43.72 23.188c0 11.988-9.564 21.706-21.36 21.706C10.563 44.894 1 35.176 1 23.188 1 11.199 10.563 1.48 22.36 1.48c11.796 0 21.36 9.718 21.36 21.707"/>
            <path fill="#F8D39F" stroke="#E47700" stroke-width="1.5" d="M43.72 22.02c0 11.61-9.564 21.022-21.36 21.022C10.563 43.042 1 33.63 1 22.02 1 10.41 10.563 1 22.36 1c11.796 0 21.36 9.411 21.36 21.02z"/>
        </g>
        <path fill="#F8D39F" fill-rule="nonzero" d="M17.797 26.356v6.773c0 .748 2.038 1.354 4.553 1.354s4.555-.606 4.555-1.354v-6.773h-9.108z"/>
        <path stroke="#E47700" stroke-width="1.212" d="M17.797 26.356v6.773c0 .748 2.038 1.354 4.553 1.354s4.555-.606 4.555-1.354v-6.773h-9.108z"/>
        <path fill="#F8D39F" fill-rule="nonzero" stroke="#E47700" stroke-width="1.212" d="M17.068 20.592c0 1.256-1.142 2.275-2.55 2.275-1.409 0-2.55-1.506-2.55-2.763s1.141-1.788 2.55-1.788c1.408 0 2.55 1.019 2.55 2.276M27.633 20.348c0 1.257 1.142 2.275 2.55 2.275 1.41 0 2.55-1.506 2.55-2.763s-1.14-1.788-2.55-1.788c-1.408 0-2.55 1.019-2.55 2.276"/>
        <path fill="#E47700" fill-rule="nonzero" d="M22.35 9.574c-4.527 0-8.197 3.493-8.197 7.802 0 4.309 3.67 7.802 8.198 7.802 4.527 0 8.196-3.493 8.196-7.802 0-4.309-3.67-7.802-8.196-7.802"/>
        <path stroke="#E47700" stroke-width="1.212" d="M22.35 9.574c-4.527 0-8.197 3.493-8.197 7.802 0 4.309 3.67 7.802 8.198 7.802 4.527 0 8.196-3.493 8.196-7.802 0-4.309-3.67-7.802-8.196-7.802z"/>
        <path fill="#F8D39F" fill-rule="nonzero" d="M27.933 13.812C26.47 13 24.51 12.5 22.351 12.5c-2.16 0-4.119.501-5.583 1.313-.507 1.6-1.053 2.981-2.615 4.038v1.476c0 5.81 3.723 9.752 8.198 9.752 4.474 0 8.196-3.941 8.196-9.752V17.85c-1.561-1.057-2.108-2.438-2.614-4.038"/>
        <path fill="#E78316" fill-rule="nonzero" d="M19.217 19.588a1.06 1.06 0 0 1-1.056 1.064 1.06 1.06 0 0 1-1.056-1.064 1.06 1.06 0 0 1 1.056-1.065 1.06 1.06 0 0 1 1.056 1.065M28.14 19.588a1.06 1.06 0 0 1-1.057 1.064 1.06 1.06 0 0 1-1.056-1.064 1.06 1.06 0 0 1 1.056-1.065 1.06 1.06 0 0 1 1.057 1.065"/>
        <path stroke="#E47700" stroke-width="1.212" d="M27.933 13.812C26.47 13 24.51 12.5 22.351 12.5c-2.16 0-4.119.501-5.583 1.313-.507 1.6-1.053 2.981-2.615 4.038v1.476c0 5.81 3.723 9.752 8.198 9.752 4.474 0 8.196-3.941 8.196-9.752V17.85c-1.561-1.057-2.108-2.438-2.614-4.038z"/>
        <g>
            <path fill="#C2E9F9" fill-rule="nonzero" stroke="#00A7DF" stroke-width="1.5" d="M78.645 39.272c0 11.61-9.411 21.02-21.02 21.02-11.61 0-21.021-9.41-21.021-21.02s9.411-21.02 21.02-21.02c11.61 0 21.021 9.41 21.021 21.02z"/>
            <path fill="#00A7DF" fill-rule="nonzero" d="M73.605 43.405c-1.786 0-3.233-1.226-3.233-2.74 0-.33.072-.644.198-.937a5.577 5.577 0 0 0-1.094-.111c-2.621 0-4.746 1.8-4.746 4.022 0 2.221 2.125 4.022 4.746 4.022 2.622 0 4.747-1.8 4.747-4.022 0-.095-.01-.189-.017-.283-.195.031-.396.05-.601.05"/>
            <path stroke="#00A7DF" stroke-width="1.212" d="M73.605 43.405c-1.786 0-3.233-1.226-3.233-2.74 0-.33.072-.644.198-.937a5.577 5.577 0 0 0-1.094-.111c-2.621 0-4.746 1.8-4.746 4.022 0 2.221 2.125 4.022 4.746 4.022 2.622 0 4.747-1.8 4.747-4.022 0-.095-.01-.189-.017-.283-.195.031-.396.05-.601.05z"/>
            <path fill="#00A7DF" fill-rule="nonzero" d="M59.914 37.897c0 3.091-2.956 5.596-6.603 5.596-3.648 0-6.604-2.505-6.604-5.596 0-3.09 2.956-5.596 6.604-5.596 3.647 0 6.603 2.505 6.603 5.596"/>
            <path stroke="#00A7DF" stroke-width="1.212" d="M59.914 37.897c0 3.091-2.956 5.596-6.603 5.596-3.648 0-6.604-2.505-6.604-5.596 0-3.09 2.956-5.596 6.604-5.596 3.647 0 6.603 2.505 6.603 5.596z"/>
            <path fill="#00A7DF" fill-rule="nonzero" d="M52.898 39.296c0-4.2 4.019-7.607 8.977-7.607s8.977 3.406 8.977 7.607c0 4.201-4.02 7.608-8.977 7.608-4.958 0-8.977-3.407-8.977-7.608"/>
            <path stroke="#00A7DF" stroke-width="1.212" d="M52.898 39.296c0-4.2 4.019-7.607 8.977-7.607s8.977 3.406 8.977 7.607c0 4.201-4.02 7.608-8.977 7.608-4.958 0-8.977-3.407-8.977-7.608z"/>
            <path fill="#00A7DF" fill-rule="nonzero" d="M61.153 42.765c0-3.188-3.05-5.771-6.81-5.771-3.761 0-6.81 2.583-6.81 5.77 0 3.188 3.049 5.772 6.81 5.772 3.76 0 6.81-2.584 6.81-5.771"/>
            <path stroke="#00A7DF" stroke-width="1.212" d="M61.153 42.765c0-3.188-3.05-5.771-6.81-5.771-3.761 0-6.81 2.583-6.81 5.77 0 3.188 3.049 5.772 6.81 5.772 3.76 0 6.81-2.584 6.81-5.771z"/>
            <path fill="#00A7DF" fill-rule="nonzero" d="M69.2 43.394c0-2.994-2.863-5.422-6.396-5.422-3.534 0-6.398 2.428-6.398 5.422 0 2.994 2.864 5.42 6.398 5.42 3.533 0 6.397-2.426 6.397-5.42"/>
            <path stroke="#00A7DF" stroke-width="1.212" d="M69.2 43.394c0-2.994-2.863-5.422-6.396-5.422-3.534 0-6.398 2.428-6.398 5.422 0 2.994 2.864 5.42 6.398 5.42 3.533 0 6.397-2.426 6.397-5.42z"/>
            <path fill="#00A7DF" fill-rule="nonzero" d="M48.722 34.542c0-4.173 3.991-7.555 8.915-7.555 4.923 0 8.915 3.382 8.915 7.555"/>
            <path stroke="#00A7DF" stroke-width="1.212" d="M48.722 34.542c0-4.173 3.991-7.555 8.915-7.555 4.923 0 8.915 3.382 8.915 7.555"/>
            <path fill="#C2E9F9" fill-rule="nonzero" d="M54.17 42.295v7.135c0 .695 1.552 1.258 3.466 1.258 1.916 0 3.468-.563 3.468-1.258v-7.135H54.17z"/>
            <path stroke="#00A7DF" stroke-width="1.212" d="M54.17 42.295v7.135c0 .695 1.552 1.258 3.466 1.258 1.916 0 3.468-.563 3.468-1.258v-7.135H54.17z"/>
            <path fill="#C2E9F9" fill-rule="nonzero" d="M50.208 36.139v1.074c0 4.912 3.374 9.069 7.429 9.069s7.43-4.157 7.43-9.07V36.14"/>
            <path stroke="#00A7DF" stroke-width="1.212" d="M50.208 36.139v1.074c0 4.912 3.374 9.069 7.429 9.069s7.43-4.157 7.43-9.07V36.14"/>
            <path fill="#C2E9F9" fill-rule="nonzero" d="M50.99 36.664c0-1.545 2.544-2.798 6.647-2.798s7.43 1.253 7.43 2.798"/>
            <path stroke="#00A7DF" stroke-width="1.212" d="M50.208 36.139c0-1.546 3.326-2.799 7.429-2.799s7.43 1.253 7.43 2.799"/>
            <path fill="#00A7DF" fill-rule="nonzero" d="M54.638 39.488c0 .517-.437.936-.977.936s-.977-.42-.977-.936.438-.935.977-.935c.54 0 .977.419.977.935M62.892 39.488c0 .517-.437.936-.977.936-.539 0-.977-.42-.977-.936s.438-.935.977-.935c.54 0 .977.419.977.935M59.244 27.31c2.645 2.241 2.645 5.876 0 8.117-2.645 2.242-6.934 2.242-9.58 0"/>
            <path stroke="#00A7DF" stroke-width="1.212" d="M59.244 27.31c2.645 2.241 2.645 5.876 0 8.117-2.645 2.242-6.934 2.242-9.58 0"/>
            <path fill="#00A7DF" fill-rule="nonzero" d="M62.118 30.609c-1.718 1.456-1.718 3.816 0 5.272 1.718 1.456 4.503 1.456 6.22 0"/>
            <path stroke="#00A7DF" stroke-width="1.212" d="M62.118 30.609c-1.718 1.456-1.718 3.816 0 5.272 1.718 1.456 4.503 1.456 6.22 0"/>
        </g>
    </g>
</svg>
