<?xml version="1.0" encoding="utf-8"?>
<!-- Generator: Adobe Illustrator 16.0.0, SVG Export Plug-In . SVG Version: 6.00 Build 0)  -->
<!DOCTYPE svg PUBLIC "-//W3C//DTD SVG 1.1//EN" "http://www.w3.org/Graphics/SVG/1.1/DTD/svg11.dtd" [
	<!ENTITY ns_extend "http://ns.adobe.com/Extensibility/1.0/">
	<!ENTITY ns_ai "http://ns.adobe.com/AdobeIllustrator/10.0/">
	<!ENTITY ns_graphs "http://ns.adobe.com/Graphs/1.0/">
	<!ENTITY ns_vars "http://ns.adobe.com/Variables/1.0/">
	<!ENTITY ns_imrep "http://ns.adobe.com/ImageReplacement/1.0/">
	<!ENTITY ns_sfw "http://ns.adobe.com/SaveForWeb/1.0/">
	<!ENTITY ns_custom "http://ns.adobe.com/GenericCustomNamespace/1.0/">
	<!ENTITY ns_adobe_xpath "http://ns.adobe.com/XPath/1.0/">
]>
<svg version="1.1" id="Layer_1" xmlns:x="&ns_extend;" xmlns:i="&ns_ai;" xmlns:graph="&ns_graphs;"
	 xmlns="http://www.w3.org/2000/svg" xmlns:xlink="http://www.w3.org/1999/xlink" x="0px" y="0px" width="68px" height="65px"
	 viewBox="0 0 68 65" enable-background="new 0 0 68 65" xml:space="preserve">
<metadata>
	<sfw  xmlns="&ns_sfw;">
		<slices></slices>
		<sliceSourceBounds  width="80" height="80" x="354.5" y="267" bottomLeftOrigin="true"></sliceSourceBounds>
	</sfw>
</metadata>
<g>
	<path fill="none" d="M-7-8h80v80H-7V-8z"/>
	<g transform="rotate(-14 53.532 5.472)">
		<path fill="#FED297" d="M2.5,0l46.848,0c1.381,0,2.501,1.119,2.501,2.5l0,30.018c0,1.381-1.119,2.5-2.5,2.5l-46.848,0
			c-1.38,0-2.5-1.119-2.5-2.5L0,2.5C0,1.119,1.119,0,2.5,0z"/>
		<path fill="none" stroke="#D87C00" stroke-width="1.5" d="M2.974,0.473l45.9,0c1.38,0,2.499,1.119,2.499,2.5l0,29.071
			c0,1.381-1.119,2.5-2.499,2.5l-45.9,0c-1.38,0-2.499-1.12-2.5-2.5l0-29.071C0.474,1.592,1.593,0.473,2.974,0.473z"/>
		<path fill="#F3AF52" d="M6.518,11.566l4.723,0c0.69,0,1.25,0.559,1.25,1.25l0,4.707c0,0.69-0.56,1.25-1.25,1.25l-4.723,0
			c-0.69,0-1.25-0.56-1.25-1.25l0-4.707C5.268,12.126,5.827,11.566,6.518,11.566z"/>
		<path fill="#F3AF52" d="M5.999,23.345l39.849,0c0.344,0,0.625,0.28,0.625,0.625l-0.001,0.011c0,0.345-0.279,0.625-0.625,0.625
			l-39.849,0c-0.345,0-0.625-0.28-0.624-0.626v-0.012C5.374,23.625,5.654,23.345,5.999,23.345z"/>
		<path fill="#F3AF52" d="M5.999,28.581l8.234,0.001c0.345,0,0.625,0.279,0.625,0.625l0,0.012c0,0.344-0.28,0.625-0.625,0.625
			l-8.234-0.001c-0.345,0-0.625-0.28-0.625-0.625v-0.012C5.374,28.861,5.654,28.581,5.999,28.581z"/>
	</g>
	
		<text transform="matrix(0.9703 -0.2419 0.2419 0.9703 19.0039 28.0166)" fill="#F3AF53" font-family="'Arial-BoldMT'" font-size="15.625">£50</text>
	<g transform="rotate(18 -39.605 65.682)">
		<path fill="#D8F0C8" d="M2.5,0l46.848,0c1.381,0,2.499,1.119,2.501,2.501l0,30.018c0,1.38-1.119,2.499-2.499,2.499L2.5,35.017
			C1.119,35.018,0,33.899,0,32.518L0,2.5C0,1.119,1.119,0,2.5,0z"/>
		<path fill="none" stroke="#65B142" stroke-width="1.5" d="M2.974,0.473l45.899,0c1.38,0,2.499,1.119,2.5,2.5l-0.001,29.072
			c0.001,1.38-1.118,2.499-2.5,2.499l-45.898,0c-1.381,0-2.5-1.119-2.5-2.5l0-29.071C0.474,1.592,1.593,0.473,2.974,0.473z"/>
		<path fill="#BCE5A1" d="M6.518,11.566l4.723,0c0.691,0,1.25,0.56,1.25,1.25l0,4.707c0,0.69-0.56,1.25-1.25,1.25l-4.723,0
			c-0.691,0-1.25-0.56-1.251-1.251l0-4.706C5.268,12.126,5.827,11.566,6.518,11.566z"/>
		<path fill="#BCE5A1" d="M5.999,24.607l24.042-0.001c0.345,0.001,0.625,0.281,0.625,0.625l0,0.011c0,0.346-0.279,0.626-0.624,0.626
			l-24.042,0c-0.345-0.001-0.625-0.28-0.625-0.625l0-0.012C5.374,24.887,5.654,24.607,5.999,24.607z"/>
		<path fill="#BCE5A1" d="M5.999,20.506l39.849-0.001c0.345,0.001,0.625,0.281,0.625,0.625l0,0.011c0,0.346-0.28,0.625-0.624,0.626
			l-39.85,0c-0.345-0.001-0.625-0.28-0.624-0.625l0-0.012C5.374,20.786,5.654,20.506,5.999,20.506z"/>
		<path fill="#BCE5A1" d="M5.999,28.581l8.234-0.001c0.345,0.001,0.625,0.281,0.625,0.626l0,0.011c0,0.346-0.28,0.626-0.625,0.626
			l-8.234,0c-0.345,0-0.625-0.28-0.625-0.625l0-0.012C5.374,28.861,5.654,28.581,5.999,28.581z"/>
	</g>
	
		<text transform="matrix(0.9511 0.309 -0.309 0.9511 29.3515 39.0224)" fill="#BCE5A1" font-family="'Arial-BoldMT'" font-size="15.625">50</text>
</g>
</svg>
