<svg xmlns:dc="http://purl.org/dc/elements/1.1/" xmlns:cc="http://creativecommons.org/ns#" xmlns:rdf="http://www.w3.org/1999/02/22-rdf-syntax-ns#" xmlns:svg="http://www.w3.org/2000/svg" xmlns="http://www.w3.org/2000/svg" xmlns:sodipodi="http://sodipodi.sourceforge.net/DTD/sodipodi-0.dtd" xmlns:inkscape="http://www.inkscape.org/namespaces/inkscape" viewBox="0 0 1278.9576 1598.4483750000002" version="1.1" x="0px" y="0px"><g transform="translate(4633.0333,-2069.7978)"><path style="" d="m -4020.3257,3348.28 c -66.0143,-3.9735 -117.6787,-13.4412 -173.125,-31.726 -97.6012,-32.1865 -180.9879,-83.4469 -253.1625,-155.6269 -103.4554,-103.4633 -165.339,-231.5241 -183.9506,-380.6642 -3.2927,-26.3848 -3.2927,-116.1152 0,-142.5 18.6116,-149.1401 80.4952,-277.201 183.9506,-380.6642 99.2834,-99.2909 226.6608,-162.5772 365.6625,-181.6764 32.0066,-4.3977 51.0911,-5.6245 87.5,-5.6245 36.4089,0 55.4934,1.2268 87.5,5.6245 139.0017,19.0992 266.3791,82.3855 365.6625,181.6764 94.5536,94.5608 156.1676,213.3862 178.5875,344.4142 6.8968,40.3069 7.625,50.5739 7.625,107.5 0,56.9261 -0.7282,67.193 -7.625,107.5 -22.4199,131.028 -84.0339,249.8534 -178.5875,344.4142 -106.2232,106.2312 -243.0604,170.4907 -393.8359,184.9475 -19.4544,1.8654 -71.1892,3.309 -86.2016,2.4054 z m 118.125,-369.8921 0,-178.125 178.125,0 178.125,0 0,-92.5 0,-92.5 -178.125,0 -178.125,0 0,-177.5 0,-177.5 -92.5,0 -92.5,0 0,177.5 0,177.5 -177.5,0 -177.5,0 0,92.5 0,92.5 177.5,0 177.5,0 0,178.125 0,178.125 92.5,0 92.5,0 0,-178.125 z" fill="#f64200"/></g></svg>