<?xml version="1.0" encoding="utf-8"?>
<!-- Generator: Adobe Illustrator 21.1.0, SVG Export Plug-In . SVG Version: 6.00 Build 0)  -->
<svg version="1.1" id="Layer_1" xmlns="http://www.w3.org/2000/svg" xmlns:xlink="http://www.w3.org/1999/xlink" x="0px" y="0px"
	 viewBox="0 0 1846 1414" style="enable-background:new 0 0 1846 1414;" xml:space="preserve">
<style type="text/css">
	.st0{fill:#F47932;}
	.st1{fill:#FFFFFF;}
</style>
<rect x="804" y="1177.4" class="st0" width="223" height="223"/>
<path class="st1" d="M459.2,908.7c35.7,0,65.4-14.8,85-32.4v-84.4h-87.4v21.5h64.4V866c-14.5,11.8-36.9,21.2-61.1,21.2
	c-51.4,0-83.8-37.5-83.8-88.1v-0.6c0-47.2,33.6-86.8,80.5-86.8c29.9,0,48.1,10,64.4,24.2l15.4-18.2c-21.2-17.8-43.3-28.1-79-28.1
	c-63.5,0-106.2,51.4-106.2,109.5v0.6C351.5,860.3,392.7,908.7,459.2,908.7 M604.2,905h23.9v-82.3h60.5L750,905h29.3l-65.1-86.5
	c33.3-6.1,57.5-26.6,57.5-61.7v-0.6c0-16.7-6-31.5-16.3-41.8c-13.3-13.3-34.2-21.2-60.2-21.2h-91.1L604.2,905L604.2,905z
	 M628.1,801.3v-85.9h65.4c34.2,0,54.2,15.7,54.2,41.8v0.6c0,27.2-22.7,43.6-54.5,43.6L628.1,801.3L628.1,801.3z M927.3,908.7
	c64.5,0,108.3-51.1,108.3-109.5v-0.6c0-58.4-43.3-108.9-107.7-108.9c-64.5,0-108.3,51.1-108.3,109.5v0.6
	C819.6,858.1,862.9,908.7,927.3,908.7 M927.9,886.6c-48.4,0-83.5-39.3-83.5-87.5v-0.6c0-48.1,34.5-86.8,82.9-86.8
	s83.5,39.3,83.5,87.4v0.6C1010.8,847.9,976.3,886.6,927.9,886.6 M1177,908.4c52.9,0,88.3-32.1,88.3-93.8V693.2h-23.9v123.1
	c0,46.3-24.8,69.9-63.8,69.9c-40.5,0-64.7-25.7-64.7-71.4V693.2H1089v123.1C1088.9,876.3,1124.6,908.4,1177,908.4 M1328,905h23.9
	v-74.7h51.4c45.1,0,83.2-23.6,83.2-69.3v-0.6c0-41.8-31.5-67.2-79.3-67.2H1328V905z M1351.9,808.5v-93.2h53.6
	c34.2,0,56.9,15.7,56.9,46v0.6c0,27.8-23,46.6-58.1,46.6H1351.9z"/>
<path class="st1" d="M116,569.8c38.4,0,62.6-14.8,84.7-37.2L185,517.1c-20.3,19.4-39.3,30.6-68.4,30.6c-46.6,0-82-38.4-82-87.5v-0.6
	c0-48.7,35.1-86.8,82-86.8c28.7,0,48.7,12.1,66.6,29l16.3-17.6c-21.2-20-44.2-33.6-82.6-33.6c-62.3,0-107.1,49.6-107.1,109.5v0.6
	C9.8,521.7,54.9,569.8,116,569.8 M339.1,569.5c53,0,88.4-32.1,88.4-93.8V354.3h-23.9v123.1c0,46.3-24.8,69.9-63.8,69.9
	c-40.6,0-64.7-25.7-64.7-71.4V354.3h-23.9v123.1C251.1,537.4,286.8,569.5,339.1,569.5 M496,566.1h23.9v-82.3h60.5l61.4,82.3h29.4
	l-65.1-86.5c33.3-6.1,57.5-26.6,57.5-61.7v-0.6c0-16.7-6.1-31.5-16.3-41.8c-13.3-13.3-34.2-21.2-60.2-21.2H496V566.1z M519.9,462.4
	v-85.9h65.3c34.2,0,54.2,15.7,54.2,41.8v0.6c0,27.2-22.7,43.6-54.5,43.6L519.9,462.4L519.9,462.4z M726.6,566.1h23.9v-82.3H811
	l61.4,82.3h29.4l-65.1-86.5c33.3-6.1,57.5-26.6,57.5-61.7v-0.6c0-16.7-6-31.5-16.3-41.8c-13.3-13.3-34.2-21.2-60.2-21.2h-91.1
	L726.6,566.1L726.6,566.1z M750.5,462.4v-85.9h65.4c34.2,0,54.2,15.7,54.2,41.8v0.6c0,27.2-22.7,43.6-54.5,43.6L750.5,462.4
	L750.5,462.4z M957.3,566.1H1112v-21.8H981.3v-74.1h115.6v-21.8H981.3v-72.3h129.2v-21.8H957.4L957.3,566.1L957.3,566.1z
	 M1172,566.1h23.3V392.5l136.8,173.7h19.1V354.3h-23.3V524l-133.4-169.7H1172V566.1z M1519.8,569.8c38.4,0,62.6-14.8,84.7-37.2
	l-15.7-15.4c-20.3,19.4-39.3,30.6-68.4,30.6c-46.6,0-82-38.4-82-87.5v-0.6c0-48.7,35.1-86.8,82-86.8c28.7,0,48.7,12.1,66.6,29
	l16.3-17.6c-21.2-20-44.2-33.6-82.6-33.6c-62.3,0-107.1,49.6-107.1,109.5v0.6C1413.6,521.7,1458.7,569.8,1519.8,569.8 M1721.4,566.1
	h24.2V482l88.1-127.7h-27.8l-72,105.9l-71.4-105.9h-29l88.1,128v83.8H1721.4z"/>
<path class="st1" d="M19.1,227.2H43v-92.3h114.7v-21.8H43V37.5h128.3V15.4H19.1V227.2z M322.4,230.9c64.4,0,108.3-51.1,108.3-109.5
	v-0.6c0-58.4-43.3-108.9-107.7-108.9S214.7,63,214.7,121.4v0.6C214.7,180.3,257.9,230.9,322.4,230.9 M323,208.8
	c-48.4,0-83.5-39.3-83.5-87.4v-0.6c0-48.1,34.5-86.8,82.9-86.8s83.5,39.3,83.5,87.5v0.6C405.9,170.1,371.4,208.8,323,208.8
	 M492.2,227.2h23.9v-82.3h60.5l61.4,82.3h29.4l-65.1-86.5c33.3-6.1,57.5-26.6,57.5-61.7v-0.6c0-16.7-6-31.5-16.3-41.8
	c-13.3-13.3-34.2-21.2-60.2-21.2h-91.1L492.2,227.2L492.2,227.2z M516.1,123.5V37.6h65.4c34.2,0,54.2,15.7,54.2,41.7v0.6
	c0,27.2-22.7,43.6-54.4,43.6L516.1,123.5L516.1,123.5z M721.8,227.2h154.6v-21.8H745.7v-74.1h115.6v-21.8H745.7V37.2H875V15.4H721.8
	V227.2z M935.5,227.2h23.3V56l77.2,113.2h1.2l77.2-113.5v171.6h23.9V15.4H1114L1036.9,131L959.7,15.4h-24.2L935.5,227.2L935.5,227.2
	z M1307.4,230.9c64.5,0,108.3-51.1,108.3-109.5v-0.6c0-58.4-43.3-108.9-107.7-108.9c-64.5,0-108.3,51.1-108.3,109.5v0.6
	C1199.7,180.3,1243,230.9,1307.4,230.9 M1308,208.8c-48.4,0-83.5-39.3-83.5-87.4v-0.6c0-48.1,34.5-86.8,82.9-86.8
	s83.5,39.3,83.5,87.5v0.6C1390.9,170.1,1356.4,208.8,1308,208.8 M1548.3,230.3c42.1,0,72.3-23.6,72.3-59.9v-0.6
	c0-32.4-21.8-49.6-69-59.9c-46.6-10-57.5-21.2-57.5-41.1v-0.6c0-19,17.5-34.2,45.1-34.2c21.8,0,41.5,7,61.1,23l13.9-18.5
	c-21.5-17.2-43.6-26-74.4-26c-40.2,0-69.6,24.5-69.6,57.8v0.6c0,34.8,22.4,50.6,71.1,61.1c44.5,9.4,55.1,20.6,55.1,40.2v0.6
	c0,20.9-18.8,36-47.2,36c-29.4,0-50.5-10-72.6-30l-14.8,17.6C1487.2,219.1,1514.7,230.3,1548.3,230.3 M1731.7,227.2h24.2V37.5h71.1
	V15.4h-166.4v22.1h71.1L1731.7,227.2L1731.7,227.2z"/>
<g>
	<path class="st1" d="M1550.4,701.5V768h-13.2v-66.5h-24.7v-11.9h62.8v11.9H1550.4z"/>
	<path class="st1" d="M1657.2,768l-0.1-58.5l-24.7,50.4h-8.6l-24.7-50.4V768h-12.4v-78.3h15.7l25.9,52l25.7-52h15.6V768H1657.2z"/>
</g>
</svg>
