<?xml version="1.0" encoding="UTF-8"?>
<svg width="24px" height="24px" viewBox="0 0 24 24" version="1.1" xmlns="http://www.w3.org/2000/svg" xmlns:xlink="http://www.w3.org/1999/xlink">
    <!-- Generator: sketchtool 41.2 (35397) - http://www.bohemiancoding.com/sketch -->
    <title>34445B06-8F6A-4147-A038-BA6DA52F967A</title>
    <desc>Created with sketchtool.</desc>
    <defs></defs>
    <g id="Symbols" stroke="none" stroke-width="1" fill="none" fill-rule="evenodd">
        <g id="ico-cross-orange" fill="#4A4A4A">
            <g id="Group-2" transform="translate(5.000000, 5.000000)">
                <path d="M0.439339828,2.56066017 L12.4393398,14.5606602 C13.0251263,15.1464466 13.9748737,15.1464466 14.5606602,14.5606602 C15.1464466,13.9748737 15.1464466,13.0251263 14.5606602,12.4393398 L2.56066017,0.439339828 C1.97487373,-0.146446609 1.02512627,-0.146446609 0.439339828,0.439339828 C-0.146446609,1.02512627 -0.146446609,1.97487373 0.439339828,2.56066017 Z" id="Line"></path>
                <path d="M2.56066017,14.5606602 L14.5606602,2.56066017 C15.1464466,1.97487373 15.1464466,1.02512627 14.5606602,0.439339828 C13.9748737,-0.146446609 13.0251263,-0.146446609 12.4393398,0.439339828 L0.439339828,12.4393398 C-0.146446609,13.0251263 -0.146446609,13.9748737 0.439339828,14.5606602 C1.02512627,15.1464466 1.97487373,15.1464466 2.56066017,14.5606602 Z" id="Line-Copy-2"></path>
            </g>
        </g>
    </g>
</svg>