<?xml version="1.0" encoding="UTF-8" standalone="no"?>
<!-- Created with Inkscape (http://www.inkscape.org/) -->

<svg
   xmlns:dc="http://purl.org/dc/elements/1.1/"
   xmlns:cc="http://creativecommons.org/ns#"
   xmlns:rdf="http://www.w3.org/1999/02/22-rdf-syntax-ns#"
   xmlns:svg="http://www.w3.org/2000/svg"
   xmlns="http://www.w3.org/2000/svg"
   xmlns:inkscape="http://www.inkscape.org/namespaces/inkscape"
   version="1.1"
   width="687.77502"
   height="166.27499"
   id="svg2"
   xml:space="preserve"><metadata
     id="metadata8"><rdf:RDF><cc:Work
         rdf:about=""><dc:format>image/svg+xml</dc:format><dc:type
           rdf:resource="http://purl.org/dc/dcmitype/StillImage" /></cc:Work></rdf:RDF></metadata><defs
     id="defs6" /><g
     transform="matrix(1.25,0,0,-1.25,0,166.275)"
     id="g10"><g
       transform="scale(0.1,0.1)"
       id="g12"><path
         d="M 611.227,318.469 857.855,71.6797 C 942.5,-13.0195 1081.05,-13.0586 1165.75,71.5781 l 0,0 c 84.69,84.6409 84.74,223.1919 0.1,307.8909 L 616.324,929.348"
         inkscape:connector-curvature="0"
         id="path14"
         style="fill:#ffffff;fill-opacity:1;fill-rule:nonzero;stroke:none" /><path
         d="M 621.367,318.461 374.578,71.8398 C 289.883,-12.8086 151.332,-12.7617 66.6914,71.9297 l 0,0.0117 C -17.9531,156.629 -17.9063,295.18 66.7891,379.824 L 616.672,929.348"
         inkscape:connector-curvature="0"
         id="path16"
         style="fill:#ed1c55;fill-opacity:1;fill-rule:nonzero;stroke:none" /><path
         d="m 1169.6,1174.13 c -84.64,84.69 -223.194,84.74 -307.889,0.1 L 616.672,929.348 616.469,313.051 1169.5,866.238 c 84.7,84.645 84.74,223.192 0.1,307.892 l 0,0"
         inkscape:connector-curvature="0"
         id="path18"
         style="fill:#ed1c55;fill-opacity:1;fill-rule:nonzero;stroke:none" /><path
         d="m 63.5508,1174.49 c 84.6992,84.64 223.2502,84.6 307.8902,-0.1 L 616.324,929.348 616.121,313.051 63.4531,866.598 c -84.6445,84.699 -84.5976,223.252 0.0977,307.892 l 0,0"
         inkscape:connector-curvature="0"
         id="path20"
         style="fill:#ffffff;fill-opacity:1;fill-rule:nonzero;stroke:none" /><path
         d="m 2759.9,733.781 c -141.96,0 -186.22,-138.273 -186.22,-269.179 0,-134.59 38.72,-276.551 182.53,-276.551 149.34,0 182.53,140.121 182.53,278.39 0,134.59 -35.03,267.34 -178.84,267.34 z M 2756.21,0 c -313.43,0 -433.27,217.551 -433.27,462.758 0,250.746 145.66,462.777 440.65,462.777 311.58,0 427.74,-212.031 427.74,-457.25 C 3191.33,223.082 3073.33,0 2756.21,0"
         inkscape:connector-curvature="0"
         id="path22"
         style="fill:#ffffff;fill-opacity:1;fill-rule:nonzero;stroke:none" /><path
         d="m 2140.9,193.582 c -70.06,0 -105.09,42.406 -105.09,129.059 l -0.6,396.398 231.67,0 c 0,0 39.57,93.641 137.09,194.594 -27.88,0 -368.16,0 -368.16,0 l 0,301.617 -27.65,3.68 c -16.6,1.86 -36.88,3.7 -57.16,3.7 -79.28,0 -165.93,-23.97 -165.93,-147.5 l 0,-161.263 -128.7,0 c 0,0 -6.6,-48.945 -5,-78.226 0,-56.625 38.03,-113.09 133.7,-116.082 l 0,-400.598 c 0,-53.481 3.69,-108.789 20.28,-158.57 C 1840.38,64.5117 1919.66,0 2072.68,0 c 123.63,0 230.31,41.1719 272.22,83.0898 -16.2,24.5512 -63.94,92.8012 -80.8,156.4692 -14.75,-14.75 -54.99,-45.977 -123.2,-45.977"
         inkscape:connector-curvature="0"
         id="path24"
         style="fill:#ffffff;fill-opacity:1;fill-rule:nonzero;stroke:none" /><path
         d="m 3801.81,912.984 c -24.99,9.168 -54.07,12.551 -79.88,12.551 -99.56,0 -173.31,-60.89 -202.81,-106.984 -14.75,64.531 -77.42,94.019 -156.71,94.019 -27.66,0 -46.1,-1.843 -60.85,-3.683 l -22.12,-3.688 0,-877.5584 250.75,0 0,567.8674 c 0,60.847 74.49,130.289 149.92,135.316 59.95,3.996 78.17,-3.023 121.7,-12.094 l 0,194.254"
         inkscape:connector-curvature="0"
         id="path26"
         style="fill:#ffffff;fill-opacity:1;fill-rule:nonzero;stroke:none" /><path
         d="m 4446.33,912.57 -181.93,0 0,52.11 c 0,118 59.47,169.49 153.51,169.49 66.1,0 97.79,-14.76 125.04,-42 l 84.06,155.78 c -32.9,36.6 -127,82.21 -246,82.21 -234.16,0 -365.51,-135.01 -365.51,-372.847 l 0,-44.743 -115.27,0 0,-193.84 115.27,0.036 0,-691.1254 248.9,0 0,691.1994 315.98,0.094 -134.05,193.636"
         inkscape:connector-curvature="0"
         id="path28"
         style="fill:#ed1c55;fill-opacity:1;fill-rule:nonzero;stroke:none" /><path
         d="m 5502.17,913.207 -294.55,-0.008 -182.46,-247.636 -111.62,151.699 c -45.97,62.488 -87.83,108.047 -176.07,116.234 -57.73,5.359 -135.38,-8.746 -180.73,-21.574 l 324.64,-441.551 -325.79,-443.0819 288.07,0 L 5026.35,274.648 5140,120.18 c 45.98,-62.4808 87.83,-108.0394 176.07,-116.23078 57.73,-5.35938 135.39,8.74218 180.73,21.57028 l -325.84,443.1955 331.21,444.492"
         inkscape:connector-curvature="0"
         id="path30"
         style="fill:#ed1c55;fill-opacity:1;fill-rule:nonzero;stroke:none" /></g></g></svg>