<?xml version="1.0" encoding="UTF-8"?>
<svg width="517px" height="516px" viewBox="0 0 517 516" version="1.1" xmlns="http://www.w3.org/2000/svg" xmlns:xlink="http://www.w3.org/1999/xlink">
    <!-- Generator: Sketch 41.2 (35397) - http://www.bohemiancoding.com/sketch -->
    <title>TORFX_LOGO_SIGN</title>
    <desc>Created with Sketch.</desc>
    <defs></defs>
    <g id="FINAL" stroke="none" stroke-width="1" fill="none" fill-rule="evenodd">
        <g id="TORFX_LOGO_SIGN" transform="translate(0.000000, -1.000000)">
            <g id="FINAL">
                <g>
                    <g id="TORFX_LOGO_SIGN">
                        <g id="Group-6-Clipped">
                            <g id="Group-6">
                                <g id="Group">
                                    <path d="M28.2265066,159.748368 L357.748553,489.270414 C394.067312,525.589173 452.951655,525.589173 489.270414,489.270414 C525.589173,452.951655 525.589173,394.067312 489.270414,357.748553 L159.748368,28.2265066 C123.429609,-8.0922525 64.5452658,-8.0922525 28.2265066,28.2265066 C-8.0922525,64.5452658 -8.0922525,123.429609 28.2265066,159.748368 Z" id="Line" fill="#FFFFFF"></path>
                                    <path d="M357.251632,28.2265066 L27.7295858,357.748553 C-8.58917335,394.067312 -8.58917335,452.951655 27.7295858,489.270414 C64.0483449,525.589173 122.932688,525.589173 159.251447,489.270414 L488.773493,159.748368 C525.092253,123.429609 525.092253,64.5452658 488.773493,28.2265066 C452.454734,-8.0922525 393.570391,-8.0922525 357.251632,28.2265066 Z" id="Line-Copy" fill="#EA1E4B"></path>
                                    <polygon id="Rectangle-5" fill="#FFFFFF" transform="translate(258.226212, 258.244827) rotate(-45.000000) translate(-258.226212, -258.244827) " points="165.276734 165.566388 165.294366 164.800066 351.195648 164.933037 351.193832 165.607666 165.256775 351.689588"></polygon>
                                </g>
                            </g>
                        </g>
                    </g>
                </g>
            </g>
        </g>
    </g>
</svg>