<?xml version="1.0" encoding="UTF-8"?>
<svg width="24px" height="24px" viewBox="0 0 24 24" version="1.1" xmlns="http://www.w3.org/2000/svg" xmlns:xlink="http://www.w3.org/1999/xlink">
    <!-- Generator: sketchtool 41.2 (35397) - http://www.bohemiancoding.com/sketch -->
    <title>80ADA6D5-E1F9-42FC-BA22-C20C088A2103</title>
    <desc>Created with sketchtool.</desc>
    <defs></defs>
    <g id="Symbols" stroke="none" stroke-width="1" fill="none" fill-rule="evenodd">
        <g id="ico-tick-orange" fill="rgb(229,35,79)">
            <g id="Group-2" transform="translate(2.000000, 5.000000)">
                <path d="M16.1819805,0.939339828 L5.5753788,11.5459415 C4.98959236,12.131728 4.98959236,13.0814755 5.5753788,13.6672619 C6.16116524,14.2530483 7.1109127,14.2530483 7.69669914,13.6672619 L18.3033009,3.06066017 C18.8890873,2.47487373 18.8890873,1.52512627 18.3033009,0.939339828 C17.7175144,0.353553391 16.767767,0.353553391 16.1819805,0.939339828 Z" id="Line"></path>
                <path d="M7.30330086,11.9393398 L3.06066017,7.69669914 C2.47487373,7.1109127 1.52512627,7.1109127 0.939339828,7.69669914 C0.353553391,8.28248558 0.353553391,9.23223305 0.939339828,9.81801948 L5.18198052,14.0606602 C5.76776695,14.6464466 6.71751442,14.6464466 7.30330086,14.0606602 C7.8890873,13.4748737 7.8890873,12.5251263 7.30330086,11.9393398 Z" id="Line-Copy-3"></path>
            </g>
        </g>
    </g>
</svg>