<svg xmlns="http://www.w3.org/2000/svg" width="22" height="22" viewBox="0 0 22 22">
    <g fill="#e5234f" fill-rule="nonzero">
        <path d="M20.096 1.692h-1.48V.846a.846.846 0 0 0-1.693 0v.846H5.077V.846a.846.846 0 0 0-1.692 0v.846H1.904C.854 1.692 0 2.547 0 3.596v16.5C0 21.146.854 22 1.904 22h18.192c1.05 0 1.904-.854 1.904-1.904v-16.5c0-1.05-.854-1.904-1.904-1.904zM1.904 3.385h1.48v.846a.846.846 0 0 0 1.693 0v-.846h11.846v.846a.846.846 0 0 0 1.692 0v-.846h1.481c.116 0 .212.094.212.211v2.327H1.692V3.596c0-.117.095-.211.212-.211zm18.192 16.923H1.904a.212.212 0 0 1-.212-.212V7.616h18.616v12.48a.212.212 0 0 1-.212.212z"/>
        <ellipse cx="7.615" cy="10.154" rx=".846" ry=".846"/>
        <ellipse cx="11" cy="10.154" rx=".846" ry=".846"/>
        <ellipse cx="14.385" cy="10.154" rx=".846" ry=".846"/>
        <ellipse cx="17.769" cy="10.154" rx=".846" ry=".846"/>
        <ellipse cx="4.231" cy="13.538" rx=".846" ry=".846"/>
        <circle cx="7.615" cy="13.538" r=".846"/>
        <ellipse cx="11" cy="13.538" rx=".846" ry=".846"/>
        <circle cx="14.385" cy="13.538" r=".846"/>
        <circle cx="17.769" cy="13.538" r=".846"/>
        <ellipse cx="4.231" cy="16.923" rx=".846" ry=".846"/>
        <ellipse cx="7.615" cy="16.923" rx=".846" ry=".846"/>
        <ellipse cx="11" cy="16.923" rx=".846" ry=".846"/>
    </g>
</svg>
