<?xml version="1.0" encoding="utf-8"?>
<!-- Generator: Adobe Illustrator 16.0.0, SVG Export Plug-In . SVG Version: 6.00 Build 0)  -->
<!DOCTYPE svg PUBLIC "-//W3C//DTD SVG 1.1//EN" "http://www.w3.org/Graphics/SVG/1.1/DTD/svg11.dtd" [
	<!ENTITY ns_extend "http://ns.adobe.com/Extensibility/1.0/">
	<!ENTITY ns_ai "http://ns.adobe.com/AdobeIllustrator/10.0/">
	<!ENTITY ns_graphs "http://ns.adobe.com/Graphs/1.0/">
	<!ENTITY ns_vars "http://ns.adobe.com/Variables/1.0/">
	<!ENTITY ns_imrep "http://ns.adobe.com/ImageReplacement/1.0/">
	<!ENTITY ns_sfw "http://ns.adobe.com/SaveForWeb/1.0/">
	<!ENTITY ns_custom "http://ns.adobe.com/GenericCustomNamespace/1.0/">
	<!ENTITY ns_adobe_xpath "http://ns.adobe.com/XPath/1.0/">
]>
<svg version="1.1"
	 id="svg2" xmlns:x="&ns_extend;" xmlns:i="&ns_ai;" xmlns:graph="&ns_graphs;" xmlns:svg="http://www.w3.org/2000/svg"
	 xmlns="http://www.w3.org/2000/svg" xmlns:xlink="http://www.w3.org/1999/xlink" x="0px" y="0px" width="666px" height="500px"
	 viewBox="167 0 666 500" enable-background="new 167 0 666 500" xml:space="preserve">
<metadata>
	<sfw  xmlns="&ns_sfw;">
		<slices></slices>
		<sliceSourceBounds  width="666.5" height="16383" y="-7885" x="62" bottomLeftOrigin="true"></sliceSourceBounds>
	</sfw>
</metadata>
<g>
	<path id="rect4131" fill="#CC0000" d="M450,0v200H167v100h283v200h100V300h283V200H550V0H450z"/>
	<g id="g3818" transform="matrix(1.0859095,0,0,1.0859095,89.952657,-275.35299)">
		<path id="path2453" fill="#FFFF18" stroke="#000000" stroke-width="1.0001" stroke-linecap="round" stroke-linejoin="round" d="
			M494.896,483.791c0,63.298-52.512,114.611-117.289,114.611s-117.289-51.313-117.289-114.611
			c0-63.298,52.512-114.611,117.289-114.611S494.896,420.493,494.896,483.791z"/>
		<path id="path7151" fill="#188400" stroke="#000000" stroke-linecap="round" stroke-linejoin="round" d="M492.957,483.791
			c0,62.012-51.643,112.284-115.349,112.284s-115.349-50.271-115.349-112.284s51.643-112.284,115.349-112.284
			S492.957,421.779,492.957,483.791L492.957,483.791z"/>
		<g id="g3782">
			<path id="path3774" fill="#FFFFFF" stroke="#000000" d="M353.499,435.973l2.777,5.555l0.376-6.306"/>
			<path id="path3776" fill="#FFFFFF" stroke="#000000" d="M358.003,435.598l3.228,4.504l1.351-5.78"/>
			<path id="path3778" fill="#FFFFFF" stroke="#000000" d="M355.601,451.437l1.051-4.729l2.102,4.204"/>
			<path id="path3780" fill="#FFFFFF" stroke="#000000" d="M360.48,450.687l1.426-3.679l1.501,3.754"/>
		</g>
		<path id="path3770" fill="#082900" stroke="#000000" stroke-linecap="round" stroke-linejoin="round" d="M316.77,430.788
			c6.715-6.724,10.436-13.698,4.259-21.497C311.956,416.457,311.805,423.622,316.77,430.788z"/>
		<path id="path3768" fill="#082900" stroke="#000000" stroke-linecap="round" stroke-linejoin="round" d="M316.567,432.005
			c11.126,3.332,15.972-3.412,20.685-12.371C328.765,420.662,320.383,419.557,316.567,432.005z"/>
		<path id="path3766" fill="#082900" stroke="#000000" stroke-linecap="round" stroke-linejoin="round" d="M304.602,417.403
			c-1.148,7.244,3.181,12.358,11.762,15.818C316.298,425.514,314.815,418.702,304.602,417.403z"/>
		<path id="path3772" fill="none" stroke="#000000" stroke-linecap="round" stroke-linejoin="round" d="M306.833,420.445
			c4.072,3.694,7.088,7.245,9.531,10.951c8.21-2.866,11.501-8.38,18.455-10.14 M316.364,431.396l3.651-17.035"/>
		<g id="g3762">
			<path id="path2988" fill="none" stroke="#000000" stroke-width="4.5" stroke-linecap="round" stroke-linejoin="round" d="
				M316.391,432.05l-5.879,27.613L316.391,432.05z"/>
			<path id="path3760" fill="none" stroke="#FFFF18" stroke-width="3" stroke-linecap="round" stroke-linejoin="round" d="
				M316.391,432.05l-5.879,27.613L316.391,432.05z"/>
		</g>
		<path id="path7596" fill="none" stroke="#000000" stroke-linecap="round" stroke-linejoin="round" d="M415.803,563.977
			c-6.009,4.813-4.096-0.847-11.106,4.759"/>
		<g id="g7586">
			<path id="path7584" fill="#FFFF18" stroke="#000000" stroke-linecap="round" stroke-linejoin="round" d="M418.02,415.692
				c-0.313,0.125-0.801-0.266-1.282-1.025c-0.481-0.759-0.88-1.772-1.048-2.654c-0.168-0.883-0.078-1.502,0.236-1.624
				c0.312-0.125,0.8,0.266,1.282,1.025c0.48,0.759,0.88,1.771,1.048,2.654C418.423,414.951,418.333,415.57,418.02,415.692
				L418.02,415.692z"/>
			<path id="path7582" fill="#FFFF18" stroke="#000000" stroke-linecap="round" stroke-linejoin="round" d="M416.499,417.667
				c-0.433,0.173-1.118-0.385-1.795-1.465c-0.677-1.08-1.245-2.516-1.487-3.767c-0.243-1.251-0.124-2.126,0.31-2.296
				c0.433-0.173,1.118,0.385,1.795,1.465s1.244,2.516,1.487,3.767C417.052,416.622,416.933,417.497,416.499,417.667z"/>
			<path id="path7580" fill="#FFFF18" stroke="#000000" stroke-linecap="round" stroke-linejoin="round" d="M414.401,420.202
				c-0.947,0.376-2.566-1.474-3.615-4.131c-1.049-2.657-1.13-5.114-0.181-5.486c0.947-0.376,2.566,1.474,3.615,4.131
				C415.268,417.372,415.349,419.83,414.401,420.202L414.401,420.202z"/>
		</g>
		<path id="path7514" fill="#FFFF18" stroke="#000000" stroke-linecap="round" stroke-linejoin="round" d="M416.081,523.495
			c1.169,0.509,0.835,1.878,1.627,2.036c0.472,0.094,1.623,0.317,2.312,0.144c0.545-0.136,0.868-2.006,0.868-1.444
			c0,0.411,0.022,1.156,0.433,1.156c0.821,0,2.481,0.35,3.18,0c0.523-0.262,0.681-1.321,0.722-1.156
			c0.205,0.819,0.458,0.722,1.445,0.722c0.723,0,1.014,0,1.736,0c0.449,0,2.2,0.139,1.446-0.867
			c-0.58-0.772-0.999-0.868-0.725-0.868c0.657,0,1.854,0.241,2.458,0c0.241-0.095,0.481-0.192,0.722-0.289
			c0.254-2.519,4.336-3.049,4.336-8.094c0-6.755-14.03-26.707-14.03-35.474c0-3.429,1.686-4.967,4.891-4.958
			c3.755,0.011,8.138,5.53,7.112,10.842c1.179-0.802,2.467-1.55,3.014-3.434c3.277,7.849,8.582,7.636,14.128,6.459
			c-7.316-5.466-8.462-21.524-22.184-21.579c-4.56-0.018-11.974,1.574-11.974,14.891c0,9.493,13.023,24.81,13.023,32.299
			c0,3.015-2.647,5.504-6.844,5.504c-8.025,0-7.664-5.228-14.402-10.935c-4.566-3.867-12.892-7.367-13.592-12.74
			c-0.424-3.25-0.433-6.517-0.358-9.776c0.982,1.223,1.965,2.302,2.947,3.094c0.757-7.602,1.676-11.751,2.434-14.598
			c1.027,0.951,2.055,1.372,3.082,1.46c-0.762-6.406-0.313-13.114,0.648-19.951c0.308,5.315,3.729,7.517,6.975,9.895
			c-0.368-4.607-1.501-10.053-3.73-14.436c1.46,2.268,3.14,3.555,5.028,4.541c-0.033-3.893,0.586-6.812-1.136-10.705l5.267,2.288
			c-2.143-4.821-3.997-10.029-7.713-12.753c2.605,0.791,5.211,0.605,7.817,0.617c-4.36-2.336-8.246-5.079-10.696-9.051l2.674-1.954
			c-5.318-0.113-9.165-6.539-27.151-6.539c-12.362,0-24.978,6.539-27.049,6.539c-1.956,0-3.744,1.936-2.684,4.791
			c1.031,2.774-0.809,8.622,3.775,7.379c15.403-4.174,15.875,3.704,16.732,7.207c0.806,3.674-0.478,6.296-5.835,6.435
			c-2.059,0.054-3.75-0.54-5.148-0.515c-10.588,0.189-6.073,4.908-5.455,7.207c3.034,0,6.595-2.59,8.373-2.66
			c3.197-0.125,3.942,2.046,8.666,2.145c-2.961,10.802-23.482,2.303-26.355,16.509c-0.024,0.206-0.049,0.413-0.073,0.62
			c-0.066,0.556-0.786-0.139-1.114-0.139c-0.733,0,0.278,1.236-1.254,0c-0.3-0.242-0.546,0.854-0.801,1.109
			c-0.534,0.534-1.141-0.273-1.289-0.567c-0.327-0.655-0.975,0.817-0.975,1.13c0,0.093,0,0.186,0,0.278
			c-25.807,12.611-32.532-17.069-45.685-2.507l0.212,2.227l1.621,4.48l3.908,4.099c8.599-3.549,11.531,2.086,14.395,7.531
			c0.127-0.095,0.255-0.191,0.381-0.286c0.205-0.154,0.231-1.496,0.286-1.716c0.151-0.603,0.534-1.366,0.953-0.667
			c0.795,1.325,1.281,2.222,2.097,3.241c0.33,0.413,1.156,0.953,1.716,0.953c0.092,0,0.8-0.895,0.858-0.953
			c0.332-0.332,0.668-0.77,0.668-1.239c0-0.103,0.42,1.749,1.811,2.097c0.49,0.123,0.702,0.929,0.858,1.239
			c0.156,0.314,1.049,0.659,1.049-0.095c0-0.72,0.286-1.499,0.286-2.288c0.67,0.864,1.799,0.738,2.288,1.716
			c0.19,0.38,0.812,0.882,1.144,1.049c0.594,0.298,0.858,0.798,0.858-0.191c0-0.574,0.095-1.217,0.095-1.907
			c0-0.592,1.022,0.776,1.716,1.239c0.63,0.42,1.571,0.418,2.193,0.667c0.551,0.22,0.78,0.668,1.431,0.668
			c0.161,0,0.548-0.89,0.667-1.049c0.183-0.246,0.397-0.83,0.477-1.144c0-0.001,1.279,0.63,1.43,0.667
			c0.457,0.114,1.068,0.683,1.525,1.049c0.302,0.242,0.799,0.367,1.239,0.478c0.127,0,0.254,0,0.381,0
			c0.211,0,0.738-0.906,0.858-1.145c0.165-0.33,0-1.142,0-1.525c0-0.175,0.068,1.144,1.239,1.144c0.516,0,1.092,0.208,1.525,0.381
			c0.487,0.195,0.825,0.814,1.144,1.24c0.374,0.498,1.335,0.475,1.335-0.095c0-0.527-0.191-0.835-0.191-1.431
			c0-0.683-0.004-1.152,0.381-0.381c0.22,0.44,1.226,0.381,1.716,0.381c0.436,0,1.13,0.252,1.431,0.477
			c0.39,0.293,0.639,0.463,1.049,0.668c0.353,0.176,0.297-1.263,0.477-1.621c0.264-0.53-0.237-0.165,0.477,0.191
			c0.428,0.214,1.015,0.087,1.43,0.191c0.345,0.086,0.435,0.013,0.763,0.095c0.031,0.159,0.064,0.317,0.095,0.477
			c0.147,0.739-0.051,1.555,0.095,2.289c0.096,0.483,0.095,1.156,0.095,1.621c0,0.317,1.06,0.964,1.239,1.144
			c0.441,0.44,0.945,0.947,1.335,1.239c0.301,0.225,0.72-1.024,0.953-1.335c0.259-0.345,0.079-1.228,0-1.621
			c-0.222-1.111-0.131-0.907,0.095,0c0.13,0.52,0.29,1.162,0.381,1.621c0.035,0.174,1.57,1.093,1.716,1.239
			c0.599,0.598,0.954,0.38,1.335-0.381c0.148-0.296,0.799-1.903,0.381-0.858c-0.243,0.608-0.191,1.259-0.191,1.907
			c0,0.437,0.753,1.282,0.859,1.811c0.127,0.635,0.133,1.125,0.381,1.621c0.336,0.674,0.837-0.246,1.049-0.667
			c0.181-0.363,0.209-1.313,0.286-1.621c0.034-0.138,0.127-0.255,0.191-0.381c0.034-0.069,0.221,1.076,0.477,2.097
			c0.149,0.599,0.095,1.182,0.095,1.811c0,0.432,0.188,0.853,0.381,1.239c0.241,0.484,0.38-1.048,0.763-1.43
			c0.851-0.851,0.763,0.058,0.763,0.763c0,0.671,0.815,1.532,1.239,2.097c0.268,0.358,0.479,0.798,0.667,1.049
			c0.362,0.482,0.493,0.389,0.763-0.286c0.19-0.474,0.44-1.07,0.667-1.525c0.284-0.568-0.059,1.29,0.095,1.907
			c0.145,0.581,0.553,0.934,0.953,1.335c0.374,0.374,0.923,0.565,1.335,0.667c0.635,0.159,0.477-1.196,0.477-1.525
			c0-0.428,0.027,0.599,0.286,0.858c0.413,0.414,0.656,0.656,1.049,1.049l1.158-1.584c0.824,6.159,12.097,10.454,12.352,17.068
			c0.226,5.865,1.012,10.555,3.435,13.286c6.182,6.97,17.737,4.165,18.642,11.133c0.272,2.092,2.724,2.503,2.724,6.729
			c0,1.378-0.395,2.724-1.996,2.724c-1.318,0-2.78-1.058-4.098-1.058c-8.533,0-6.875,11.105-6.875,11.105
			c12.293,3.108,23.27,0.037,23.27-13.354c0-8.834,2.908-7.892,2.908-11.105C427.701,543.226,418.268,544.285,416.081,523.495z"/>
		<path id="path7438" fill="#FFDE08" stroke="#000000" stroke-linecap="round" stroke-linejoin="round" d="M479.219,494.188
			c-14.455-0.326-25.805,20.034-23.5,43.469l0.031,0.094c0.142-0.028,0.287-0.059,0.438-0.062c2.586-0.052,6.418,3.537,7.812,8.312
			c0.011-0.064,0.025-0.119,0.031-0.188c-5.372-18.512,11.747-42.375,19.125-42.375c0.103,0,0.185,0.025,0.281,0.032
			c0.017-0.054,0.044-0.103,0.063-0.156c-5.352-0.413-6.031-6.838-2.875-9.032C480.152,494.227,479.686,494.198,479.219,494.188z"/>
		<path id="path7239" fill="#FFDE08" stroke="#000000" stroke-linecap="round" stroke-linejoin="round" d="M421.938,380.125
			l-0.219,0.125c-1.045,5.965,5.327,9.275,5.281,14.406c-7.599-3.115-12.493-0.164-19.063,1.031c1.994,2.854,4.955,2.856,8.25,3.75
			c-3.224,1.707-6.75,2.529-10.312,3.219c1.371,2.506,3.539,4.365,6.969,5.157c-1.684,0.902-1.666,1.786-2.063,2.687
			c1.731-0.206,3.477-0.249,4.875-1.781c-0.326,3.17,1.855,4.228,3.469,5.781c0.327-2.473,0.676-4.956,2.344-7.094
			c0.916,1.358,2.872,2.579,4.125,2.594c-7.473,3.414-3.617,8.944-2.47,11.718c1.548-3.387,8.347-6.773,9.157-11.344
			c0.067,3.144,0.122,6.309,1.531,8.781c10.384-9.612,20.703-19.708,35.437-3.219l0.094,0.188l0.125-0.219
			C457.226,400.237,440.858,387.806,421.938,380.125z"/>
		<path id="path3693" fill="#FFDE08" stroke="#000000" stroke-linecap="round" stroke-linejoin="round" d="M293.719,433.375
			c-15.15,6.089-18.737,33.923-14.968,58.188c-4.41-3.378-8.865-6.573-13.75-7.813l-0.188-0.062h-2.563c0,0.031,0,0.062,0,0.094
			c0,25.109,8.489,48.324,22.813,67.031c-4.094-11.901-1.88-26.7,5.625-28.781l0.062-0.125c-9.154-29.45-7.931-56.876,4.813-82.031
			C294.455,438.516,293.719,436.418,293.719,433.375z"/>
		<path id="path7426" fill="#FFDE08" stroke="#000000" stroke-linecap="round" stroke-linejoin="round" d="M370.907,371.719
			c-57.982,3.246-104.559,48.214-108.405,104.52l0.186,0.043c5.044,1.033,8.704,3.79,12.031,6.969
			c-3.546-24.132,1.349-51.46,16-56.469l0.094-0.125c-0.556-6.617,2.068-11.189,7.812-14.656c0.395,1.969,0.358,3.094,0.125,5.063
			c9.838-12.854,23.276-16.622,39.094-15l0.438,0.062c-0.008-0.032-0.024-0.062-0.031-0.094c-0.049-0.217-0.085-0.441-0.125-0.656
			c-0.051-0.274-0.087-0.544-0.125-0.813c-0.026-0.18-0.042-0.355-0.063-0.531c-0.031-0.286-0.076-0.568-0.094-0.844
			c-0.004-0.054,0.004-0.103,0-0.156c-0.018-0.324-0.031-0.632-0.031-0.938c0-0.354,0.007-0.707,0.031-1.063
			c0.002-0.031-0.003-0.063,0-0.094c0.078-1.036,0.281-2.09,0.563-3.125c0.033-0.124,0.057-0.251,0.094-0.375
			c0.056-0.188,0.125-0.375,0.187-0.562c0.022-0.063,0.04-0.124,0.063-0.187c0.112-0.325,0.244-0.646,0.375-0.969
			c0.429-1.058,0.961-2.095,1.594-3.125c4.854-7.903,15.548-14.742,30.188-16.688V371.719z"/>
		<path id="path7086" fill="#FFDE08" stroke="#000000" stroke-linecap="round" stroke-linejoin="round" d="M295.719,425.969
			c-18.5,0-24.92,30.596-21,57.281c-3.327-3.179-6.987-5.936-12.031-6.969c-0.112-0.112-0.101,6.962-0.031,7.031
			c5.826,0.668,10.988,4.339,16.094,8.25c-3.769-24.265-0.182-52.099,14.968-58.188c0,10.952,9.505,9.672,11.75,5.781
			C307.848,435.035,307.644,425.969,295.719,425.969z"/>
		<path id="path3695" fill="#FFFF18" stroke="#000000" stroke-linecap="round" stroke-linejoin="round" d="M304.437,534.688
			c-9.089,0-11.972,16.627-7.312,29.531c0.103,0.096,0.21,0.184,0.313,0.281c-0.008-1.318-0.009-10.29,1.344-17.062
			c0.726-3.634,3.012-6.299,5.875-7.249c0,1.942,3.605,1.032,3.749-2.063C308.487,536.391,306.796,534.688,304.437,534.688z"/>
		<path id="path3233" fill="#FFDE08" stroke="#000000" stroke-linecap="round" stroke-linejoin="round" d="M389.212,577.894
			c18.756,12.771,51.694-1.549,57.33-23.784c-6.42,2.035-9.917-1.89-9.917-5.769c0-4.501,4.575-7.06,7.703-7.06
			c2.319,0,6.739,1.503,6.739,7.542c0,19.801-16.51,38.672-47.819,38.672c-6.528,0-39.955-4.285-39.955-22.786
			c0-11.46,13.746-0.624,17.491-9.628c0,6.837-4.334,6.766-5.087,9.578c-0.408,1.524-1.008,7.891,1.443,7.891
			c2.092-4.443,5.074-6.283,9.604-6.283c3.98,0,7.706,2.603,7.706,6.283C394.45,575.015,391.684,577.377,389.212,577.894z"/>
		<path id="path7190" fill="#FFFF18" stroke="#000000" stroke-linecap="round" stroke-linejoin="round" d="M301.875,413.406
			c-1.078,1.126-2.121,2.344-3.125,3.656c-2.532,2.264-3.7,5.34-4.532,8.625l-0.125,0.375c0.529-0.058,1.069-0.094,1.625-0.094
			c1.345,0,2.534,0.133,3.594,0.344c0.131-3.188,0.844-6.141,2.344-8.781C301.798,416.346,302.346,414.594,301.875,413.406z
			 M298.907,414.313c0.009,0.261,0.007,0.548,0,0.812C298.916,414.856,298.916,414.578,298.907,414.313z"/>
		<path id="path7155" fill="#FFDE08" stroke="#000000" stroke-linecap="round" stroke-linejoin="round" d="M347.818,395.516
			c8.298-5.095,13.872,1.881,13.872,7.707c0,4.308-2.631,9.762-10.533,9.762c-10.225,0-13.357-9.225-13.357-14.899
			c0-12.334,15.051-25.568,38.532-26.654C357.96,372.454,350.49,382.206,347.818,395.516z"/>
		<path id="path7342" fill="#FFDE08" stroke="#FFDE08" stroke-linecap="round" stroke-linejoin="round" d="M462.554,558.442
			c0-0.115,0.331-0.858,0.736-1.651c0.973-1.907,1.547-4.144,1.612-6.285c0.081-2.64,1.104-9.826,1.985-13.937
			c2.291-10.697,6.005-18.745,11.678-25.311c1.716-1.986,2.003-2.171,2.864-1.843c1.59,0.604,3.136,0.415,4.144-0.509
			c1.198-1.096,1.504-2.478,0.879-3.972c-0.473-1.131-0.449-1.176,0.988-1.82c2.113-0.945,3.039-2.671,3.041-5.669
			c0.001-1.421-0.244-2.916-0.584-3.574c-0.501-0.969-0.525-1.933-0.169-6.73c1.002-13.496-1.757-30.66-7.211-44.852
			c-3.104-8.08-7.959-17.27-12.356-23.394c-1.197-1.666-2.176-3.127-2.176-3.247c0-0.576,1.487,1.156,3.877,4.515
			c9.17,12.889,15.447,27.449,18.402,42.683c1.511,7.788,1.947,12.481,1.947,20.946c0,4.373-0.227,9.784-0.503,12.024
			c-2.766,22.384-11.21,41.827-25.648,59.056C463.086,558.418,462.554,558.96,462.554,558.442L462.554,558.442z"/>
		<path id="path3227" fill="#FFDE08" stroke="#000000" stroke-linecap="round" stroke-linejoin="round" d="M447.31,547.868
			c0,2.149-1.743,3.891-3.891,3.891c-2.149,0-3.891-1.742-3.891-3.891c0-2.148,1.742-3.89,3.891-3.89
			C445.567,543.978,447.31,545.72,447.31,547.868z"/>
		<path id="path3231" fill="none" stroke="#000000" stroke-linecap="round" stroke-linejoin="round" d="M389.212,577.894
			c-4.782-2.48-4.05-6.573-2.326-6.573c2.214,0,0.947,1.91,2.746,1.91c2.352,0,3.311-4.568-2.2-4.568
			c-4.77,0-4.823,3.644-4.823,6.858 M447.324,547.854c0,2.193-0.274,4.328-0.789,6.392"/>
		<path id="path3257" fill="none" stroke="#000000" stroke-linecap="round" stroke-linejoin="round" d="M380.784,555.081
			c-0.808,11.197-13.682,3.632-11.223,14.745c2.083,0.072,3.202,0.426,7.217,2.723"/>
		<path id="path3279" fill="none" stroke="#000000" stroke-linecap="round" stroke-linejoin="round" d="M371.259,563.702
			c1.818-0.095,3.267,0.178,4.36,0.808"/>
		<path id="path3281" fill="none" stroke="#000000" stroke-linecap="round" stroke-linejoin="round" d="M370.129,565.156
			c1.897-0.382,3.466,0.325,5.006,1.13"/>
		<path id="path3283" fill="none" stroke="#000000" stroke-linecap="round" stroke-linejoin="round" d="M369.321,566.932
			c2.217-0.529,4.077,0.096,5.813,1.13"/>
		<path id="path3285" fill="none" stroke="#000000" stroke-linecap="round" stroke-linejoin="round" d="M369.483,568.386
			c2.179-0.402,3.985,0.567,5.813,1.453"/>
		<path id="path3296" fill="none" stroke="#00FFFF" stroke-linecap="round" stroke-linejoin="round" d="M367.568,587.374
			c-5.135-0.951-10.44-2.975-16.411-9.217"/>
		<path id="path3287" fill="none" stroke="#00FFFF" stroke-linecap="round" stroke-linejoin="round" d="M350.531,565.593
			c5.176,4.899,12.258,5.737,16.616,8.931"/>
		<path id="path3289" fill="#FFFF18" stroke="#000000" stroke-linecap="round" stroke-linejoin="round" d="M453.67,541.693
			c8.544,5.569,6.848,15.238,1.294,22.671c-5.554,7.433-14.965,12.63-21.852,16.732l-7.072,3.205
			c7.604-3.7,15.067-9.677,19.501-16.554c6.09-9.445,6.747-21.444,3.895-23.978L453.67,541.693z"/>
		<path id="path3337" fill="#FFDE08" stroke="#000000" stroke-linecap="round" stroke-linejoin="round" d="M304.657,540.188
			c-2.863,0.951-5.149,3.615-5.875,7.249c-1.353,6.773-1.351,15.744-1.344,17.062c11.654,10.973,25.681,19.563,41.249,25.001
			c5.499-8.659,9.293,0.259,15.687-0.063c1.187-4.854-3.391-2.193-6.094-10.406c-13.961-3.451-38.324-20.75-40.906-38.563
			C306.261,541.515,304.657,541.484,304.657,540.188z"/>
		<path id="path3320" fill="none" stroke="#000000" stroke-linecap="round" stroke-linejoin="round" d="M304.646,540.189
			c-0.275-1.164-0.025-1.922,0.439-1.922"/>
		<path id="path3298" fill="#FFFF18" stroke="#000000" stroke-linecap="round" stroke-linejoin="round" d="M292.75,527.281
			c-1.597-0.062-5.524,5.772-6.25,9.407c-1.267,6.349-1.075,12.979-1,14.687c3.545,4.569,7.45,8.855,11.657,12.844
			c-3.742-10.35-2.65-23.077,2.625-27.719c-2.005-2.737-4.183-5.411-4.438-8.844C294.237,528.594,292.75,528.533,292.75,527.281z"/>
		<path id="path3709" fill="none" stroke="#000000" stroke-linecap="round" stroke-linejoin="round" d="M301.894,542.119
			c9.236,21.427,27.26,35.136,50.784,43.26"/>
		<path id="path3711" fill="none" stroke="#000000" stroke-linecap="round" stroke-linejoin="round" d="M299.49,546.186
			c2.946,7.149,8.029,14.296,14.42,21.445"/>
		<path id="path3713" fill="none" stroke="#000000" stroke-linecap="round" stroke-linejoin="round" d="M298.196,551.178
			c2.771,5.3,6.476,10.599,10.723,15.899"/>
		<path id="path3715" fill="none" stroke="#000000" stroke-linecap="round" stroke-linejoin="round" d="M297.642,557.648
			c1.984,3.025,4.07,6.103,7.024,9.614"/>
		<path id="path3736" fill="none" stroke="#000000" stroke-linecap="round" stroke-linejoin="round" d="M330.907,582.657
			c1.426,0.703,2.84,1.397,4.312,2.031"/>
		<path id="path3732" fill="none" stroke="#000000" stroke-linecap="round" stroke-linejoin="round" d="M320.344,576.375
			c2.132,1.503,4.343,2.908,6.624,4.187"/>
		<path id="path3717" fill="none" stroke="#000000" stroke-linecap="round" stroke-linejoin="round" d="M312.501,570.063
			c1.487,1.418,3.033,2.737,4.624,4"/>
		<path id="path7066" fill="#FFFF18" stroke="#000000" stroke-linecap="round" stroke-linejoin="round" d="M275.866,498.31
			c4.681,4.553,3.537,29.352,7.473,34.532c-0.474-6.979-0.87-18.34-1.8-26.463c-0.84-7.324-4.46-12.083,0.568-13.352
			c-3.646-1.976-3.79-0.035-4.566,3.221c-2.495-3.255-6.629-1.942-7.587-0.896C266.427,499.207,273.281,505.038,275.866,498.31z"/>
		<path id="path7091" fill="#FFFF18" stroke="#000000" stroke-linecap="round" stroke-linejoin="round" d="M285.524,552.096
			c-5.072-13.004-2.271-30.316,7.005-30.316c2.359,0,4.055,1.707,3.974,3.44c-0.145,3.096-3.758,3.997-3.758,2.056
			c-1.597-0.062-5.534,5.781-6.26,9.415C285.027,543.994,285.524,552.096,285.524,552.096z"/>
		<path id="path7072" fill="none" stroke="#000000" stroke-linecap="round" stroke-linejoin="round" d="M278.755,491.553
			c-3.73-3.911-10.127-9.646-15.952-10.314"/>
		<path id="path7074" fill="none" stroke="#000000" stroke-linecap="round" stroke-linejoin="round" d="M288.006,533.093
			c1.802,1.872,3.099,3.408,4.203,4.816"/>
		<path id="path7076" fill="none" stroke="#000000" stroke-linecap="round" stroke-linejoin="round" d="M286.606,537.121
			c1.952,0.953,3.4,2.663,4.903,4.291"/>
		<path id="path7078" fill="none" stroke="#000000" stroke-linecap="round" stroke-linejoin="round" d="M285.993,541.061
			l4.203,4.378"/>
		<path id="path7080" fill="none" stroke="#000000" stroke-linecap="round" stroke-linejoin="round" d="M285.73,546.14
			c1.346,1.223,2.65,2.487,3.765,3.941"/>
		<path id="path7082" fill="none" stroke="#000000" stroke-linecap="round" stroke-linejoin="round" d="M285.642,549.643
			l4.028,3.765"/>
		<path id="path7099" fill="none" stroke="#000000" stroke-linecap="round" stroke-linejoin="round" d="M293.963,437.323
			c-17.069,28.601-12.649,57.202-5.835,85.803"/>
		<path id="path7101" fill="#FFFF18" stroke="#000000" stroke-linecap="round" stroke-linejoin="round" d="M464.482,547.253
			c1.845-14.605,5.149-28.557,16.124-39.078c0,0,0.848,1.093,2.733,1.093c1.967,0,2.915-1.508,2.915-2.747
			c0-1.239-0.623-3.083-3.097-3.083C475.587,503.437,457.753,528.566,464.482,547.253z"/>
		<path id="path7103" fill="#FFFF18" stroke="#000000" stroke-linecap="round" stroke-linejoin="round" d="M480.407,490.313
			c-11.818,0-20.044,8.49-24.407,19.406c-4.147,10.375-4.733,22.922-4.437,32.843l0.063,0.125l2.031-1
			c0-2.491,0.864-3.692,2.094-3.937l-0.031-0.094c-2.38-24.191,9.79-45.108,24.906-43.375c-3.261,2.266-2.447,9.062,3.406,9.062
			c5.854,0,5.969-4.429,5.969-5.844C490,495.755,490.358,490.313,480.407,490.313z"/>
		<path id="path7111" fill="none" stroke="#000000" stroke-linecap="round" stroke-linejoin="round" d="M268.911,497.768
			c-1.999,17.601,6.264,34.807,14.995,51.538"/>
		<path id="path7113" fill="none" stroke="#000000" stroke-linecap="round" stroke-linejoin="round" d="M268.578,502.766
			c3.11,3.365,6.22,1.872,9.33,0"/>
		<path id="path7115" fill="none" stroke="#000000" stroke-linecap="round" stroke-linejoin="round" d="M268.8,506.765
			c3.295,3,7.368,1.074,9.775-0.111"/>
		<path id="path7117" fill="none" stroke="#000000" stroke-linecap="round" stroke-linejoin="round" d="M270.045,468.473
			l-0.483,6.924"/>
		<path id="path7119" fill="none" stroke="#000000" stroke-linecap="round" stroke-linejoin="round" d="M269.642,488.36v4.911"/>
		<path id="path7121" fill="none" stroke="#000000" stroke-linecap="round" stroke-linejoin="round" d="M279.626,477.008
			l0.725-7.891"/>
		<path id="path7123" fill="none" stroke="#000000" stroke-linecap="round" stroke-linejoin="round" d="M281.317,463.159
			c0.259-2.568,0.681-4.811,1.369-6.522"/>
		<path id="path7125" fill="none" stroke="#000000" stroke-linecap="round" stroke-linejoin="round" d="M284.621,450.386l3.174-8.11
			"/>
		<path id="path7127" fill="none" stroke="#000000" stroke-linecap="round" stroke-linejoin="round" d="M300.548,430.522
			c3.814,0.581,4.025,8.149-0.941,7.816"/>
		<path id="path7129" fill="none" stroke="#000000" stroke-linecap="round" stroke-linejoin="round" d="M269.229,510.757
			c3.559,2.427,6.826,1.787,9.944-0.415"/>
		<path id="path7131" fill="none" stroke="#000000" stroke-linecap="round" stroke-linejoin="round" d="M270.14,515.314
			c3.246,1.175,6.421,1.19,9.447-1.16"/>
		<path id="path7133" fill="none" stroke="#000000" stroke-linecap="round" stroke-linejoin="round" d="M271.549,520.286
			c3.09,0.141,6.145,0.2,8.369-1.824"/>
		<path id="path7135" fill="none" stroke="#000000" stroke-linecap="round" stroke-linejoin="round" d="M272.709,524.098
			c3.116,0.693,5.637,0.047,7.872-1.243"/>
		<path id="path7137" fill="none" stroke="#000000" stroke-linecap="round" stroke-linejoin="round" d="M274.201,528.242
			c2.522,0.688,4.712-0.122,6.795-1.409"/>
		<path id="path7139" fill="none" stroke="#000000" stroke-linecap="round" stroke-linejoin="round" d="M275.775,531.97
			c2.723,0.806,4.675,0.069,6.298-1.326"/>
		<path id="path7141" fill="none" stroke="#000000" stroke-linecap="round" stroke-linejoin="round" d="M277.157,535.469
			c2.312,1.037,4.27,0.371,5.995-1.41"/>
		<path id="path7143" fill="none" stroke="#000000" stroke-linecap="round" stroke-linejoin="round" d="M278.656,538.511
			c1.573,0.768,2.934,0.266,4.276-0.353"/>
		<path id="path7145" fill="none" stroke="#000000" stroke-linecap="round" stroke-linejoin="round" d="M280.11,541.376
			c1.022,0.37,2.005,0.377,2.909-0.308"/>
		<path id="path7147" fill="none" stroke="#000000" stroke-linecap="round" stroke-linejoin="round" d="M281.08,543.228
			c0.676,0.216,1.351,0.346,2.027-0.133"/>
		<path id="path7149" fill="none" stroke="#000000" stroke-linecap="round" stroke-linejoin="round" d="M282.006,545.299
			c0.558,0.261,1.059,0.238,1.498-0.088"/>
		<path id="path7526" fill="none" stroke="#000000" stroke-linecap="round" stroke-linejoin="round" d="M373.089,456.377
			c2.078-0.312,4.248-0.615,7.384-0.081"/>
		<path id="path7472" fill="#FFDE08" stroke="#000000" stroke-linecap="round" stroke-linejoin="round" d="M382.108,450.942
			c-2.37,2.874-3.985,6.315-4.507,10.575c4.233-1.036,6.804-2.547,7.801-4.507"/>
		<path id="path7153" fill="#FFFF18" stroke="#000000" stroke-linecap="round" stroke-linejoin="round" d="M298.625,412
			c-5.745,3.467-8.368,8.039-7.812,14.656l-0.094,0.125c1.072-0.365,2.201-0.599,3.375-0.719l0.125-0.375
			c0.832-3.285,1.999-6.361,4.532-8.625C298.983,415.094,299.02,413.969,298.625,412z"/>
		<path id="path7172" fill="none" stroke="#000000" stroke-linecap="round" stroke-linejoin="round" d="M343.607,403.219
			c3.374,8.12,10.468,6.725,12.689,4.163c2.197-2.532,2.719-10.869-6.526-9.001"/>
		<path id="path7180" fill="none" stroke="#000000" stroke-linecap="round" stroke-linejoin="round" d="M284.192,428.426
			l3.998-4.998"/>
		<path id="path7182" fill="none" stroke="#000000" stroke-linecap="round" stroke-linejoin="round" d="M301.471,409.289
			l5.427-4.712"/>
		<path id="path7213" fill="#FFDE08" stroke="#000000" stroke-linecap="round" stroke-linejoin="round" d="M338.282,402.125
			l-0.438-0.062c-14.204-1.456-26.486,1.433-35.969,11.344c0.471,1.188-0.065,2.952-0.206,4.137
			c7.849-10.08,22.225-12.669,37.612-12.387C338.916,404.157,338.572,403.149,338.282,402.125z"/>
		<path id="path7227" fill="#FDFF18" stroke="#000000" stroke-linecap="round" stroke-linejoin="round" d="M310.551,401.741
			c6.821-5.955,15.661-10.698,25.234-15.002c-3.676,4.194-8.127,8.388-8.296,12.583C321.184,398.812,315.564,399.67,310.551,401.741
			z"/>
		<path id="path7237" fill="none" stroke="#000000" stroke-linecap="round" stroke-linejoin="round" d="M421.459,407.422
			l-2.852-2.131c16.399-12.892,36.82-2.737,45.255,4.014"/>
		<path id="path7235" fill="none" stroke="#000000" stroke-linecap="round" stroke-linejoin="round" d="M425.581,409.998
			c5.729-0.13,12.133-7.125,17.965-3.856"/>
		<path id="path7229" fill="none" stroke="#000000" stroke-linecap="round" stroke-linejoin="round" d="M426.998,394.67
			c4.295,1.562,11.381,0.036,18.738,2.713"/>
		<path id="path7295" fill="#FFDE08" stroke="#000000" stroke-linecap="round" stroke-linejoin="round" d="M377.594,371.5
			c-0.944,0-1.874,0.034-2.812,0.062c-0.041,0.003-0.085-0.004-0.125,0c-17.143,1.515-24.255,11.074-26.844,23.969
			c4.495-2.76,8.182-1.973,10.625,0.25c20.162-15.577,43.802-5.275,54.875-1.375c4.244-1.108,8.283-1.965,13.687,0.25
			c0.047-5.131-6.326-8.441-5.281-14.406l0.219-0.125C408.284,374.578,393.305,371.5,377.594,371.5z"/>
		<path id="path7297" fill="none" stroke="#000000" stroke-linecap="round" stroke-linejoin="round" d="M354.513,393.598
			c21.737-16.151,47.43-7.723,63.244-0.276"/>
		<path id="path7299" fill="none" stroke="#000000" stroke-linecap="round" stroke-linejoin="round" d="M349.543,389.548
			c6.694-3.971,13.807-6.854,21.725-7.641"/>
		<path id="path7301" fill="none" stroke="#000000" stroke-linecap="round" stroke-linejoin="round" d="M351.66,384.853
			c7.021-3.438,14.401-5.08,21.91-6.076"/>
		<path id="path7303" fill="none" stroke="#000000" stroke-linecap="round" stroke-linejoin="round" d="M356.079,379.053
			c3.563-1.336,7.238-2.224,11.046-2.578"/>
		<path id="path7321" fill="none" stroke="#000000" stroke-linecap="round" stroke-linejoin="round" d="M416.938,385.222
			c0.815,0.404,1.625,0.821,2.43,1.25"/>
		<path id="path7317" fill="none" stroke="#000000" stroke-linecap="round" stroke-linejoin="round" d="M406.58,380.955
			c2.374,0.776,4.698,1.676,6.977,2.683"/>
		<path id="path7313" fill="none" stroke="#000000" stroke-linecap="round" stroke-linejoin="round" d="M393.897,378.147
			c2.251,0.262,4.452,0.643,6.61,1.13"/>
		<path id="path7305" fill="none" stroke="#000000" stroke-linecap="round" stroke-linejoin="round" d="M380.492,378.017
			c2.335-0.22,4.617-0.312,6.851-0.287"/>
		<path id="path7323" fill="#FFDE08" stroke="#000000" stroke-linecap="round" stroke-linejoin="round" d="M454.094,407.156
			c-0.308-0.005-0.602,0.015-0.906,0.031c-4.359,0.236-8.368,2.593-12.25,5.687c18.898,19.81,29.125,52.777,26.563,81.468
			c3.665-2.523,7.967-4.031,12.907-4.031c4.701,0,7.087,1.221,8.312,2.687c4.134-32.219-10.259-67.773-27.844-84
			C458.514,407.761,456.253,407.188,454.094,407.156z"/>
		<path id="path7345" fill="#FFDE08" stroke="#000000" stroke-linecap="round" stroke-linejoin="round" d="M459.719,408.438
			c10.613,19.944,24.735,53.602,19.812,81.905c0.294-0.011,0.577-0.031,0.876-0.031c0.775,0,1.469,0.063,2.124,0.125
			c2.499-23.02-1.146-49.14-22.75-81.969C459.76,408.459,459.74,408.447,459.719,408.438z"/>
		<path id="path7366" fill="none" stroke="#000000" stroke-linecap="round" stroke-linejoin="round" d="M470.808,492.317
			c1.199-28.437-5.283-58.018-26.971-81.455"/>
		<path id="path7386" fill="none" stroke="#000000" stroke-linecap="round" stroke-linejoin="round" d="M475.278,482.901
			c0.053,1.907,0.071,3.84,0.055,5.796"/>
		<path id="path7382" fill="none" stroke="#000000" stroke-linecap="round" stroke-linejoin="round" d="M473.322,462.635
			c0.647,3.803,1.146,7.722,1.485,11.76"/>
		<path id="path7378" fill="none" stroke="#000000" stroke-linecap="round" stroke-linejoin="round" d="M468.911,444.68
			c0.997,3.053,1.889,6.197,2.666,9.432"/>
		<path id="path7374" fill="none" stroke="#000000" stroke-linecap="round" stroke-linejoin="round" d="M459.579,423.536
			c2.013,3.532,3.86,7.223,5.525,11.078"/>
		<path id="path7368" fill="none" stroke="#000000" stroke-linecap="round" stroke-linejoin="round" d="M451.439,411.224
			c1.15,1.512,2.267,3.06,3.35,4.644"/>
		<path id="path7388" fill="none" stroke="#000000" stroke-linecap="round" stroke-linejoin="round" d="M482.581,496.176
			c-2.321,2.738,0.908,5.327,3.166,4.574c2.057-0.685,3.248-4.497-0.143-6.561"/>
		<path id="path7390" fill="none" stroke="#000000" stroke-linecap="round" stroke-linejoin="round" d="M479.102,510.087
			c1.325,1.516,3.478,1.995,5.675,2.42"/>
		<path id="path7392" fill="none" stroke="#000000" stroke-linecap="round" stroke-linejoin="round" d="M476.682,512.34
			c1.299,1.987,3.315,2.065,5.257,2.336"/>
		<path id="path7394" fill="none" stroke="#000000" stroke-linecap="round" stroke-linejoin="round" d="M474.596,515.761
			c3.229,2.174,4.972,1.673,7.177,2.004"/>
		<path id="path7396" fill="none" stroke="#000000" stroke-linecap="round" stroke-linejoin="round" d="M473.01,518.015
			c1.709,1.577,3.775,2.083,5.926,2.336"/>
		<path id="path7398" fill="none" stroke="#000000" stroke-linecap="round" stroke-linejoin="round" d="M471.508,520.769
			c1.257,1.871,3.138,2.746,5.507,2.837"/>
		<path id="path7400" fill="none" stroke="#000000" stroke-linecap="round" stroke-linejoin="round" d="M469.839,524.691
			c1.756,1.984,3.896,2.443,6.092,2.67"/>
		<path id="path7402" fill="none" stroke="#000000" stroke-linecap="round" stroke-linejoin="round" d="M468.754,528.03
			c1.586,1.505,3.172,1.81,4.757,2.002"/>
		<path id="path7404" fill="none" stroke="#000000" stroke-linecap="round" stroke-linejoin="round" d="M467.586,531.534
			c1.899,1.722,3.972,2.046,6.092,2.003"/>
		<path id="path7406" fill="none" stroke="#000000" stroke-linecap="round" stroke-linejoin="round" d="M466.667,534.956
			c2.17,2.291,4.34,1.794,6.51,2.003"/>
		<path id="path7408" fill="none" stroke="#000000" stroke-linecap="round" stroke-linejoin="round" d="M466.084,538.043
			c1.863,1.893,3.728,1.799,5.591,1.502"/>
		<path id="path7410" fill="none" stroke="#000000" stroke-linecap="round" stroke-linejoin="round" d="M465.415,541.048
			c0.918,0.937,3.505,1.871,5.258,1.585"/>
		<path id="path7412" fill="none" stroke="#000000" stroke-linecap="round" stroke-linejoin="round" d="M464.997,544.51
			c1.491,1.253,3.559,1.003,5.676,1.21"/>
		<path id="path7178" fill="none" stroke="#000000" stroke-linecap="round" stroke-linejoin="round" d="M370.937,372.031
			L370.937,372.031z"/>
		<path id="path3328" fill="none" stroke="#000000" stroke-linecap="round" stroke-linejoin="round" d="M292.745,527.275
			c-0.275-1.165-0.025-1.922,0.44-1.922"/>
		<path id="path7362" fill="none" stroke="#000000" stroke-linecap="round" stroke-linejoin="round" d="M460.534,524.736
			c0.504-2.149,1.151-4.214,1.943-6.194"/>
		<path id="path7358" fill="none" stroke="#000000" stroke-linecap="round" stroke-linejoin="round" d="M465.549,512.427
			c1.152-1.874,2.461-3.656,3.928-5.345"/>
		<path id="path7354" fill="none" stroke="#000000" stroke-linecap="round" stroke-linejoin="round" d="M472.752,503.702
			c1.212-1.123,2.506-2.199,3.881-3.226"/>
		<path id="path7350" fill="none" stroke="#000000" stroke-linecap="round" stroke-linejoin="round" d="M459.24,535.264
			c0.032-1.357,0.111-2.686,0.235-3.989"/>
		<path id="path7450" fill="none" stroke="#000000" stroke-linecap="round" stroke-linejoin="round" d="M374.24,429.974
			c1.075,0.018,3.152,0.183,4.645,0.183c0.425,0,1.612,0.223,0.795,0.55c-0.988,0.395-1.813,0.693-2.628,1.345
			c-0.52,0.415-1.514,0.37-0.55,0.611c0.842,0.21,1.655,0.066,2.261,0.672c0.034,0.034-1.225,0.735-2.077,1.161
			c-1.882,0.941-1.321,0.733,0.306,0.733c0.951,0,2.551,0.936,0.916,1.344c-1.077,0.269-1.955,0.152-2.323,0.612
			c-0.326,0.408,2.236-0.393,2.934,0.305c0.327,0.328-2.473,1.289-2.629,1.406c-0.474,0.356,2.341,0.383,2.872,0.489
			c0.33,0.066,0.639,0.228,0.917,0.367"/>
		<path id="path7470" fill="#FFDE08" stroke="#000000" stroke-linecap="round" stroke-linejoin="round" d="M392.857,446.087
			c-3.381,0.591-5.675,8.236-9.709,9.362c0.318-3.121,0.151-6.242,3.121-9.362"/>
		<path id="path7462" fill="#FFDE08" stroke="#000000" stroke-linecap="round" stroke-linejoin="round" d="M389.684,440.163
			c-5.382,2.246-9.823,5.086-11.171,9.873c5.332-3.043,13.001-3.32,13.258-9.535"/>
		<path id="path7452" fill="#FFDE08" stroke="#000000" stroke-linecap="round" stroke-linejoin="round" d="M387.136,432.358
			l-2.323-4.034c-0.086,3.828-0.79,7.744-2.017,11.735c2.419-0.889,3.491-2.956,4.645-4.951c-1.009,3.478,0.75,4.691,3.3,5.256
			c4.916-4.298,9.345-8.789,9.046-14.363c-0.369-6.895-8.681,1.869-11.307,5.317"/>
		<path id="path7454" fill="#FFDE08" d="M400.45,431.094l-0.945,5.276l4.253,6.143l-2.126,1.733
			c0.065,3.483,2.029,6.255,3.701,9.135C407.916,444.147,406.682,436.55,400.45,431.094z"/>
		<path id="path7456" fill="none" stroke="#000000" stroke-linecap="round" stroke-linejoin="round" d="M401.631,444.246
			c0.065,3.483,2.029,6.255,3.701,9.135c2.584-9.234,1.35-16.831-4.882-22.287 M399.505,436.371l4.253,6.143"/>
		<path id="path7458" fill="#FFDE08" stroke="#000000" stroke-linecap="round" stroke-linejoin="round" d="M321.582,481.165
			c-1.543,1.085-3.836,0.92-5.924,1.097c3.705,1.663,7.411,1.158,11.116,0.951c-0.93,1.015-2.623,1.457-4.315,1.902
			c4.486,1.098,8.276-0.239,11.995-1.828c-0.009,0.755-0.799,1.512-1.975,2.267c3.59,0.205,6.793-0.623,9.8-1.975
			c-0.103,1.292-1.391,2.585-2.632,3.876c3.914-0.795,6.708-2.428,9.069-4.388c0.101,1.194-0.177,2.389-1.244,3.584
			c2.823-0.137,5.489-1.978,8.119-4.242l-0.147,3.291c2.651-0.518,5.063-1.275,6.363-3.144"/>
		<path id="path7460" fill="#FFDE08" stroke="#000000" stroke-linecap="round" stroke-linejoin="round" d="M394.593,439.937
			c-0.621,4.442,1.219,6.612,2.426,9.366c0.612-3.906,1.049-7.911,0.621-12.412"/>
		<path id="path7484" fill="#FFDE08" stroke="#000000" stroke-linecap="round" stroke-linejoin="round" d="M378.135,479.366
			c-1.704,2.885-1.696,5.627-1.434,8.347c2.39-3.501,6.361-2.95,8.472-7.973"/>
		<path id="path7482" fill="#FFDE08" stroke="#000000" stroke-linecap="round" stroke-linejoin="round" d="M383.829,470.608
			c-4.581,3.092-12.375,5.72-11.588,13.409c3.389-2.131,6.509-4.398,11.004-5.976"/>
		<path id="path7466" fill="#FFDE08" stroke="#000000" stroke-linecap="round" stroke-linejoin="round" d="M394.339,449.697
			c-9.209,5.292-4.99,10.111-7.406,15.245c-1.942,4.124-5.226,8.432-4.443,13.782c4.288-0.512,7.815-4.669,8.21-9.944
			c0.328-4.388,4.104-9.467,3.639-11.579"/>
		<path id="path7524" fill="none" stroke="#000000" stroke-linecap="round" stroke-linejoin="round" d="M346.797,473.541
			c4.554-0.359,9.25-4.137,12.858-4.174"/>
		<path id="path7478" fill="#FFDE08" stroke="#000000" stroke-linecap="round" stroke-linejoin="round" d="M366.355,465.119
			c-9.505,1.13-5.943,7.748-11.613,13.141c4.964-0.851,9.079-3.683,13.079-6.784"/>
		<path id="path7480" fill="#FFDE08" stroke="#000000" stroke-linecap="round" stroke-linejoin="round" d="M364.226,474.793
			c-1.811,2-1.744,6.391-1.859,10.55c7.695-3.251,11.177-9.731,14.147-16.604"/>
		<path id="path7476" fill="#FFDE08" stroke="#000000" stroke-linecap="round" stroke-linejoin="round" d="M380.607,462.61
			c-0.623,5.238-9.636,7.292-14.399,9.109c0.342-3.11,2.256-5.696,4.334-8.228l0,0"/>
		<path id="path7474" fill="#FFDE08" stroke="#000000" stroke-linecap="round" stroke-linejoin="round" d="M375.537,460.039
			c-3.003,1.009-5.568,2.567-7.787,4.555c2.848,2.646,5.846,1.827,8.889,0"/>
		<path id="path7486" fill="#FFDE08" stroke="#000000" stroke-linecap="round" stroke-linejoin="round" d="M386.545,479.366
			c-0.607,6.783-7.844,8.648-4.921,18.004c2.575-6.599,7.326-9.492,7.164-15.076"/>
		<path id="path7488" fill="#FFDE08" stroke="#000000" stroke-linecap="round" stroke-linejoin="round" d="M388.79,482.415
			c0.428,6.966-4.879,10.489,0.058,16.679c2.594-4.225,1.826-10.23,1.9-15.789"/>
		<path id="path7494" fill="#FFDE08" stroke="#000000" stroke-linecap="round" stroke-linejoin="round" d="M395.783,495.711
			c-3.095-1.751-5.371-5.023-5.034-11.813"/>
		<path id="path7522" fill="#C61021" stroke="#000000" stroke-linecap="round" stroke-linejoin="round" d="M348.688,434.938
			c-5.62,14.285,15.844,9.17,22.688,14c0.513-0.397,0.886-0.884,1.125-1.438l0.375-1.781c0-0.01,0-0.021,0-0.031
			c0.005-0.597-0.07-1.26-0.219-1.937c-0.098-0.401-0.202-0.853-0.313-1.344C362.178,439.687,355.089,448.654,348.688,434.938z"/>
		<path id="path7544" fill="none" stroke="#000000" stroke-linecap="round" stroke-linejoin="round" d="M437.64,481.818
			c0.562-1.892-0.228-5.031-1.014-7.546"/>
		<path id="path7512" fill="none" stroke="#000000" stroke-linecap="round" stroke-linejoin="round" d="M395.425,485.935
			c-2.174-3.808-1.333-8.048-1.209-12.185"/>
		<path id="path7500" fill="none" stroke="#000000" stroke-linecap="round" stroke-linejoin="round" d="M400.806,474.43
			c-2.092-2.63-2.228-5.259-2.264-7.888"/>
		<path id="path7498" fill="none" stroke="#000000" stroke-linecap="round" stroke-linejoin="round" d="M409.227,434.768
			c-2.483-0.519-2.689-5.282-5.903-5.788"/>
		<path id="path7490" fill="none" stroke="#000000" stroke-linecap="round" stroke-linejoin="round" d="M411.673,445.233
			c-2.286-2.082-2.759-4.164-3.497-6.246"/>
		<path id="path7464" fill="#FFDE08" stroke="#000000" stroke-linecap="round" stroke-linejoin="round" d="M399.67,445.156
			c-1.422,7.043-0.479,14.086,1.778,21.129c2.764-2.764,3.685-6.056,2.764-9.873"/>
		<path id="path7504" fill="none" stroke="#000000" stroke-linecap="round" stroke-linejoin="round" d="M389.092,426.368
			c2.455-1.283,5.016-2.779,8.435-5.99"/>
		<path id="path7502" fill="none" stroke="#000000" stroke-linecap="round" stroke-linejoin="round" d="M375.157,418.3
			c5.349,0.911,7.993,2.805,9.779,5.012"/>
		<path id="path7506" fill="none" stroke="#000000" stroke-linecap="round" stroke-linejoin="round" d="M364.522,427.713
			l-8.312,3.789c3.624,2.327,8.694,1.764,13.569,1.589 M356.209,431.502c4.649-0.243,8.633-0.653,11.98-1.222"/>
		<path id="path7468" fill="#FFDE08" stroke="#000000" stroke-linecap="round" stroke-linejoin="round" d="M395.701,462.139
			c-2.196,3.88-2.937,8.306-3.255,12.891c3.948-2.599,5.872-6.95,6.272-12.624"/>
		<path id="path7516" fill="#FFFFFF" stroke="#000000" stroke-linecap="round" stroke-linejoin="round" d="M367.37,426.014
			c3.986,1.05,5.194,2.162,7.341,2.129c2.778-0.043,4.856-1.865,7.632-2.192c-3.736-0.052-4.486-2.981-7.285-3.548
			C372.994,421.984,371.594,423.499,367.37,426.014z"/>
		<path id="path7518" stroke="#000000" stroke-linecap="round" stroke-linejoin="round" d="M374.967,426.457
			c0,0.804-0.652,1.456-1.456,1.456c-0.804,0-1.456-0.652-1.456-1.456c0-0.804,0.652-1.456,1.456-1.456
			C374.315,425.001,374.967,425.653,374.967,426.457z"/>
		<path id="path7534" fill="none" stroke="#000000" stroke-linecap="round" stroke-linejoin="round" d="M358.524,487.242
			c0.596,4.142-1.683,3.198-2.453,6.969"/>
		<path id="path7536" fill="none" stroke="#000000" stroke-linecap="round" stroke-linejoin="round" d="M368.829,490.482
			c-2.508,2.755-3.282,6.437-2.65,11.286"/>
		<path id="path7538" fill="none" stroke="#000000" stroke-linecap="round" stroke-linejoin="round" d="M370.203,494.211
			c-2.007,2.917-2.196,6.643-1.865,10.6"/>
		<path id="path7540" fill="none" stroke="#000000" stroke-linecap="round" stroke-linejoin="round" d="M372.068,498.53
			c-1.059,2.738-1.63,5.576-0.098,8.833"/>
		<path id="path7552" fill="#00FFFF" stroke="#000000" stroke-linecap="round" stroke-linejoin="round" d="M303.43,472.339
			c-2.839,1.183-5.03,2.852-6.722,4.894"/>
		<path id="path7554" fill="#FFDE08" stroke="#000000" stroke-linecap="round" stroke-linejoin="round" d="M299.988,480.137
			c5.328-6.852,8.807-2.432,12.638-0.161"/>
		<path id="path7532" fill="#C61021" stroke="#000000" stroke-linecap="round" stroke-linejoin="round" d="M299.453,487.115
			c-0.656-3.149-2.167-6.086,2.926-7.609c1.897,1.617,2.502,2.749,2.023,3.519C302.588,483.619,299.798,484.549,299.453,487.115z"/>
		<path id="path7530" fill="#C61021" stroke="#000000" stroke-linecap="round" stroke-linejoin="round" d="M294.77,484.042
			c1.699-3.139,6.201-2.464,4.975-6.829C294.203,477.018,294.791,480.724,294.77,484.042z"/>
		<path id="path7528" fill="#C61021" stroke="#000000" stroke-linecap="round" stroke-linejoin="round" d="M292.478,479.603
			c0.797-2.916,0.049-7.119,5.219-6.39C299.271,477.252,295.099,476.737,292.478,479.603z"/>
		<path id="path7591" fill="#FFFF18" stroke="#000000" stroke-linecap="round" stroke-linejoin="round" d="M403.657,561.531
			c-6.375,0.986-5.997,5.075-6.094,8.937l3.906-0.281C401.329,568.544,401.187,564.068,403.657,561.531z"/>
		<path id="path7562" fill="#C61021" stroke="#000000" stroke-linecap="round" stroke-linejoin="round" d="M402.488,576.334
			c-1.698-5.738,1.101-8.902-3.526-8.894C395.11,572.568,399.853,574.9,402.488,576.334z"/>
		<path id="path7564" fill="#C61021" stroke="#000000" stroke-linecap="round" stroke-linejoin="round" d="M406.436,577.083
			c-2.032-2.425-7.202-2.986-3.512-8.813C407.482,568.211,405.15,571.59,406.436,577.083z"/>
		<path id="path7566" fill="#C61021" stroke="#000000" stroke-linecap="round" stroke-linejoin="round" d="M410.776,577.466
			c-2.257-2.376-7.019-2.911-3.96-9.196C413.322,569.289,409.34,572.19,410.776,577.466z"/>
		<path id="path7568" fill="none" stroke="#000000" stroke-linecap="round" stroke-linejoin="round" d="M374.851,509.515
			c-1.018-2.975-1.73-5.981-0.344-9.257"/>
		<path id="path7570" fill="none" stroke="#000000" stroke-linecap="round" stroke-linejoin="round" d="M377.25,509.971
			c-0.812-1.749-0.978-3.66-0.571-5.714"/>
		<path id="path7572" fill="none" stroke="#000000" stroke-linecap="round" stroke-linejoin="round" d="M381.136,515.686
			c-0.519-2.514-0.952-5.028-0.571-7.542"/>
		<path id="path7574" fill="none" stroke="#000000" stroke-linecap="round" stroke-linejoin="round" d="M382.85,517.286
			c-0.374-1.273-0.746-2.545-0.228-4.115"/>
		<path id="path7576" fill="none" stroke="#000000" stroke-linecap="round" stroke-linejoin="round" d="M387.651,521.857
			c-1.161-4.647-2.448-5.18-1.829-7.771"/>
		<path id="path7578" fill="#FFDE08" stroke="#000000" stroke-linecap="round" stroke-linejoin="round" d="M414.423,524.716
			c1.796,5.09,0.216,9.93-0.779,14.795c-0.045-4.225-0.675-7.786-3.582-9.967C412.45,529.337,414.112,527.416,414.423,524.716z"/>
		<path id="path7598" fill="#FFFF18" stroke="#000000" stroke-linecap="round" stroke-linejoin="round" d="M377.844,511.594
			c-9.079,2.507-23.25,4.405-23.25,9.157c0,2.935,2.125,2.952,2.125,6.75c0,4.823-6.118,8.069-11.375,11.093
			c-2.027-1.255-4.067-2.807-6.094-2.375c-0.58-1.878-1.867-2.655-4.219-2.657c-3.332,0-6.511,2.976-7.532,7.813l4.344,6.344
			l7.813,2.969c0.158,0.079,0.341,0.171,0.5,0.25c0.721,0.361,1.406-0.477,1.874-0.594c0.253-0.063,0.784-0.816,0.969-1.062
			c0.337-0.451,0.656-0.813,0.937-1.094c0.341-0.34,0.551-0.852,0.719-1.187c0.064-0.128,1.672,0,1.907,0
			c0.728,0,1.432-0.013,2.125,0.125c0.899,0.18,1.169-0.183,1.437-0.719c0.196-0.392,0.692-0.815,1.188-1.063
			c0.447-0.224,1.125-0.125,1.657-0.125c0.496,0,0.784-0.674,1.312-0.937c0.448-0.224,1.125-0.125,1.656-0.125
			c0.472,0,0.777-0.585,1.312-0.719c0.712-0.177,0.905-0.343,1.406-0.594c0.69-0.345,1.272-0.087,1.907-0.469
			c0.322-0.193,1.39,0,1.781,0c0.599,0,0.947-0.455,1.188-0.938c0.119-0.237,0.743-0.05,0.969-0.125
			c2.335-0.77,2.395-4.142,2.719-6.781c0.433-3.532,1.468-6.045,9.157-6.407c8.919-0.414,8.573,2.778,13.624,3.188
			c-0.157-1.371-0.253-2.825-0.312-4.375C389.458,520.956,380.215,516.88,377.844,511.594z"/>
		<path id="path7608" fill="none" stroke="#000000" stroke-linecap="round" stroke-linejoin="round" d="M330.065,543.316
			c0.462-0.544,1.088-1.005,1.273-1.729c0.566-0.914,1.506-1.594,2.241-2.212c0.563-0.047,1.131,0.03,1.692-0.033
			c0.509-0.158,0.752-0.691,0.93-1.149c0.329-0.667,1.201-0.674,1.675-1.182"/>
		<path id="path7610" fill="none" stroke="#000000" stroke-linecap="round" stroke-linejoin="round" d="M334.206,545.924
			c0.594-0.273,1.301-0.371,1.747-0.9c0.419-0.396,0.906-0.85,0.887-1.477c-0.047-0.54,0.261-1.134,0.824-1.245
			c0.763-0.124,1.541,0.029,2.306,0.072c0.859,0.065,1.728,0.118,2.586,0.03c0.54-0.204,1.103-0.273,1.678-0.162
			c0.562,0.146,0.828-0.447,1.129-0.791c0.149-0.18-0.054,0.06,0.138-0.043"/>
		<path id="path7556" fill="#C61021" stroke="#000000" stroke-linecap="round" stroke-linejoin="round" d="M327.594,549.5
			c0.824-4.648,6.6-5.447,0.353-9.459C324.651,543.008,324.49,546.159,327.594,549.5z"/>
		<path id="path7558" fill="#C61021" stroke="#000000" stroke-linecap="round" stroke-linejoin="round" d="M332.606,553.454
			c-0.683-4.424,6.015-6.942-0.847-9.459C327.353,546.984,329.934,552.22,332.606,553.454z"/>
		<path id="path7560" fill="#C61021" stroke="#000000" stroke-linecap="round" stroke-linejoin="round" d="M337.547,555.501
			c-3.065-2.359-4.363-8.384-0.07-9.105C344.022,548.823,338.067,550.99,337.547,555.501z"/>
		<path id="path7615" fill="none" stroke="#000000" stroke-linecap="round" stroke-linejoin="round" d="M367.387,533.037
			l-3.904-3.678"/>
		<path id="path7617" fill="none" stroke="#000000" stroke-linecap="round" stroke-linejoin="round" d="M368.287,531.085
			l-2.702-3.979"/>
		<path id="path7619" fill="none" stroke="#000000" stroke-linecap="round" stroke-linejoin="round" d="M369.713,529.359
			l-3.077-5.104"/>
		<path id="path7621" fill="none" stroke="#000000" stroke-linecap="round" stroke-linejoin="round" d="M372.115,528.383
			l-3.378-5.255"/>
		<path id="path7623" fill="none" stroke="#000000" stroke-linecap="round" stroke-linejoin="round" d="M374.743,528.157
			l-3.754-6.681"/>
		<path id="path7625" fill="none" stroke="#000000" stroke-linecap="round" stroke-linejoin="round" d="M377.896,527.782
			l-3.378-7.658"/>
		<path id="path7627" fill="none" stroke="#000000" stroke-linecap="round" stroke-linejoin="round" d="M381.274,528.083
			l-2.702-7.282"/>
		<path id="path7629" fill="none" stroke="#000000" stroke-linecap="round" stroke-linejoin="round" d="M383.976,528.908
			c-0.112-2.452-0.496-4.904-1.801-7.357"/>
		<path id="path7633" fill="#FFFF18" stroke="#000000" stroke-linecap="round" stroke-linejoin="round" d="M309.893,438.271
			c-2.467,3.787,6.02,3.931,8.8,5.176c0,0,0.045-2.091-1.312-2.91C315.938,439.666,309.893,438.271,309.893,438.271z"/>
		<path id="path7631" fill="#C61021" stroke="#000000" stroke-linecap="round" stroke-linejoin="round" d="M307.477,439.824
			c0.777-2.356,1.927-3.969,3.623-4.486c2.323,0.985,1.494,2.201,1.671,3.615C310.276,437.161,309.101,439.002,307.477,439.824z"/>
		<path id="path7635" fill="#FFFF18" stroke="#000000" stroke-linecap="round" stroke-linejoin="round" d="M310.469,441.219
			l-1.813,0.125c-0.649,2.296,0.891,3.532,4.313,4.193c3.916,0.756,8.723,1.124,6.812-1.38l-7.281-2.281
			c-0.139-0.041-0.273-0.082-0.406-0.125L310.469,441.219z"/>
		<path id="path2972" fill="#FFFF18" stroke="#000000" stroke-linecap="round" stroke-linejoin="round" d="M308.755,445.335
			c-2.668,4.424,5.112,3.398,8.322,4.755C314.72,447.994,321.347,445.777,308.755,445.335z"/>
		<path id="path7640" fill="#FFFF18" stroke="#000000" stroke-linecap="round" stroke-linejoin="round" d="M318.188,433.313
			c-2.925,0.233-4.376,2.019-6.782,2.188c1.889,0.953,1.208,2.1,1.375,3.438c-0.672-0.482-1.237-0.679-1.75-0.719v0.344
			c1.407,0.338,5.146,1.245,6.344,1.969c1.357,0.819,1.313,2.907,1.313,2.907c-1.352-0.606-4.053-0.933-6.187-1.563l7.281,2.281
			c1.911,2.504-2.896,2.132-6.812,1.375c-0.739-0.143-1.378-0.33-1.938-0.531v0.437c9.462,0.626,3.833,2.701,6.032,4.657
			c2.244,1.279,3.076,3.264,3.657,5.375c0.999-1.186,1.843-1.873,2.562-2.219c1.032,2.136,1.184,4.867,1.375,7.563
			c0.855-0.969,2.376-1.863,2.719-3.344c0.452,2.576,1.495,2.715,1.781,6.188c0.622-1.065,1.353-1.987,2.532-2.219
			c-0.461,1.929,0.986,2.937,0.969,5.812l2.187-3.594c0.946,1.836,1.143,3.63,0.969,5.469c1.348-0.521,2.394-1.492,2.625-3.688
			c0.268,1.941,0.186,4.23,0.188,6.438c0.86-0.293,1.701-0.712,2.125-2.313c-0.231,1.275,0.314,2.934,1.031,4.469
			c0.194-0.288,0.441-0.431,0.594-0.125c0.147,0.295,0.747,1.096,1.281,0.563c0.255-0.255,0.481-1.336,0.781-1.094
			c1.532,1.236,0.518,0,1.25,0c0.328,0,1.059,0.681,1.125,0.125c0.024-0.206,0.039-0.419,0.063-0.625
			c1.001-4.948,4.173-7.13,7.969-8.344c-6.121-6.726-13.067-10.716-20.501-15.281c-2.123-1.304-3.452-2.941-4.75-4.063
			c-4.398-3.801-5.702-6.176-6.624-8.5c-0.985-2.48-2.717-3.375-4.125-3.375C318.624,433.313,318.392,433.296,318.188,433.313z"/>
		<path id="path3790" d="M356.563,423.906c-0.785,0.264-1.43,0.469-1.75,0.469c-1.956,0-3.748,1.926-2.688,4.781
			c0.135,0.363,0.224,0.804,0.281,1.25C354.819,429.208,356.503,426.767,356.563,423.906z"/>
		<g id="use3797" transform="translate(-3.2402794,-3.1192732)">
			<path id="path3795" fill="#C61021" stroke="#960A18" stroke-width="0.5" d="M316.055,424.689c0.004,1.307-1.052,2.37-2.359,2.374
				c-1.308,0.004-2.37-1.052-2.374-2.358c0-0.005,0-0.01,0-0.015c-0.005-1.307,1.052-2.37,2.359-2.374
				c1.307-0.004,2.37,1.052,2.374,2.359C316.055,424.679,316.055,424.684,316.055,424.689z"/>
		</g>
		<g id="use3799" transform="translate(4.1545491,-1.9361006)">
			<path id="path3795_1_" fill="#C61021" stroke="#960A18" stroke-width="0.5" d="M323.45,425.872
				c0.004,1.307-1.051,2.37-2.359,2.374c-1.307,0.004-2.37-1.052-2.373-2.359c0-0.005,0-0.01,0-0.015
				c-0.004-1.307,1.052-2.37,2.359-2.374c1.307-0.004,2.37,1.052,2.373,2.359C323.45,425.862,323.45,425.867,323.45,425.872z"/>
		</g>
		<path id="path3795_2_" fill="#C61021" stroke="#960A18" stroke-width="0.5" d="M319.296,427.808
			c0.004,1.307-1.052,2.37-2.359,2.374c-1.308,0.004-2.37-1.052-2.374-2.359c0-0.005,0-0.01,0-0.015
			c-0.004-1.307,1.052-2.37,2.359-2.374c1.307-0.004,2.37,1.052,2.374,2.359C319.296,427.798,319.296,427.803,319.296,427.808z"/>
		<g id="g3582" transform="matrix(0.1878022,-2.7560892e-2,2.7560892e-2,0.1878022,325.56584,365.42583)">
			<g id="g1989" transform="matrix(0.5390584,0.1444402,-0.1444402,0.5390584,240.66989,163.43269)">
				<path id="path1653" fill="#CC0000" stroke="#000000" stroke-width="1.6287" d="M137.662,97.433
					c-4.471,0.137-9.708,0.889-15.22,2.001c-8.178,0.158-17.354,1.66-28.055,7.592c-0.056,0.032-0.107,0.038-0.163,0.066
					c-5.858,1.88-10.876,3.631-14.214,4.841c-0.009-0.003-0.025,0.003-0.034,0c-13.059-4.169-50.388-12.12-53.777,31.968
					c-0.02,0.271,0.084,0.721,0.312,1.284c0.001,0.008-0.006,0.022-0.005,0.031c-1.243,6.931,1.381,19.095,1.381,19.095
					c1.548,1.11,2.671,3.552,2.968,4.342c0.001,0.013-0.003,0.047-0.001,0.064c0.025,0.877-3.155,4.385-2.593,5.841
					c0.001,0.009,0.029,0.027,0.029,0.031c0.012,0.029,0.017,0.071,0.028,0.095c0.01,0.007,0.029,0.027,0.038,0.03
					c0.001,0.013,0.023,0.052,0.025,0.065c0.009,0.003,0.029,0.027,0.038,0.03c0,0.004,0.02,0.028,0.029,0.031
					c0,0.004,0.029,0.027,0.029,0.031c0.019,0.015,0.045,0.02,0.063,0.031c1.125,0.852,2.102,4.464,2.872,7.627
					c0.011,0.02-0.004,0.043-0.001,0.064c0.001,0.008,0.01,0.016,0.003,0.03c-0.243,1.212-0.154,2.27,0.529,2.998
					c0.107,0.112,0.188,0.218,0.28,0.348c0.882,3.901,9.697,41.229,9.193,43.215c-0.494,1.998,2.987,4.502,6.154,5.5
					c0.373,0.119,1.258,0.238,2.621,0.344c0.044,0.016,0.087,0.015,0.132,0.031c18.693,6.603,34.757,2.234,69.435,0.72
					c9.051-0.077,18.746-0.199,28.965-0.373c0.128-0.002,0.256,0,0.376-0.001c0.222-0.005,0.445,0.004,0.658,0
					c10.226,0.179,19.915,0.297,28.967,0.374c34.681,1.512,50.746,5.882,69.439-0.717c0.042-0.005,0.082-0.031,0.125-0.031
					c1.372-0.109,2.255-0.229,2.627-0.345c3.166-0.997,6.651-3.506,6.153-5.5c-0.497-1.993,0.661-9.799,0.656-12.628
					c0.004-2.826,1.994-6.139,3.155-7.466c0.347-0.396,0.753-1.233,1.127-2.281c1.634,0.6,3.731,1.728,4.404,1.781
					c0.008-0.001,0.025-0.003,0.034,0c0.008-0.001,0.025-0.003,0.034,0l0.025-0.003c0.009-0.001,0.034,0,0.034,0
					s0.026,0.001,0.034,0c0-0.004,0.022-0.028,0.031-0.029c0-0.004-0.003-0.03-0.004-0.034c0.008-0.005,0.032-0.021,0.031-0.029
					c0-0.004,0.006-0.026,0.005-0.031c-0.002-0.017-0.031-0.048-0.033-0.065c-0.001-0.012,0.002-0.052,0.001-0.064
					c0-0.004-0.028-0.022-0.029-0.031c-0.177-0.343-0.751-1.015-1.909-2.154c-0.009-0.007-0.029-0.027-0.029-0.031
					c-1.406-1.648,0.746-16.254,1.624-20.16c0.096-0.127,0.178-0.23,0.276-0.34c0.693-0.73,0.774-1.791,0.531-3.002
					c0.008-0.01-0.002-0.021,0.005-0.031c-0.003-0.025,0.004-0.039,0.001-0.064c0.768-3.162,1.749-6.773,2.872-7.625
					c0.016-0.011,0.05-0.015,0.065-0.029c0.008-0.005,0.022-0.028,0.03-0.033c0.008-0.005,0.023-0.024,0.031-0.029
					c0.008-0.005,0.031-0.025,0.03-0.033c0.008-0.01,0.028-0.05,0.036-0.06c-0.001-0.008,0.022-0.028,0.03-0.033
					c0.021-0.037,0.041-0.086,0.063-0.123c0.556-1.462-2.622-4.963-2.596-5.847c0.006-0.022,0.029-0.042,0.036-0.06
					c0.292-0.791,1.384-3.234,2.938-4.347c0,0,2.616-12.16,1.372-19.092c-0.001-0.008-0.002-0.021-0.003-0.03
					c0.225-0.565,0.335-1.013,0.312-1.284c-3.38-44.09-40.719-36.137-53.78-31.969c-0.009-0.003-0.025,0.007-0.026-0.001
					c-3.346-1.208-8.362-2.957-14.223-4.842c-0.046-0.025-0.081-0.038-0.127-0.062c-10.71-5.939-19.876-7.435-28.057-7.596
					c-9.908-1.999-18.972-2.835-24.253-0.997c-0.854,0.296-1.731,0.544-2.596,0.751c-0.853-0.204-1.712-0.458-2.558-0.753
					C144.316,97.619,141.248,97.327,137.662,97.433z"/>
				<g id="g1821">
					<path id="path13497" fill="#F7D917" stroke="#000000" stroke-width="0.8143" d="M82.309,132.97
						c-2.658,0.951-5.334,23.81-3.039,31.188c1.588,5.11,3.502,8.558,4.614,10.685c-2.293-3.536-7.475-10.3-13.345-9.773
						c-7.367,0.658-5.414,24.379-5.042,25.883c0,0.004-0.007,0.018,0.003,0.025c0,0,0.011,0.02,0.019,0.019
						c0,0,0.009,0.003,0.017,0.002c0.255-0.594,2.034-10.631,9.334-11.285c4.796-0.431,9.225,4.783,10.888,7.025
						c0.087,0.746,0.188,1.465,0.281,2.194c-0.805,2.329-0.84,7.679-3.361,14.64c-3.045,8.406-15.299,10.34-17.362,10.606
						c0.524-0.048,20.25-1.819,26.729-2.399c0.025-0.003,0.06-0.003,0.085-0.006c0.009-0.001,0.017-0.002,0.034-0.004
						c0.026,0.001,26.289-2.36,26.805-2.408c-2.082,0.106-5.89-5.069-17.907-8.215c-6.619-5.604-7.149-10.662-8.51-12.798
						c-0.085-0.729-0.16-1.451-0.256-2.197c1.086-2.486,4.143-8.376,8.939-8.803c7.3-0.659,11.485,8.845,11.88,9.38l0.017-0.002
						c0-0.004,0.014-0.023,0.014-0.027c0-0.004-0.002-0.017-0.003-0.025c-0.008-1.538-3.865-25.084-11.241-24.42
						c-5.862,0.525-9.291,8.066-10.669,11.928c0.564-2.275,1.486-6.977,1.739-11.254c0.456-7.742-7.779-30.209-10.529-29.969
						C82.402,132.963,82.35,132.956,82.309,132.97z M83.969,174.982c0.24,0.37,0.448,0.687,0.617,0.967
						c0.001,0.008,0.578,2.321,0.579,2.33c0.006,0.051,2.41,7.911,2.416,7.962C87.4,185.941,84.21,175.441,83.969,174.982z
						 M91.184,174.333c-0.122,0.493-0.806,11.342-0.905,11.661c-0.005-0.046,0.55-10.53,0.544-10.581
						c-0.001-0.009,0.053,2.361,0.052,2.353C90.968,177.465,91.043,174.738,91.184,174.333z"/>
					<path id="path27451" fill="#F7D917" stroke="#000000" stroke-width="0.8143" d="M217.075,134.315
						c-2.794,0.373-10.166,22.181-9.457,29.876c0.492,5.323,1.651,9.098,2.295,11.404c-1.51-3.931-5.176-11.627-11.019-12.331
						c-7.351-0.886-10.368,22.718-10.324,24.269c0,0.004,0.002,0.017,0.003,0.025c0,0,0.011,0.02,0.011,0.024l0.017,0.002
						c0.383-0.528,4.205-9.973,11.478-9.095c4.785,0.574,8.026,6.598,9.193,9.133c-0.066,0.751-0.118,1.475-0.178,2.209
						c-1.275,2.11-6.255,10.349-13.726,13.344c-8.304,3.327-9.716,7.206-11.795,7.038c0.52,0.063,20.182,2.433,26.64,3.214
						c0.026,0.001,0.061,0.006,0.086,0.007c0.009,0.003,0.017,0.002,0.035,0.004c0.018,0.007,0.052,0.007,0.078,0.012
						c6.458,0.777,26.119,3.147,26.639,3.21c-2.056-0.333-8.094-3.368-14.293-10.137c-5.485-5.989-6.297-13.544-7.18-15.911
						c0.068-0.735,0.147-1.453,0.213-2.204c1.572-2.205,5.786-7.329,10.571-6.754c7.274,0.878,9.39,11.042,9.674,11.646l0.017,0.002
						c0-0.004,0.015-0.019,0.014-0.023c0-0.004,0.007-0.018,0.006-0.022c0.312-1.507,1.43-25.342-5.922-26.229
						c-5.843-0.703-10.758,5.96-12.915,9.45c1.028-2.107,2.898-6.513,4.041-10.646c2.051-7.479-1.326-31.166-4.067-31.505
						C217.17,134.325,217.125,134.309,217.075,134.315z M209.966,175.751c0.159,0.413,0.294,0.765,0.399,1.073
						c0.001,0.008,0.083,2.396,0.083,2.401c-0.003,0.052,0.713,8.238,0.71,8.289C211.043,187.186,210.11,176.252,209.966,175.751z
						 M217.161,176.617c-0.229,0.454-3.145,10.927-3.316,11.22c0.002-0.052,2.735-10.187,2.738-10.238
						c-0.001-0.008-0.439,2.32-0.44,2.312C216.299,179.632,216.939,176.985,217.161,176.617z"/>
					<g id="g33161" transform="matrix(1.085779,0,0,1.085779,6.91471,26.11209)">
						<g id="g33067">
							<g id="g33040">
								<path id="path28377" fill="#F7D917" stroke="#000000" stroke-width="0.7148" d="M24.312,134.563l9.69-11.816
									c0,0,0.9,1.171,0,0c-19.864-25.68-20.874-40.413-18.635-47.876c2.232-7.459,6.705-15.542,18.636-25.494
									c11.923-9.947,20.156-4.417,31.334-4.417c11.178-0.001,14.16,2.489,23.854,3.729c9.686,1.248,35.777,2.488,35.777,2.488
									l-0.002-6.836c0,0,1.03,0.191,0,0c-11.515-2.149-26.087,0-35.776-2.488c-9.689-2.487-17.893-3.109-28.323-3.109
									c-10.438,0.001-17.925-3.042-24.628,1.309c-6.711,4.353-14.909,11.815-20.875,18.032c-5.958,6.217-8.94,18.652-8.194,26.736
									c0.746,8.084,3.724,14.924,8.196,21.141c4.472,6.217,3.729,11.192,5.221,15.544
									C22.077,125.858,24.313,135.181,24.312,134.563z"/>
								<path id="path29282" fill="#F7D917" stroke="#000000" stroke-width="0.7148" d="M239.254,134.563l-9.691-11.815
									c0,0-0.903,1.168,0,0c19.873-25.681,20.871-40.416,18.639-47.878c-2.24-7.461-6.709-15.544-18.638-25.492
									c-11.92-9.945-20.156-4.419-31.334-4.419c-11.178,0.001-14.162,2.49-23.85,3.73c-9.695,1.245-35.779,2.488-35.779,2.488
									L138.6,44.34c0,0-1.025,0.19,0,0c11.518-2.15,26.087,0,35.779-2.488c9.691-2.488,17.892-3.11,28.322-3.11
									c10.438-0.001,17.924-3.042,24.627,1.312c6.71,4.35,14.909,11.813,20.877,18.028c5.959,6.217,8.945,18.653,8.195,26.738
									c-0.742,8.08-3.723,14.922-8.201,21.14c-4.47,6.217-3.725,11.192-5.217,15.545
									C241.497,125.855,239.255,135.185,239.254,134.563z"/>
								
									<rect id="rect29364" x="115.556" y="38.702" fill="#F7D917" stroke="#000000" stroke-width="0.835" width="34.565" height="70.894"/>
							</g>
							<g id="g33061" transform="translate(0,-8)">
								<path id="path29388" fill="#F7D917" stroke="#000000" stroke-width="0.5" d="M119.689-15.798c0,0,3.715,3.03,6.569,6.921
									c2.855,3.894,4.85,8.652,4.85,8.652s-4.758-1.988-8.657-4.843c-3.891-2.856-6.915-6.578-6.915-6.578l-0.003,26.304
									c0,0,3.03-3.722,6.924-6.577s8.653-4.843,8.653-4.843s-1.534,3.926-2.526,8.65c-0.89,4.252-8.184,14.065-8.184,14.065
									l21.303,1.428c0,0-3.546-11.241-4.971-15.495c-1.533-4.576-2.166-8.651-2.166-8.651s4.759,1.992,8.649,4.844
									c3.899,2.855,6.923,6.576,6.923,6.576l0.003-26.304c0,0-3.03,3.722-6.924,6.577s-8.653,4.847-8.653,4.847
									s1.996-4.759,4.847-8.654c2.853-3.891,6.577-6.923,6.577-6.923L119.689-15.798z"/>
								<g id="g33057">
									<path id="path29366" fill="#F7D917" stroke="#000000" stroke-width="0.75" d="M149.983,31.077
										c0.003,9.474-7.675,17.15-17.144,17.153c-9.47-0.002-17.151-7.679-17.146-17.153c-0.002-9.469,7.675-17.15,17.145-17.149
										C142.307,13.926,149.989,21.606,149.983,31.077L149.983,31.077z"/>
									<path id="path31255" fill="#F7D917" stroke="#000000" stroke-width="0.5" d="M116.074,33.535l34.101,0.003
										c0,0,0.498-6.6-1.971-9.067c-2.377,0.002-10.595,0-10.595,0l-0.177-9.886l-3.944-0.001l-6.101-0.001l-0.177,9.888
										c0,0-7.129,0.359-10.412,0.36c-1.489,4.039-1.261,4.378-1.261,4.378L116.074,33.535z"/>
								</g>
							</g>
						</g>
						<g id="g33156">
							<path id="path11917" fill="#F7D917" stroke="#000000" stroke-width="0.75" d="M110.879,107.221c0,0,6.21,5.058,10.983,11.558
								c4.765,6.502,8.084,14.447,8.084,14.447s-7.945-3.324-14.444-8.093c-6.499-4.764-11.561-10.975-11.561-10.975l0.004,43.913
								c0,0,5.054-6.21,11.559-10.979c6.498-4.764,14.446-8.088,14.446-8.088s-3.324,7.945-8.092,14.448
								c-4.768,6.5-10.98,11.557-10.98,11.557l43.917,0c0,0-6.21-5.058-10.983-11.558c-4.765-6.501-8.084-14.447-8.084-14.447
								s7.945,3.324,14.444,8.093c6.499,4.764,11.561,10.976,11.561,10.976l-0.004-43.913c0,0-5.054,6.21-11.559,10.979
								c-6.498,4.764-14.447,8.088-14.447,8.088s3.325-7.945,8.092-14.448c4.768-6.499,10.979-11.557,10.979-11.557L110.879,107.221
								z"/>
							<path id="path27435" fill="#F7D917" stroke="#000000" stroke-width="0.75" d="M27.244,181.783l21.62-3.812
								c0,0-6.997-3.903-12.818-9.479c-5.822-5.571-10.477-12.822-10.477-12.822s8.407,1.893,15.632,5.459
								c7.233,3.565,13.291,8.806,13.291,8.806l-7.625-43.249c0,0-3.899,6.996-9.479,12.819
								c-5.571,5.825-12.822,10.477-12.822,10.477s1.894-8.404,5.459-15.633c3.565-7.229,8.81-13.288,8.81-13.288l-21.628,3.813
								L27.244,181.783z"/>
							<path id="path27433" fill="#F7D917" stroke="#000000" stroke-width="0.75" d="M226.84,121.062c0,0,5.24,6.056,8.807,13.288
								c3.567,7.228,5.459,15.631,5.459,15.631s-7.249-4.649-12.824-10.474c-5.575-5.824-9.469-12.821-9.469-12.821l-7.631,43.249
								c0,0,6.057-5.236,13.285-8.803c7.236-3.567,15.635-5.46,15.635-5.46s-4.649,7.249-10.478,12.825
								c-5.821,5.571-12.813,9.472-12.813,9.472l21.62,3.812l10.037-56.907L226.84,121.062z"/>
						</g>
					</g>
					<path id="path14537" fill="#F7D917" stroke="#000000" stroke-width="0.8143" d="M36.741,221.045l0.16,34.213
						c0,0,57.166-19.47,114.33-19.469s114.323,19.469,114.323,19.469l0.002-34.21c0,0-57.202-19.467-114.408-19.467
						C93.942,201.58,36.741,221.045,36.741,221.045z"/>
					<g id="g31151" transform="matrix(1.085779,0,0,1.085779,6.91471,26.11209)">
						<path id="path23567" fill="#FFFFFF" stroke="#000000" stroke-width="1.5" d="M22.584,117.788
							c0.005,4.427-3.592,8.015-8.016,8.016c-4.424,0-8.015-3.588-8.011-8.016c-0.005-4.427,3.583-8.018,8.015-8.019
							C18.997,109.772,22.587,113.36,22.584,117.788L22.584,117.788z"/>
						<path id="path29252" fill="#FFFFFF" stroke="#000000" stroke-width="1.5" d="M12.305,99.508
							c-0.004,4.424-3.592,8.015-8.016,8.016c-4.432,0.001-8.015-3.592-8.02-8.019c0.003-4.425,3.592-8.015,8.016-8.016
							C8.717,91.488,12.301,95.081,12.305,99.508L12.305,99.508z"/>
						<path id="path29254" fill="#FFFFFF" stroke="#000000" stroke-width="1.5" d="M10.161,78.079
							c-0.004,4.424-3.592,8.015-8.016,8.015c-4.424,0-8.015-3.588-8.012-8.016c-0.004-4.427,3.583-8.018,8.015-8.02
							C6.573,70.059,10.164,73.651,10.161,78.079L10.161,78.079z"/>
						<path id="path29256" fill="#FFFFFF" stroke="#000000" stroke-width="1.5" d="M16.59,58.079
							c-0.003,4.428-3.592,8.015-8.016,8.016c-4.424,0-8.015-3.588-8.019-8.015c0.003-4.428,3.591-8.019,8.015-8.02
							C13.002,50.062,16.593,53.65,16.59,58.079L16.59,58.079z"/>
						<path id="path29258" fill="#FFFFFF" stroke="#000000" stroke-width="1.5" d="M30.158,41.65
							c0.004,4.427-3.584,8.014-8.016,8.015c-4.424,0-8.015-3.588-8.012-8.016c-0.004-4.427,3.583-8.018,8.015-8.019
							C26.57,33.634,30.161,37.222,30.158,41.65L30.158,41.65z"/>
						<path id="path29260" fill="#FFFFFF" stroke="#000000" stroke-width="1.5" d="M48.733,30.219
							c-0.003,4.428-3.591,8.019-8.015,8.019c-4.432,0.001-8.015-3.592-8.02-8.019c0.003-4.425,3.592-8.015,8.016-8.016
							C45.146,22.203,48.737,25.794,48.733,30.219L48.733,30.219z"/>
						<path id="path29262" fill="#FFFFFF" stroke="#000000" stroke-width="1.5" d="M69.446,31.649
							c0.005,4.427-3.583,8.018-8.016,8.016c-4.424,0-8.015-3.588-8.012-8.016c-0.005-4.427,3.584-8.014,8.016-8.015
							C65.858,23.633,69.449,27.221,69.446,31.649L69.446,31.649z"/>
						<path id="path29264" fill="#FFFFFF" stroke="#000000" stroke-width="1.5" d="M90.163,35.078
							c-0.003,4.428-3.592,8.015-8.015,8.016c-4.432,0.001-8.015-3.588-8.02-8.015c0.003-4.428,3.591-8.019,8.015-8.019
							C86.575,27.062,90.158,30.651,90.163,35.078L90.163,35.078z"/>
						<path id="path29266" fill="#FFFFFF" stroke="#000000" stroke-width="1.5" d="M110.872,37.221
							c0.005,4.427-3.584,8.014-8.015,8.015c-4.424,0-8.015-3.588-8.012-8.016c-0.005-4.427,3.591-8.019,8.016-8.016
							C107.284,29.205,110.875,32.793,110.872,37.221L110.872,37.221z"/>
						<path id="path29284" fill="#FFFFFF" stroke="#000000" stroke-width="1.5" d="M240.982,117.787
							c-0.003,4.428,3.587,8.016,8.02,8.019c4.424,0,8.012-3.591,8.015-8.02c-0.004-4.427-3.587-8.016-8.019-8.015
							C244.573,109.772,240.985,113.359,240.982,117.787L240.982,117.787z"/>
						<path id="path29286" fill="#FFFFFF" stroke="#000000" stroke-width="1.5" d="M251.264,99.506
							c-0.003,4.428,3.588,8.016,8.012,8.016c4.432-0.001,8.02-3.588,8.016-8.016c0.003-4.428-3.588-8.016-8.011-8.016
							C254.855,91.491,251.26,95.079,251.264,99.506L251.264,99.506z"/>
						<path id="path29288" fill="#FFFFFF" stroke="#000000" stroke-width="1.5" d="M253.409,78.077
							c-0.003,4.428,3.588,8.016,8.012,8.02c4.432-0.001,8.02-3.592,8.015-8.019c0.003-4.428-3.588-8.016-8.012-8.016
							C256.994,70.062,253.405,73.649,253.409,78.077L253.409,78.077z"/>
						<path id="path29290" fill="#FFFFFF" stroke="#000000" stroke-width="1.5" d="M246.976,58.077
							c0.005,4.427,3.588,8.02,8.02,8.019c4.424,0,8.012-3.591,8.015-8.019c-0.005-4.427-3.588-8.016-8.019-8.015
							C250.568,50.062,246.98,53.652,246.976,58.077L246.976,58.077z"/>
						<path id="path29292" fill="#FFFFFF" stroke="#000000" stroke-width="1.5" d="M233.41,41.648
							c-0.003,4.428,3.588,8.016,8.012,8.02c4.432-0.001,8.02-3.592,8.015-8.02c0.003-4.428-3.588-8.016-8.011-8.016
							C236.994,33.633,233.405,37.22,233.41,41.648L233.41,41.648z"/>
						<path id="path29294" fill="#FFFFFF" stroke="#000000" stroke-width="1.5" d="M214.838,30.219
							c-0.003,4.428,3.588,8.02,8.012,8.02c4.432-0.001,8.02-3.592,8.015-8.019c0.004-4.425-3.588-8.016-8.011-8.016
							C218.422,22.204,214.833,25.795,214.838,30.219L214.838,30.219z"/>
						<path id="path29296" fill="#FFFFFF" stroke="#000000" stroke-width="1.5" d="M194.121,31.65
							c-0.003,4.428,3.588,8.016,8.012,8.016c4.432-0.001,8.02-3.588,8.023-8.016c-0.004-4.427-3.595-8.015-8.02-8.019
							C197.712,23.631,194.124,27.222,194.121,31.65L194.121,31.65z"/>
						<path id="path29298" fill="#FFFFFF" stroke="#000000" stroke-width="1.5" d="M173.408,35.077
							c-0.003,4.428,3.588,8.016,8.011,8.016c4.432,0.003,8.02-3.588,8.016-8.016c0.003-4.428-3.588-8.016-8.012-8.016
							C176.992,27.063,173.403,30.65,173.408,35.077L173.408,35.077z"/>
						<path id="path29300" fill="#FFFFFF" stroke="#000000" stroke-width="1.5" d="M152.695,37.221
							c-0.003,4.428,3.588,8.016,8.011,8.016c4.432-0.001,8.021-3.588,8.016-8.016c0.003-4.428-3.588-8.016-8.012-8.02
							C156.278,29.203,152.69,32.793,152.695,37.221L152.695,37.221z"/>
						<g id="g29354" transform="translate(1.040326,0)">
							<path id="path29306" fill="#FFFFFF" stroke="#000000" stroke-width="1.5" d="M139.814,99.786
								c-0.003,4.428-3.591,8.019-8.015,8.019c-4.432,0.001-8.015-3.592-8.02-8.019c0.004-4.425,3.592-8.015,8.016-8.015
								C136.226,91.77,139.81,95.362,139.814,99.786L139.814,99.786z"/>
							<path id="path29308" fill="#FFFFFF" stroke="#000000" stroke-width="1.5" d="M139.81,85.507
								c0.005,4.428-3.583,8.018-8.016,8.016c-4.424,0-8.015-3.588-8.012-8.016c-0.004-4.427,3.584-8.014,8.016-8.016
								C136.222,77.49,139.813,81.079,139.81,85.507L139.81,85.507z"/>
							<path id="path29312" fill="#FFFFFF" stroke="#000000" stroke-width="1.5" d="M139.815,74.076
								c-0.003,4.428-3.591,8.019-8.015,8.019c-4.432,0.001-8.015-3.592-8.02-8.019c0.004-4.425,3.592-8.015,8.016-8.016
								C136.228,66.06,139.81,69.649,139.815,74.076L139.815,74.076z"/>
							<path id="path29314" fill="#FFFFFF" stroke="#000000" stroke-width="1.5" d="M139.812,63.65
								c0.005,4.427-3.584,8.014-8.016,8.015c-4.424,0-8.015-3.588-8.012-8.016c-0.004-4.427,3.583-8.018,8.016-8.016
								C136.224,55.634,139.815,59.222,139.812,63.65L139.812,63.65z"/>
							<path id="path29316" fill="#FFFFFF" stroke="#000000" stroke-width="1.5" d="M139.81,30.222
								c0.005,4.427-3.584,8.014-8.016,8.015c-4.424,0-8.015-3.588-8.012-8.016c-0.004-4.427,3.584-8.018,8.015-8.019
								C136.223,22.206,139.813,25.794,139.81,30.222L139.81,30.222z"/>
							<path id="path29318" fill="#FFFFFF" stroke="#000000" stroke-width="1.5" d="M139.811,31.651
								c0.004,4.424-3.584,8.014-8.016,8.016c-4.424,0-8.015-3.592-8.011-8.016c-0.005-4.427,3.583-8.018,8.015-8.02
								C136.223,23.631,139.814,27.223,139.811,31.651L139.811,31.651z"/>
							<path id="path29320" fill="#FFFFFF" stroke="#000000" stroke-width="1.5" d="M139.812,39.078
								c0.005,4.428-3.584,8.015-8.016,8.016c-4.424,0-8.015-3.588-8.012-8.016c-0.004-4.427,3.583-8.018,8.016-8.015
								C136.224,31.062,139.815,34.65,139.812,39.078L139.812,39.078z"/>
							<path id="path29322" fill="#FFFFFF" stroke="#000000" stroke-width="1.5" d="M139.813,49.221
								c-0.003,4.428-3.592,8.015-8.016,8.015c-4.432,0.001-8.015-3.588-8.019-8.015c0.003-4.428,3.591-8.019,8.015-8.016
								C136.226,41.204,139.817,44.792,139.813,49.221L139.813,49.221z"/>
						</g>
					</g>
					<g id="g2038" transform="translate(0,-2.600445e-4)">
						
							<rect id="rect36472" x="134.794" y="210.098" fill="#002B7F" stroke="#000000" stroke-width="0.8414" width="34.761" height="15.153"/>
						<path id="path37350" fill="#3E8225" stroke="#000000" stroke-width="1.5" d="M190.151,221.319
							c0.117,4.525,7.192,8.901,15.798,9.773c8.615,0.876,15.509-2.086,15.392-6.611c-0.109-4.526-7.184-8.902-15.798-9.773
							C196.928,213.832,190.042,216.793,190.151,221.319z"/>
						<path id="path37352" fill="#CC0000" stroke="#000000" stroke-width="1.0858" d="M36.941,229.287l-8.711,8.708l10.099,5.835
							l23.497-6.296l-4.193-13.306L36.941,229.287z"/>
						<path id="path37354" fill="#CC0000" stroke="#000000" stroke-width="1.0858" d="M267.406,229.289l8.716,8.706l-10.106,5.833
							l-23.495-6.295l4.192-13.305L267.406,229.289z"/>
						<path id="path37356" fill="#3E8225" stroke="#000000" stroke-width="1.5" d="M114.192,221.317
							c-0.113,4.526-7.184,8.902-15.792,9.777c-8.616,0.872-15.508-2.085-15.395-6.611c0.113-4.526,7.184-8.906,15.8-9.778
							C107.413,213.829,114.306,216.791,114.192,221.317z"/>
						<path id="path1994" fill="#FFFFFF" stroke="#000000" stroke-width="0.7" d="M127.272,211.227
							c0.002,2.363-1.911,4.279-4.278,4.281c-2.359-0.003-4.275-1.916-4.277-4.279c0.007-2.364,1.92-4.28,4.279-4.277
							C125.364,206.95,127.28,208.867,127.272,211.227z"/>
						<path id="path1996" fill="#FFFFFF" stroke="#000000" stroke-width="0.7" d="M128.615,224.866
							c-0.006,2.364-1.92,4.28-4.279,4.277c-2.367,0.002-4.283-1.915-4.277-4.279c-0.002-2.359,1.912-4.274,4.279-4.277
							C126.697,220.585,128.613,222.503,128.615,224.866z"/>
						<path id="path1998" fill="#FFFFFF" stroke="#000000" stroke-width="0.7" d="M73.796,220.856
							c0.002,2.363-1.912,4.274-4.27,4.276c-2.367,0.003-4.283-1.915-4.285-4.278c0.006-2.364,1.92-4.28,4.279-4.277
							C71.887,216.575,73.803,218.492,73.796,220.856z"/>
						<path id="path2000" fill="#FFFFFF" stroke="#000000" stroke-width="0.7" d="M79.148,233.69c0.002,2.363-1.92,4.28-4.279,4.277
							c-2.359,0.002-4.275-1.916-4.277-4.279c-0.002-2.363,1.911-4.279,4.279-4.277C77.229,229.409,79.146,231.327,79.148,233.69z"
							/>
						<path id="path2020" fill="#FFFFFF" stroke="#000000" stroke-width="0.7" d="M176.872,211.23
							c0.002,2.363,1.918,4.276,4.285,4.278c2.359-0.001,4.272-1.917,4.27-4.28c0.007-2.364-1.909-4.277-4.276-4.275
							C178.792,206.951,176.878,208.866,176.872,211.23z"/>
						<path id="path2022" fill="#FFFFFF" stroke="#000000" stroke-width="0.7" d="M175.539,224.865
							c0.002,2.363,1.918,4.281,4.277,4.279c2.367-0.003,4.281-1.918,4.279-4.277c-0.002-2.363-1.918-4.281-4.277-4.279
							C177.45,220.586,175.537,222.501,175.539,224.865z"/>
						<path id="path2024" fill="#FFFFFF" stroke="#000000" stroke-width="0.7" d="M230.354,220.853
							c-0.006,2.364,1.91,4.282,4.277,4.279c2.359,0.003,4.273-1.913,4.279-4.277c-0.002-2.363-1.918-4.281-4.285-4.278
							C232.265,216.574,230.352,218.49,230.354,220.853z"/>
						<path id="path2026" fill="#FFFFFF" stroke="#000000" stroke-width="0.7" d="M225.005,233.691
							c0.002,2.363,1.917,4.276,4.276,4.275c2.359,0.003,4.281-1.914,4.279-4.277c-0.002-2.363-1.918-4.276-4.277-4.279
							C226.916,229.412,225.002,231.328,225.005,233.691z"/>
					</g>
					<g id="g1811">
						<path id="path1793" fill="#F7D917" stroke="#000000" d="M262.586,201.658l2.716,1.299
							c-1.014,1.349-7.189,16.415-29.375,11.746c-22.405-4.712-24.013-26.277-24.013-26.277l4.159,1.511
							c0,0,2.428,16.644,20.039,21.365C253.546,215.973,262.586,201.658,262.586,201.658z"/>
						<path id="path1795" fill="#F7D917" stroke="#000000" d="M212.295,188.612l-4.165,0.567c0,0-4.283,15.675-26.75,12.478
							c-22.093-3.142-22.994-19.661-23.726-22.499c-4.33,2.082-3.404,2.837-3.404,2.837s2.551,20.045,26.283,22.876
							C204.068,207.704,212.1,194.853,212.295,188.612z"/>
						<path id="path1797" fill="#F7D917" stroke="#000000" stroke-width="0.8143" d="M216.853,186.576c0,0-1.972-1.663-4.131-1.856
							c-2.16-0.197-4.498,1.08-4.498,1.08l-0.485,3.907c0,0,2.339-1.273,4.498-1.08s4.139,1.855,4.139,1.855L216.853,186.576z"/>
						<path id="path1799" fill="#FFFFFF" stroke="#000000" d="M256.771,192.319c-0.002,6.214,5.03,11.255,11.244,11.253
							c6.214,0.002,11.25-5.039,11.244-11.251c0.01-6.215-5.03-11.251-11.244-11.253
							C261.801,181.07,256.764,186.106,256.771,192.319L256.771,192.319z"/>
						<path id="path1423" fill="#F7D917" stroke="#000000" d="M38.95,201.658l-2.72,1.3c1.02,1.347,7.188,16.414,29.379,11.746
							c22.408-4.716,24.013-26.279,24.013-26.279l-4.157,1.51c0,0-2.435,16.647-20.047,21.368
							C47.987,215.972,38.95,201.658,38.95,201.658z"/>
						<path id="path1532" fill="#F7D917" stroke="#000000" d="M89.242,188.615l4.16,0.566c0,0,4.289,15.671,26.755,12.479
							c22.087-3.144,22.989-19.664,23.727-22.498c4.319,2.078,3.399,2.834,3.399,2.834s-2.552,20.046-26.281,22.877
							C97.468,207.702,89.431,194.853,89.242,188.615z"/>
						<path id="path13500" fill="#F7D917" stroke="#000000" stroke-width="0.8143" d="M84.679,186.574c0,0,1.977-1.662,4.134-1.854
							c2.157-0.196,4.502,1.078,4.502,1.078l0.481,3.91c0,0-2.345-1.274-4.502-1.077c-2.157,0.191-4.134,1.854-4.134,1.854
							L84.679,186.574z"/>
						<path id="path34253" fill="#FFFFFF" stroke="#000000" d="M44.768,192.322c-0.002,6.214-5.039,11.25-11.252,11.252
							c-6.214-0.002-11.246-5.039-11.244-11.253c0.002-6.214,5.03-11.253,11.244-11.251
							C39.729,181.067,44.77,186.108,44.768,192.322L44.768,192.322z"/>
					</g>
					<path id="path33378" fill="#FFFFFF" stroke="#000000" d="M162.305,171.924c0.007,6.213-5.03,11.253-11.244,11.251
						c-6.213,0.002-11.246-5.039-11.244-11.253c-0.007-6.213,5.03-11.249,11.244-11.251
						C157.276,160.673,162.307,165.709,162.305,171.924L162.305,171.924z"/>
				</g>
				<g id="g35393" transform="matrix(1.085779,0,0,1.085779,-81.34112,-69.1113)">
					<path id="path34451" fill="#FFFFFF" stroke="#000000" stroke-width="1.5784" d="M132.906,289.658
						c-3.009,0.52-22.143,7.297-25.967,9.609c0.002,0.015-0.002,0.044-0.001,0.059c0.326,1.989-3.316,11.254,2.063,15.936
						c15.634-5.125,59.525-20.406,106.638-20.405c48.208-0.001,88.136,15.279,103.77,20.406c5.381-4.685,1.735-13.947,2.062-15.937
						c0.006-0.017-0.005-0.047,0.001-0.059c-3.82-2.31-22.959-9.087-25.972-9.61c-14.133-2.457-28.769-11.586-79.834-11.587
						C168.434,278.068,147.048,287.202,132.906,289.658z"/>
					<g id="g35337" transform="matrix(1.384389,-0.143242,0.15642,1.267764,-86.62648,-64.7552)">
						<path id="path35329" stroke="#000000" stroke-width="1.6" d="M114.571,301.56c0.002,0.517-0.416,0.936-0.933,0.938
							c-0.517-0.002-0.936-0.421-0.933-0.936c-0.002-0.517,0.416-0.936,0.933-0.934C114.155,300.626,114.574,301.046,114.571,301.56
							z"/>
						<path id="path35331" stroke="#000000" stroke-width="1.6" d="M113.236,303.966c0.002,0.517-0.416,0.936-0.933,0.937
							c-0.517-0.002-0.936-0.418-0.938-0.935c0.003-0.517,0.422-0.937,0.939-0.935C112.814,303.032,113.233,303.452,113.236,303.966
							z"/>
						<path id="path35333" stroke="#000000" stroke-width="1.6" d="M115.108,305.571c0.002,0.517-0.421,0.937-0.933,0.934
							c-0.517,0.001-0.936-0.418-0.938-0.932c0.003-0.517,0.421-0.936,0.938-0.938C114.687,304.637,115.105,305.057,115.108,305.571
							z"/>
						<path id="path35335" stroke="#000000" d="M113.518,303.668l8.526-3.166l-4.184,2.394l2.686-0.084l-2.49,1.167l3.999,0.277
							L113.518,303.668z"/>
					</g>
					<g id="g35343" transform="matrix(1.384389,-0.143242,0.15642,1.267764,-45.03159,-76.65847)">
						<path id="path35345" stroke="#000000" stroke-width="1.6" d="M114.574,301.56c-0.003,0.517-0.422,0.936-0.938,0.938
							c-0.517-0.002-0.936-0.418-0.932-0.936c-0.003-0.517,0.416-0.937,0.933-0.935C114.153,300.626,114.572,301.046,114.574,301.56
							z"/>
						<path id="path35347" stroke="#000000" stroke-width="1.6" d="M113.234,303.969c0.002,0.514-0.416,0.933-0.933,0.934
							c-0.517-0.002-0.936-0.418-0.932-0.935c-0.002-0.517,0.416-0.936,0.933-0.935
							C112.818,303.032,113.237,303.452,113.234,303.969z"/>
						<path id="path35349" stroke="#000000" stroke-width="1.6" d="M115.106,305.571c0.002,0.517-0.416,0.936-0.933,0.938
							c-0.517-0.002-0.936-0.421-0.938-0.936c0.003-0.517,0.422-0.936,0.938-0.934C114.69,304.637,115.109,305.057,115.106,305.571z
							"/>
						<path id="path35351" stroke="#000000" d="M113.517,303.671l8.531-3.166l-4.189,2.391l2.686-0.084l-2.49,1.168l3.998,0.277
							L113.517,303.671z"/>
					</g>
					<g id="g35353" transform="matrix(1.378425,0.192343,-0.151629,1.268346,100.1696,-120.8592)">
						<path id="path35355" stroke="#000000" stroke-width="1.6" d="M114.573,301.562c-0.002,0.517-0.42,0.937-0.932,0.933
							c-0.516,0.001-0.94-0.417-0.938-0.934c0.002-0.517,0.421-0.934,0.937-0.935C114.156,300.625,114.575,301.045,114.573,301.562z
							"/>
						<path id="path35357" stroke="#000000" stroke-width="1.6" d="M113.235,303.969c0.003,0.515-0.415,0.932-0.932,0.933
							c-0.516,0.001-0.934-0.419-0.938-0.934c0.002-0.517,0.42-0.937,0.937-0.935C112.819,303.032,113.237,303.452,113.235,303.969z
							"/>
						<path id="path35359" stroke="#000000" stroke-width="1.6" d="M115.11,305.57c-0.001,0.52-0.42,0.937-0.936,0.938
							c-0.517-0.002-0.935-0.419-0.932-0.936c-0.004-0.515,0.415-0.935,0.931-0.936C114.689,304.638,115.106,305.055,115.11,305.57z
							"/>
						<path id="path35361" stroke="#000000" d="M113.517,303.669l8.531-3.167l-4.185,2.393l2.687-0.082l-2.494,1.167l4.003,0.277
							L113.517,303.669z"/>
					</g>
					<g id="g35373" transform="matrix(1.384389,0.143242,0.15642,-1.267764,54.4337,659.4577)">
						<path id="path35375" stroke="#000000" stroke-width="1.6" d="M114.573,301.559c0,0.517-0.415,0.935-0.933,0.935
							c-0.518,0-0.938-0.418-0.938-0.934c0-0.517,0.421-0.937,0.939-0.937C114.153,300.622,114.572,301.042,114.573,301.559z"/>
						<path id="path35377" stroke="#000000" stroke-width="1.6" d="M113.237,303.965c0,0.517-0.421,0.934-0.933,0.935
							c-0.518,0-0.937-0.417-0.938-0.934c0-0.517,0.421-0.934,0.933-0.935C112.818,303.031,113.237,303.448,113.237,303.965z"/>
						<path id="path35379" stroke="#000000" stroke-width="1.6" d="M115.107,305.57c0,0.517-0.421,0.934-0.933,0.935
							c-0.518,0-0.937-0.42-0.937-0.937c-0.001-0.514,0.421-0.934,0.933-0.935C114.689,304.634,115.107,305.054,115.107,305.57z"/>
						<path id="path35381" stroke="#000000" d="M113.522,303.669l8.526-3.166l-4.187,2.391l2.683-0.083l-2.488,1.17l3.997,0.272
							L113.522,303.669z"/>
					</g>
					<g id="g35383" transform="matrix(1.384389,0.143242,0.15642,-1.267764,96.41226,670.4203)">
						<path id="path35385" stroke="#000000" stroke-width="1.6" d="M114.576,301.56c0,0.517-0.421,0.934-0.939,0.934
							c-0.518,0-0.932-0.416-0.932-0.933c0-0.517,0.416-0.938,0.934-0.938C114.157,300.623,114.576,301.043,114.576,301.56z"/>
						<path id="path35387" stroke="#000000" stroke-width="1.6" d="M113.235,303.964c0,0.517-0.416,0.938-0.934,0.938
							c-0.518,0-0.937-0.421-0.937-0.937c0-0.517,0.421-0.934,0.939-0.934C112.816,303.031,113.235,303.448,113.235,303.964z"/>
						<path id="path35389" stroke="#000000" stroke-width="1.6" d="M115.105,305.57c0,0.517-0.415,0.935-0.933,0.935
							c-0.518,0-0.938-0.418-0.938-0.934c0.005-0.515,0.421-0.937,0.939-0.937C114.692,304.634,115.105,305.053,115.105,305.57z"/>
						<path id="path35391" stroke="#000000" d="M113.52,303.668l8.526-3.166l-4.187,2.391l2.689-0.082l-2.493,1.169l4.002,0.273
							L113.52,303.668z"/>
					</g>
				</g>
			</g>
		</g>
		<path id="path3803" fill="none" stroke="#000000" stroke-linecap="round" stroke-linejoin="round" d="M492.957,483.791
			c0,62.012-51.643,112.284-115.349,112.284s-115.349-50.271-115.349-112.284s51.643-112.284,115.349-112.284
			S492.957,421.779,492.957,483.791L492.957,483.791z"/>
		<path id="path3816" fill="#FFDE08" stroke="#000000" stroke-linecap="round" stroke-linejoin="round" d="M456.188,537.688
			c-1.459,0.029-2.532,1.221-2.532,3.999c8.544,5.57,6.866,15.255,1.313,22.688c-5.554,7.433-14.957,12.617-21.844,16.719
			l-0.031-1.219c-7.617,4.707-17.589,7.625-29.843,7.625c-6.212,0-36.773-3.902-39.719-20.219c-2.535-4.051-7.944-0.241-13-1.688
			c2.455,8.176,15.75,9.135,15.75,12.125c0,1.46-0.159,2.682-3.344,2.719c-4.019,0.047-9.315-6.631-11.782-2.281
			c-0.986-1.337-1.725-2.014-3.406-1.031c2.568,10.552,7.896,7.114,6.624,12.312c-6.395,0.322-10.188-8.596-15.687,0.063
			c12.163,4.248,25.248,6.562,38.907,6.562c29.847,0,57.074-11.029,77.562-29.156c0.061-0.054,0.127-0.103,0.188-0.156
			c0.042-0.042,0.083-0.083,0.125-0.125c5.746-5.783,9.062-11.702,9.062-17C464.531,543.156,459.397,537.623,456.188,537.688z"/>
		<path id="path3332" fill="#FFDE08" stroke="#000000" stroke-linecap="round" stroke-linejoin="round" d="M351.156,578.157
			c4.763,5.193,7.987,7.982,16.38,9.138"/>
		<path id="path3807" fill="none" stroke="#000000" stroke-linecap="round" stroke-linejoin="round" d="M350.676,565.736
			c4.995,4.15,9.461,5.741,15.095,7.545"/>
	</g>
</g>
</svg>
