<svg width="70" height="70" viewBox="0 0 70 70" xmlns="http://www.w3.org/2000/svg"><title>C3C84CB8-0059-4F7F-AD48-81AB5A0D3A4E</title><g fill="none" fill-rule="evenodd"><ellipse cx="35" cy="35" rx="35" ry="35" fill="#1d592c"/><path d="M21.267 26C20.033 26 19 26.958 19 28.143v15.714C19 45.042 20.033 46 21.267 46h27.466C49.967 46 51 45.042 51 43.857V28.143C51 26.958 49.967 26 48.733 26H21.267zm.384 1.429H48.35L35.65 38.32c-.316.272-.986.272-1.302 0L21.65 27.43zm-1.163.915l9.291 7.969-9.29 7.388V28.344zm29.024 0V43.7l-9.291-7.388 9.29-7.97zm-18.605 8.94l2.453 2.098c.93.798 2.35.798 3.28 0l2.453-2.099 9.174 7.288H21.733l9.174-7.288z" stroke="#FFF" stroke-width=".5" fill="#FFF" fill-rule="nonzero"/></g></svg>