<svg xmlns="http://www.w3.org/2000/svg" width="38" height="38" viewBox="0 0 38 38">
    <g fill="none" fill-rule="evenodd">
        <path fill="#FFF" d="M.31 22.881c0-2.547 2.49-4.612 5.563-4.612 3.072 0 5.562 2.065 5.562 4.612"/>
        <path fill="#FFF" fill-rule="nonzero" d="M.62 22.881c0-2.364 2.34-4.305 5.253-4.305 2.912 0 5.253 1.941 5.253 4.305h.618c0-2.73-2.64-4.92-5.871-4.92-3.232 0-5.872 2.19-5.872 4.92H.62z"/>
        <path fill="#1d592c" d="M4.015 16.116v3.075c0 .34.83.615 1.854.615s1.854-.275 1.854-.615v-3.075H4.015z"/>
        <path fill="#FFF" fill-rule="nonzero" d="M3.706 15.808h4.326v3.383c0 .601-.969.922-2.163.922s-2.163-.321-2.163-.922v-3.383zm.618 3.383c0-.024 0-.024.028-.002.062.048.166.1.304.145.311.103.746.164 1.213.164.467 0 .902-.06 1.214-.164.137-.046.242-.097.303-.145.028-.022.028-.022.028.002v-2.768h-3.09v2.768z"/>
        <path fill="#1d592c" d="M5.87 9.043a3.7 3.7 0 0 0-3.71 3.69v.615h.003c.02 2.694 1.671 4.87 3.706 4.87 2.036 0 3.686-2.176 3.707-4.87h.002v-.615a3.7 3.7 0 0 0-3.709-3.69"/>
        <path fill="#FFF" fill-rule="nonzero" d="M1.852 12.733c0-2.208 1.798-3.998 4.017-3.998 2.219 0 4.018 1.79 4.018 3.998v.923c-.152 2.708-1.872 4.87-4.018 4.87-2.145 0-3.866-2.162-4.006-4.87l-.011-.923zm7.417 0a3.391 3.391 0 0 0-3.4-3.382 3.391 3.391 0 0 0-3.4 3.382v.37l.003.243c.019 2.543 1.556 4.565 3.397 4.565 1.841 0 3.378-2.022 3.398-4.565l.002-.24v-.373z"/>
        <g>
            <path fill="#1d592c" d="M26.312 16.808c0-2.547 2.49-4.613 5.562-4.613s5.563 2.066 5.563 4.613"/>
            <path fill="#FFF" fill-rule="nonzero" d="M26.62 16.808c0-2.364 2.342-4.305 5.254-4.305 2.913 0 5.254 1.941 5.254 4.305h.618c0-2.73-2.64-4.92-5.872-4.92-3.231 0-5.871 2.19-5.871 4.92h.618z"/>
            <path fill="#1d592c" d="M30.017 10.043v3.075c0 .34.83.615 1.854.615s1.854-.276 1.854-.615v-3.075h-3.708z"/>
            <path fill="#FFF" fill-rule="nonzero" d="M29.708 9.735h4.326v3.383c0 .6-.969.922-2.163.922s-2.163-.321-2.163-.922V9.735zm.618 3.383c0-.024 0-.024.028-.002.061.048.166.1.303.145.312.103.747.164 1.214.164.467 0 .902-.06 1.213-.164.138-.046.242-.097.304-.145.028-.022.028-.022.028.002V10.35h-3.09v2.768z"/>
            <path fill="#FFF" d="M27.854 5.123c0-2.208 1.798-3.998 4.017-3.998 2.219 0 4.017 1.79 4.017 3.998"/>
            <path fill="#FFF" fill-rule="nonzero" d="M28.163 5.123a3.7 3.7 0 0 1 3.708-3.69 3.7 3.7 0 0 1 3.708 3.69h.618c0-2.378-1.937-4.306-4.326-4.306-2.39 0-4.326 1.928-4.326 4.306h.618z"/>
            <path fill="#545E65" d="M35.27 6.968h-6.798a.616.616 0 0 1-.618-.615v-1.23h8.034v1.23c0 .34-.276.615-.618.615"/>
            <path fill="#FFF" fill-rule="nonzero" d="M28.163 6.353c0 .17.138.307.309.307h6.798c.171 0 .31-.137.31-.307V5.43h-7.417v.923zm7.107.922h-6.798a.925.925 0 0 1-.927-.922V4.815h8.652v1.538c0 .51-.415.922-.927.922z"/>
            <path fill="#1d592c" d="M28.162 6.045v2.153a3.7 3.7 0 0 0 3.709 3.69 3.7 3.7 0 0 0 3.708-3.69V6.045a.617.617 0 0 0-.618-.615h-6.18a.616.616 0 0 0-.619.615"/>
            <path fill="#FFF" fill-rule="nonzero" d="M27.853 6.045c0-.51.415-.922.928-.922h6.18c.512 0 .927.413.927.922v2.153c0 2.207-1.799 3.997-4.017 3.997-2.219 0-4.018-1.79-4.018-3.997V6.045zm.619 0v2.153a3.391 3.391 0 0 0 3.399 3.382c1.877 0 3.4-1.514 3.4-3.382V6.045a.308.308 0 0 0-.31-.307h-6.18a.308.308 0 0 0-.31.307z"/>
        </g>
        <g>
            <path fill="#FFF" d="M29.345 28.045a1.68 1.68 0 0 1-1.684-1.676c0-.201.038-.394.103-.573a2.466 2.466 0 0 0-3.042 2.392 2.466 2.466 0 0 0 2.473 2.46 2.466 2.466 0 0 0 2.472-2.46c0-.058-.005-.116-.009-.173-.101.019-.206.03-.313.03"/>
            <path fill="#FFF" fill-rule="nonzero" d="M29.345 27.738c.083 0 .168-.009.256-.025l.341-.064.024.345.002.025c.006.08.008.12.008.169a2.775 2.775 0 0 1-2.781 2.768 2.774 2.774 0 0 1-2.782-2.768 2.774 2.774 0 0 1 3.422-2.691l.339.08-.12.324c-.055.153-.084.31-.084.468 0 .756.616 1.369 1.375 1.369zm-1.993-1.369c0-.11.01-.218.028-.325a2.158 2.158 0 0 0-2.348 2.144c0 1.189.968 2.153 2.163 2.153a2.16 2.16 0 0 0 2.157-1.988c-1.108 0-2-.888-2-1.984z"/>
            <path fill="#FFF" d="M22.25 24.652a3.545 3.545 0 0 1-3.554 3.536 3.545 3.545 0 0 1-3.554-3.536 3.545 3.545 0 0 1 3.554-3.537 3.545 3.545 0 0 1 3.554 3.537"/>
            <path fill="#FFF" fill-rule="nonzero" d="M21.941 24.652a3.237 3.237 0 0 0-3.245-3.23 3.237 3.237 0 0 0-3.244 3.23 3.237 3.237 0 0 0 3.244 3.228 3.237 3.237 0 0 0 3.245-3.228zm.618 0c0 2.123-1.73 3.844-3.863 3.844s-3.863-1.721-3.863-3.844c0-2.123 1.73-3.844 3.863-3.844 2.134 0 3.863 1.72 3.863 3.844z"/>
            <path fill="#FFF" d="M18.542 25.574c0-2.632 2.144-4.766 4.79-4.766 2.645 0 4.79 2.134 4.79 4.766s-2.145 4.767-4.79 4.767c-2.646 0-4.79-2.135-4.79-4.767"/>
            <path fill="#FFF" fill-rule="nonzero" d="M18.85 25.574c0 2.463 2.007 4.46 4.482 4.46s4.48-1.997 4.48-4.46c0-2.462-2.005-4.459-4.48-4.459-2.475 0-4.481 1.997-4.481 4.46zm-.617 0c0-2.802 2.283-5.074 5.099-5.074 2.816 0 5.099 2.272 5.099 5.074s-2.283 5.074-5.1 5.074c-2.815 0-5.098-2.272-5.098-5.074z"/>
            <path fill="#FFF" d="M22.868 27.727a3.545 3.545 0 0 0-3.554-3.537 3.545 3.545 0 0 0-3.553 3.537 3.545 3.545 0 0 0 3.553 3.536 3.545 3.545 0 0 0 3.554-3.536"/>
            <path fill="#FFF" fill-rule="nonzero" d="M23.177 27.727c0 2.123-1.73 3.844-3.863 3.844s-3.862-1.721-3.862-3.844c0-2.123 1.729-3.844 3.862-3.844 2.134 0 3.863 1.72 3.863 3.844zm-.618 0a3.237 3.237 0 0 0-3.245-3.23 3.237 3.237 0 0 0-3.244 3.23 3.237 3.237 0 0 0 3.244 3.229 3.237 3.237 0 0 0 3.245-3.23z"/>
            <path fill="#FFF" d="M27.195 28.188a3.391 3.391 0 0 0-3.4-3.383 3.391 3.391 0 0 0-3.399 3.383 3.391 3.391 0 0 0 3.4 3.383c1.877 0 3.399-1.515 3.399-3.383"/>
            <path fill="#FFF" fill-rule="nonzero" d="M27.504 28.188a3.7 3.7 0 0 1-3.709 3.69 3.7 3.7 0 0 1-3.708-3.69 3.7 3.7 0 0 1 3.708-3.69 3.7 3.7 0 0 1 3.709 3.69zm-.618 0a3.083 3.083 0 0 0-3.09-3.075 3.083 3.083 0 0 0-3.091 3.075 3.083 3.083 0 0 0 3.09 3.075 3.083 3.083 0 0 0 3.09-3.075z"/>
            <path fill="#FFF" d="M16.379 22.653c0-2.548 2.144-4.613 4.79-4.613 2.645 0 4.79 2.065 4.79 4.613"/>
            <path fill="#FFF" fill-rule="nonzero" d="M16.688 22.653c0-2.376 2.004-4.305 4.48-4.305 2.477 0 4.481 1.93 4.481 4.305h.619c0-2.72-2.286-4.92-5.1-4.92-2.813 0-5.098 2.2-5.098 4.92h.618z"/>
            <path fill="#1d592c" d="M19.16 27.573v4.444c0 .433.83.784 1.854.784s1.854-.351 1.854-.784v-4.444H19.16z"/>
            <path fill="#FFF" fill-rule="nonzero" d="M18.85 27.265h4.327v4.752c0 .675-.985 1.091-2.163 1.091s-2.163-.416-2.163-1.091v-4.752zm.619 4.752c0 .191.674.476 1.545.476.87 0 1.545-.285 1.545-.476V27.88h-3.09v4.137z"/>
            <path fill="#1d592c" d="M16.997 23.575v.684c0 3.128 1.754 5.774 3.863 5.774 2.108 0 3.862-2.646 3.862-5.774v-.684"/>
            <path fill="#FFF" fill-rule="nonzero" d="M16.688 23.575v.684c0 3.286 1.865 6.082 4.172 6.082 2.306 0 4.171-2.796 4.171-6.082v-.684h-.618v.684c0 2.986-1.654 5.467-3.553 5.467-1.9 0-3.554-2.48-3.554-5.467v-.684h-.618z"/>
            <path fill="#1d592c" d="M16.997 23.883c0-1.019 1.73-1.845 3.863-1.845s3.862.826 3.862 1.845"/>
            <path fill="#FFF" fill-rule="nonzero" d="M17.306 23.883c0-.788 1.57-1.538 3.554-1.538 1.983 0 3.553.75 3.553 1.538h.618c0-1.25-1.889-2.153-4.171-2.153-2.283 0-4.172.903-4.172 2.153h.618z"/>
            <path fill="#FFF" d="M19.16 25.42c0 .34-.208.615-.464.615-.255 0-.463-.275-.463-.615 0-.34.208-.615.463-.615.256 0 .464.276.464.615M23.795 25.42c0 .34-.207.615-.463.615s-.464-.275-.464-.615c0-.34.208-.615.464-.615s.463.276.463.615M21.808 18.04a3.59 3.59 0 0 1 0 5.095 3.633 3.633 0 0 1-5.12 0"/>
            <path fill="#FFF" fill-rule="nonzero" d="M21.59 18.257a3.284 3.284 0 0 1 0 4.66 3.323 3.323 0 0 1-4.684 0l-.437.436a3.943 3.943 0 0 0 5.557 0 3.897 3.897 0 0 0 0-5.53l-.437.434z"/>
            <path fill="#FFF" d="M23.249 20.193a2.334 2.334 0 0 0 0 3.311c.919.915 2.409.915 3.328 0"/>
            <path fill="#FFF" fill-rule="nonzero" d="M23.03 19.975a2.64 2.64 0 0 0 0 3.747 2.672 2.672 0 0 0 3.765 0l-.437-.435a2.051 2.051 0 0 1-2.891 0 2.027 2.027 0 0 1 0-2.877l-.437-.435z"/>
        </g>
        <path fill="#FFF" fill-rule="nonzero" d="M31.765 26.017c0-5.757-4.565-10.419-10.188-10.419s-10.188 4.662-10.188 10.42c0 5.757 4.565 10.418 10.188 10.418s10.188-4.661 10.188-10.419zm1.235 0c0 6.43-5.11 11.65-11.423 11.65-6.312 0-11.423-5.22-11.423-11.65 0-6.43 5.11-11.649 11.423-11.649 6.312 0 11.423 5.219 11.423 11.65z"/>
    </g>
</svg>
