<?xml version="1.0" encoding="utf-8"?>
<!-- Generator: Adobe Illustrator 16.0.0, SVG Export Plug-In . SVG Version: 6.00 Build 0)  -->
<!DOCTYPE svg PUBLIC "-//W3C//DTD SVG 1.1//EN" "http://www.w3.org/Graphics/SVG/1.1/DTD/svg11.dtd">
<svg version="1.1" id="Layer_1" xmlns="http://www.w3.org/2000/svg" xmlns:xlink="http://www.w3.org/1999/xlink" x="0px" y="0px"
	 width="20.632px" height="11.663px" viewBox="0 0 20.632 11.663" enable-background="new 0 0 20.632 11.663" xml:space="preserve">
<path id="Fill-1" fill="#061922" d="M20.63,5.793c0-0.009,0-0.017-0.002-0.026c0-0.004-0.001-0.009-0.001-0.013
	c-0.001-0.007-0.002-0.013-0.002-0.019c-0.001-0.007-0.002-0.014-0.003-0.021V5.713c-0.026-0.159-0.102-0.31-0.217-0.425
	c-0.657-0.78-1.441-1.474-2.236-2.108c-1.715-1.365-3.676-2.509-5.841-2.969c-1.251-0.265-2.51-0.277-3.768-0.053
	c-1.145,0.204-2.247,0.63-3.278,1.157c-1.615,0.825-3.09,1.963-4.376,3.239C0.669,4.791,0.432,5.032,0.216,5.288
	c-0.288,0.342-0.288,0.746,0,1.087c0.658,0.78,1.441,1.474,2.237,2.108c1.715,1.365,3.676,2.509,5.84,2.969
	c1.251,0.266,2.51,0.277,3.768,0.053c1.144-0.204,2.246-0.63,3.278-1.157c1.615-0.825,3.091-1.964,4.376-3.239
	c0.237-0.236,0.476-0.477,0.69-0.733c0.115-0.115,0.19-0.265,0.217-0.425V5.948c0.001-0.007,0.002-0.014,0.003-0.021
	c0.001-0.007,0.002-0.012,0.002-0.019c0-0.004,0.001-0.008,0.001-0.013c0.002-0.009,0.002-0.016,0.002-0.024
	c0.002-0.013,0.002-0.026,0.002-0.039C20.632,5.819,20.632,5.806,20.63,5.793z M10.316,9.802c-2.192,0-3.97-1.777-3.97-3.97
	s1.777-3.97,3.97-3.97s3.97,1.777,3.97,3.97S12.508,9.802,10.316,9.802z"/>
<path id="Fill-2" fill="#061922" d="M11.845,5.832c0,2.038-3.058,2.038-3.058,0C8.787,3.793,11.845,3.793,11.845,5.832"/>
</svg>
