<?xml version="1.0" encoding="utf-8"?>
<!-- Generator: Adobe Illustrator 16.0.0, SVG Export Plug-In . SVG Version: 6.00 Build 0)  -->
<!DOCTYPE svg PUBLIC "-//W3C//DTD SVG 1.1//EN" "http://www.w3.org/Graphics/SVG/1.1/DTD/svg11.dtd">
<svg version="1.1" id="Layer_1" xmlns="http://www.w3.org/2000/svg" xmlns:xlink="http://www.w3.org/1999/xlink" x="0px" y="0px"
	 width="647.511px" height="121.729px" viewBox="65.254 250.889 647.511 121.729"
	 enable-background="new 65.254 250.889 647.511 121.729" xml:space="preserve">
<g>
	<g>
		<path fill="#FFFFFF" d="M85.694,298.723c1.033-0.258,1.12-0.775,0.086-1.206l-3.359-1.464c-1.033-0.431-1.464-1.636-0.947-2.584
			l1.636-3.187c0.517-0.947,0.086-1.378-0.861-0.861l-3.187,1.723c-0.947,0.517-2.153,0.086-2.583-0.861l-1.55-3.359
			c-0.431-1.033-1.034-0.947-1.206,0.172l-0.689,3.531c-0.172,1.12-1.206,1.722-2.326,1.464l-3.531-0.861
			c-1.034-0.258-1.378,0.172-0.603,1.034l2.325,2.756c0.689,0.861,0.603,2.067-0.258,2.756l-2.842,2.239
			c-0.861,0.689-0.689,1.206,0.431,1.12l3.617-0.172c1.12,0,1.981,0.861,1.981,1.895l-0.086,3.617c0,1.12,0.517,1.292,1.12,0.431
			l2.153-2.928c0.689-0.861,1.895-1.034,2.756-0.344l2.842,2.325c0.861,0.688,1.292,0.431,1.034-0.689l-0.947-3.531
			c-0.258-1.034,0.344-2.153,1.464-2.325L85.694,298.723z"/>
		<path fill="#FFFFFF" d="M114.545,263.325c1.034-0.258,1.12-0.775,0.086-1.206l-3.358-1.464c-1.034-0.43-1.464-1.636-0.948-2.583
			l1.637-3.187c0.517-0.947,0.086-1.378-0.861-0.861l-3.187,1.723c-0.948,0.517-2.153,0.086-2.584-0.861l-1.55-3.273
			c-0.431-1.033-1.033-0.947-1.206,0.172l-0.689,3.531c-0.172,1.12-1.206,1.722-2.326,1.464l-3.531-0.861
			c-1.034-0.258-1.378,0.172-0.603,1.034l2.325,2.756c0.689,0.861,0.603,2.067-0.258,2.756l-2.842,2.239
			c-0.861,0.689-0.689,1.206,0.431,1.12l3.617-0.172c1.12,0,1.98,0.861,1.98,1.895v3.617c0,1.12,0.517,1.292,1.206,0.431
			l2.153-2.928c0.689-0.861,1.895-1.033,2.756-0.344l2.842,2.325c0.861,0.689,1.292,0.431,1.034-0.689l-0.947-3.445
			c-0.259-1.033,0.344-2.153,1.464-2.325L114.545,263.325z"/>
		<path fill="#FFFFFF" d="M124.191,339.718c1.034-0.259,1.12-0.775,0.086-1.206l-3.359-1.464c-1.033-0.431-1.464-1.637-0.947-2.584
			l1.636-3.187c0.517-0.947,0.086-1.378-0.861-0.861l-3.187,1.723c-0.947,0.517-2.153,0.086-2.583-0.861l-1.55-3.272
			c-0.431-1.033-1.033-0.947-1.206,0.172l-0.689,3.531c-0.172,1.12-1.206,1.723-2.326,1.464l-3.531-0.861
			c-1.034-0.258-1.378,0.173-0.603,1.034l2.325,2.756c0.689,0.861,0.603,2.067-0.258,2.756l-2.842,2.239
			c-0.861,0.689-0.689,1.206,0.43,1.119l3.618-0.172c1.119,0,1.98,0.861,1.98,1.895v3.617c0,1.12,0.517,1.292,1.206,0.431
			l2.153-2.928c0.689-0.861,1.895-1.033,2.756-0.345l2.842,2.325c0.861,0.689,1.292,0.431,1.034-0.688l-0.948-3.445
			c-0.258-1.033,0.345-2.153,1.464-2.325L124.191,339.718z"/>
		<path fill="#FFFFFF" d="M132.115,301.134c0.345-0.431,0.258-0.689-0.344-0.689l-2.153,0.086c-0.517,0-1.206-0.345-1.464-0.861
			l-1.034-1.895c-0.258-0.517-0.603-0.431-0.775,0.086l-0.517,2.067c-0.172,0.517-0.689,1.034-1.206,1.206l-2.067,0.431
			c-0.517,0.086-0.603,0.431-0.172,0.775l1.809,1.206c0.431,0.258,0.775,1.034,0.689,1.55l-0.258,2.153
			c-0.086,0.517,0.258,0.688,0.689,0.345l1.636-1.379c0.431-0.344,1.206-0.43,1.637-0.172l1.895,0.861
			c0.517,0.259,0.775,0,0.517-0.517l-0.775-1.981c-0.172-0.517-0.086-1.292,0.344-1.636L132.115,301.134z"/>
		<path fill="#FFFFFF" d="M148.479,282.703c1.033-0.258,1.12-0.775,0.086-1.206l-3.359-1.464c-1.033-0.431-1.464-1.637-0.947-2.584
			l1.636-3.272c0.517-0.948,0.086-1.378-0.861-0.861l-3.187,1.722c-0.947,0.517-2.153,0.086-2.583-0.861l-1.55-3.273
			c-0.431-1.033-1.034-0.947-1.206,0.172l-0.689,3.531c-0.172,1.12-1.206,1.723-2.326,1.464l-3.531-0.861
			c-1.034-0.258-1.378,0.172-0.603,1.034l2.412,2.756c0.689,0.861,0.603,2.067-0.259,2.756l-2.842,2.239
			c-0.861,0.689-0.689,1.206,0.431,1.12l3.617-0.172c1.12,0,1.981,0.861,1.981,1.895l-0.086,3.617c0,1.12,0.517,1.292,1.12,0.431
			l2.153-2.928c0.689-0.861,1.895-1.034,2.756-0.345l2.756,2.326c0.861,0.689,1.292,0.431,1.034-0.689l-0.947-3.445
			c-0.259-1.033,0.344-2.153,1.464-2.325L148.479,282.703z"/>
	</g>
	<g>
		<polygon fill="#FFFFFF" points="194.383,278.914 194.383,291.229 185.34,291.229 185.34,288.043 182.067,288.043 182.067,313.967 
			185.34,313.967 185.34,323.01 167.167,323.01 167.167,313.967 170.44,313.967 170.44,288.043 167.167,288.043 167.167,291.229 
			158.038,291.229 158.038,278.914 		"/>
		<g>
			<path fill="#FFFFFF" d="M279.043,323.01v-9.043h-3.531l-10.421-35.053h-22.392v9.043h4.048l-7.751,25.924h-4.048h-0.086
				l-7.062-8.44c4.565-1.981,7.148-6.546,7.148-12.316c0-9.388-5.856-14.297-15.588-14.297h-22.737v9.043h3.272v25.923h-3.272v9.043
				h14.899v-15.588h3.359l12.402,15.588h26.44v-9.043h-3.445l1.206-4.22h10.421l0.947,4.22h-3.187v9.043h19.378V323.01z
				 M222.976,293.21c0,3.875-2.239,5.167-4.909,5.167h-6.459v-10.421h6.459C220.651,288.043,222.976,289.335,222.976,293.21
				 M259.837,301.306h-6.029l3.187-11.971h0.086L259.837,301.306z"/>
		</g>
		<polygon fill="#FFFFFF" points="339.416,310.693 339.416,313.967 328.393,313.967 328.393,304.837 339.416,304.837 
			339.416,295.794 328.393,295.794 328.393,288.043 339.416,288.043 339.416,291.229 348.545,291.229 348.545,278.914 
			295.923,278.914 295.923,288.043 299.541,288.043 293.684,311.383 293.598,311.383 287.225,288.043 290.756,288.043 
			290.756,278.914 271.292,278.914 271.292,288.043 274.306,288.043 285.588,323.354 300.488,323.354 311.426,288.043 
			316.68,288.043 316.68,313.967 313.493,313.967 313.493,323.01 348.545,323.01 348.545,310.693 		"/>
		<polygon fill="#FFFFFF" points="385.148,310.693 385.148,323.01 350.785,323.01 350.785,313.967 353.971,313.967 353.971,288.043 
			350.785,288.043 350.785,278.914 368.957,278.914 368.957,288.043 365.684,288.043 365.684,313.967 376.105,313.967 
			376.105,310.693 		"/>
		<polygon fill="#FFFFFF" points="606.832,313.967 606.832,323.01 588.66,323.01 588.66,313.967 591.933,313.967 591.933,310.091 
			580.995,287.957 577.033,287.957 577.033,278.914 597.101,278.914 597.101,287.957 593.311,287.957 598.65,299.325 
			598.823,299.325 604.076,287.957 600.373,287.957 600.373,278.914 618.546,278.914 618.546,287.957 615.187,287.957 
			603.646,310.091 603.646,313.967 		"/>
		<polygon fill="#FFFFFF" points="574.708,291.229 574.708,278.914 523.119,278.914 523.119,303.545 523.033,303.545 
			508.22,278.914 493.665,278.914 493.665,287.957 496.852,287.957 496.852,313.967 493.665,313.967 493.665,323.01 507.617,323.01 
			507.617,300.014 507.703,300.014 521.828,323.01 533.885,323.01 533.885,287.957 542.928,287.957 542.928,313.967 
			539.655,313.967 539.655,323.01 574.708,323.01 574.708,310.693 565.665,310.693 565.665,313.967 554.642,313.967 
			554.642,304.837 565.665,304.837 565.665,295.794 554.642,295.794 554.642,287.957 565.665,287.957 565.665,291.229 		"/>
		<g>
			<path fill="#FFFFFF" d="M452.153,300.617c0-12.66,4.564-22.392,20.411-22.392c15.934,0,20.412,9.732,20.412,22.392
				s-4.565,22.995-20.412,22.995C456.632,323.698,452.153,313.277,452.153,300.617 M464.469,300.617
				c0,8.096,1.292,13.952,8.096,13.952s8.096-5.856,8.096-13.952s-1.292-13.263-8.096-13.263S464.469,292.521,464.469,300.617"/>
		</g>
		<polygon fill="#FFFFFF" points="451.464,278.914 451.464,287.957 448.191,287.957 448.191,313.967 451.464,313.967 
			451.464,323.01 436.564,323.01 436.564,299.67 436.393,299.67 428.555,323.01 421.148,323.01 412.363,299.67 412.191,299.67 
			412.191,323.01 398.239,323.01 398.239,313.967 401.512,313.967 401.512,287.957 398.239,287.957 398.239,278.914 
			415.809,278.914 425.541,303.545 425.627,303.545 434.239,278.914 		"/>
		<g>
			<path fill="#FFFFFF" d="M637.837,301.134c0.431,0,0.861-0.086,1.206-0.344c1.292-0.775,1.723-2.325,2.411-4.564
				c0.259-0.948,0.604-1.981,1.034-3.101c1.98-5.598,6.201-17.225,11.368-20.239c0.603-0.345,1.206-0.517,1.723-0.517
				c1.636,0,2.842,1.292,3.358,2.411c5.254,12.661-2.842,43.321-16.104,51.158c-0.775,0.518-1.551,0.689-2.326,0.689
				c-1.98,0-3.444-1.809-4.134-3.531c-2.066-4.909-2.239-13.005-1.98-16.191c0.172-2.239,0.517-4.564,1.119-6.89
				C636.201,300.79,637.062,301.134,637.837,301.134 M698.383,310.607c-0.431-1.119-1.464-1.809-2.842-1.809
				c-0.689,0-1.465,0.173-2.412,0.517c-5.684,2.067-10.421,4.048-14.296,5.599c-2.412,1.033-4.737,1.98-6.287,2.497
				c0.086-0.172,0.258-0.344,0.344-0.517c1.551-2.066,3.962-5.167,6.805-8.871c9.56-12.143,16.966-21.703,17.741-25.579
				c0.345-1.636-0.172-2.756-0.689-3.359c-0.861-1.033-2.411-1.55-4.479-1.55c-5.684,0-16.621,4.22-22.478,7.837
				c0.086-5.339-0.604-10.335-2.239-14.21c-1.981-4.737-6.029-7.665-10.594-7.665c-2.067,0-4.134,0.603-6.028,1.723
				c-4.651,2.756-8.183,8.354-10.594,13.78c-0.947-1.895-2.411-2.239-3.187-2.239c-0.689,0-1.292,0.172-1.98,0.603
				c-1.465,0.861-2.843,2.756-4.048,5.684c-3.704,8.871-9.043,29.541-3.187,43.751c2.411,5.771,6.631,9.043,11.626,9.043
				c2.239,0,4.565-0.688,6.891-2.066c11.799-6.977,20.066-24.115,22.564-39.876c0.688-0.086,1.378-0.258,2.066-0.603
				c6.546-3.531,12.661-6.201,15.675-6.977c-0.861,1.206-2.411,3.187-4.134,5.426c-5.426,7.062-13.607,17.742-17.311,22.909
				c-3.445,4.737-4.134,6.115-4.307,7.493c-0.086,0.688-0.345,2.842,0.947,4.479c0.689,0.861,1.551,1.292,2.67,1.292
				c0.086,0,0.173,0,0.259,0c5.34,0,28.679-9.13,31.091-11.282C697.78,315.172,699.072,312.502,698.383,310.607"/>
		</g>
		<g>
			<path fill="#FFFFFF" d="M707.081,289.593c-3.187,0-5.684-2.583-5.684-5.684c0-3.187,2.583-5.684,5.684-5.684
				c3.187,0,5.685,2.583,5.685,5.684S710.182,289.593,707.081,289.593z M707.081,279.086c-2.67,0-4.736,2.153-4.736,4.737
				c0,2.669,2.153,4.736,4.736,4.736c2.67,0,4.737-2.153,4.737-4.736C711.818,281.239,709.665,279.086,707.081,279.086z
				 M704.584,280.895h2.756c1.55,0,2.066,0.948,2.066,1.637c0,1.033-0.688,1.722-1.722,1.809l0,0
				c0.517,0.172,0.947,0.689,1.464,1.55l0.775,1.206h-1.206l-0.775-1.034c-0.775-1.378-1.033-1.636-1.809-1.636h-0.603v2.584h-1.033
				v-6.115H704.584z M706.995,283.564c0.775,0,1.292-0.258,1.292-0.947c0-0.517-0.431-0.947-1.119-0.947h-1.637v1.809h1.464V283.564
				z"/>
		</g>
	</g>
</g>
<g>
	<path fill="#FFFFFF" d="M166.995,341.957v3.187h-2.756l3.79,15.589l0,0l4.479-18.775h4.306l4.65,18.775l0,0l3.618-15.589h-2.756
		v-3.187h8.268v3.187h-1.55l-5.167,20.498h-5.426l-4.134-16.364h-0.086l-3.875,16.364h-5.34l-5.426-20.498h-1.636v-3.187H166.995z"
		/>
	<path fill="#FFFFFF" d="M194.297,357.546c0.086,3.014,1.722,5.081,5.339,5.081c1.55,0,3.273-0.086,5.426-0.689l0.517,3.015
		c-2.239,0.603-4.134,0.775-6.374,0.775c-6.545,0-8.785-3.617-8.785-8.957c0-5.426,2.239-8.957,8.699-8.957
		c7.321,0,7.665,5.34,6.89,9.732H194.297z M194.297,355.134h7.837c0.431-2.153-0.172-4.393-3.359-4.393
		C195.761,350.741,194.469,352.637,194.297,355.134z"/>
	<path fill="#FFFFFF" d="M225.99,353.153v-1.895c-1.55-0.345-2.928-0.345-3.703-0.345c-2.584,0-3.014,1.292-3.014,1.895
		c0,0.947,0.603,1.637,3.272,2.239c3.445,0.689,7.062,1.637,7.062,5.426c0,3.617-2.498,5.426-6.631,5.426
		c-2.756,0-5.598-0.258-7.665-0.775v-4.564h3.101v1.895c1.636,0.345,3.187,0.345,4.048,0.345c2.756,0,3.272-1.464,3.272-2.066
		c0-1.034-0.861-1.637-3.445-2.153c-3.79-0.689-6.89-1.895-6.89-5.685c0-3.531,2.498-4.995,6.632-4.995
		c2.756,0,4.995,0.259,7.062,0.775v4.564h-3.101V353.153z"/>
	<path fill="#FFFFFF" d="M231.675,348.158h5.942v1.723h0.086c1.12-1.206,3.101-2.067,5.082-2.067c4.823,0,6.373,4.048,6.373,8.957
		c0,4.995-1.722,8.957-6.545,8.957c-1.895,0-3.703-0.775-4.823-1.981h-0.086v5.426h2.067v3.101h-8.096v-3.101h2.153v-17.913h-2.153
		V348.158z M241.234,351c-1.723,0-3.014,0.775-3.617,1.292v9.129c0.603,0.517,1.895,1.292,3.617,1.292
		c3.015,0,3.875-2.584,3.875-5.856C245.024,353.67,244.249,351,241.234,351z"/>
	<path fill="#FFFFFF" d="M254.756,357.546c0.086,3.014,1.723,5.081,5.34,5.081c1.55,0,3.272-0.086,5.426-0.689l0.517,3.015
		c-2.239,0.603-4.134,0.775-6.373,0.775c-6.545,0-8.785-3.617-8.785-8.957c0-5.426,2.239-8.957,8.699-8.957
		c7.32,0,7.665,5.34,6.89,9.732H254.756z M254.756,355.134h7.837c0.431-2.153-0.172-4.393-3.359-4.393
		C256.134,350.741,254.928,352.637,254.756,355.134z"/>
	<path fill="#FFFFFF" d="M268.88,360.56c0-4.22,3.704-5.34,7.321-5.34h3.445v-1.464c0-2.066-1.12-2.842-3.704-2.842
		c-0.689,0-1.636,0.086-2.842,0.258v1.896H270v-4.565c2.412-0.517,4.909-0.774,6.89-0.774c4.306,0,6.631,1.205,6.631,5.771v8.698
		h2.067v3.101h-5.942v-1.723h-0.086c-1.378,1.206-2.928,2.067-5.254,2.067C270.775,365.813,268.88,363.574,268.88,360.56z
		 M279.646,357.546h-2.928c-2.756,0-4.048,0.688-4.048,2.756c0,1.636,1.292,2.583,3.101,2.583c1.722,0,3.1-0.688,3.875-1.291
		V357.546z"/>
	<path fill="#FFFFFF" d="M287.053,341.268h5.942v15.072l6.632-5.081h-1.723v-3.101h8.268v3.101h-2.239l-4.306,3.272l5.081,7.751
		h1.809v3.101h-8.268v-3.101h1.722l-3.531-5.685l-3.445,2.67v3.015h2.067v3.101h-8.009v-3.101h2.153v-17.914h-2.153V341.268z"/>
	<path fill="#FFFFFF" d="M326.153,348.158h7.32v3.101h-1.378l-6.029,14.813c-1.55,3.703-3.703,6.545-7.234,6.545
		c-0.861,0-1.981-0.086-2.756-0.258l0.344-3.015c0.517,0.086,1.206,0.172,1.637,0.172c2.067,0,3.445-1.723,4.134-3.703
		l-5.942-14.555h-1.55v-3.101h7.923v3.101h-2.239l4.134,10.852h0.086l3.703-10.852h-2.153V348.158L326.153,348.158z"/>
	<path fill="#FFFFFF" d="M334.766,356.856c0-5.426,2.239-8.957,8.182-8.957c5.943,0,8.182,3.617,8.182,8.957
		c0,5.426-2.239,8.957-8.182,8.957C336.918,365.813,334.766,362.196,334.766,356.856z M338.727,356.856
		c0,3.445,0.948,5.856,4.134,5.856s4.134-2.411,4.134-5.856S346.048,351,342.861,351S338.727,353.411,338.727,356.856z"/>
	<path fill="#FFFFFF" d="M352.593,348.158h5.943v11.023c0,2.067,0.947,3.445,3.1,3.445c1.723,0,3.273-1.033,4.22-1.637v-9.646
		h-2.412v-3.101h6.287v14.124h2.067v3.101h-5.942v-2.325h-0.086c-1.55,1.55-3.531,2.67-5.856,2.67c-3.445,0-5.167-2.153-5.167-5.771
		v-8.698h-2.153V348.158z"/>
	<path fill="#FFFFFF" d="M373.349,348.158h5.943v2.756h0.086c1.206-1.551,3.445-3.101,6.201-3.101v3.617
		c-2.412,0-4.909,0.861-6.287,1.637v9.215h2.325v3.101h-8.268v-3.101h2.153v-11.023h-2.153V348.158L373.349,348.158z"/>
	<path fill="#FFFFFF" d="M406.335,353.153v-1.895C405.129,351,404.268,351,403.579,351c-3.187,0-4.651,2.239-4.651,5.856
		s1.551,5.856,4.651,5.856c1.206,0,2.411,0,5.253-0.688l0.689,3.014c-2.067,0.517-3.789,0.775-5.942,0.775
		c-6.46,0-8.699-3.617-8.699-8.957c0-5.426,2.153-8.957,8.699-8.957c2.153,0,3.875,0.259,5.942,0.775v4.564h-3.187V353.153z"/>
	<path fill="#FFFFFF" d="M411.244,348.158h5.942v11.023c0,2.067,0.947,3.445,3.101,3.445c1.723,0,3.272-1.033,4.22-1.637v-9.646
		h-2.497v-3.101h6.287v14.124h2.066v3.101h-5.942v-2.325h-0.086c-1.55,1.55-3.531,2.67-5.856,2.67c-3.445,0-5.168-2.153-5.168-5.771
		v-8.698h-2.152v-3.187H411.244z"/>
	<path fill="#FFFFFF" d="M431.914,348.158h5.942v2.756h0.086c1.206-1.551,3.445-3.101,6.201-3.101v3.617
		c-2.411,0-4.909,0.861-6.287,1.637v9.215h2.325v3.101h-8.268v-3.101h2.153v-11.023h-2.153V348.158L431.914,348.158z"/>
	<path fill="#FFFFFF" d="M446.124,348.158h5.943v2.756h0.086c1.206-1.551,3.444-3.101,6.201-3.101v3.617
		c-2.412,0-4.909,0.861-6.287,1.637v9.215h2.325v3.101h-8.269v-3.101h2.153v-11.023h-2.153V348.158z"/>
	<path fill="#FFFFFF" d="M463.866,357.546c0.086,3.014,1.723,5.081,5.34,5.081c1.55,0,3.272-0.086,5.426-0.689l0.517,3.015
		c-2.239,0.603-4.134,0.775-6.373,0.775c-6.546,0-8.785-3.617-8.785-8.957c0-5.426,2.239-8.957,8.698-8.957
		c7.321,0,7.665,5.34,6.891,9.732H463.866z M463.866,355.134h7.837c0.431-2.153-0.172-4.393-3.358-4.393
		C465.244,350.741,464.038,352.637,463.866,355.134z"/>
	<path fill="#FFFFFF" d="M489.101,362.282h1.895v-7.837c0-2.067-0.861-3.445-3.101-3.445c-1.723,0-3.272,1.033-4.22,1.637v9.646
		h1.895v3.101h-7.837v-3.101h2.152v-11.023h-2.152v-3.101h5.942v2.325h0.086c1.551-1.637,3.531-2.67,5.856-2.67
		c3.445,0,5.168,2.153,5.168,5.771v8.698h2.066v3.101h-7.837v-3.101H489.101z"/>
	<path fill="#FFFFFF" d="M509.942,353.153v-1.895C508.736,351,507.876,351,507.187,351c-3.187,0-4.65,2.239-4.65,5.856
		s1.55,5.856,4.65,5.856c1.206,0,2.411,0,5.254-0.688l0.688,3.014c-2.066,0.517-3.789,0.775-5.942,0.775
		c-6.459,0-8.698-3.617-8.698-8.957c0-5.426,2.152-8.957,8.698-8.957c2.153,0,3.876,0.259,5.942,0.775v4.564h-3.187V353.153z"/>
	<path fill="#FFFFFF" d="M526.393,348.158h7.32v3.101h-1.378l-6.028,14.813c-1.551,3.703-3.704,6.545-7.234,6.545
		c-0.861,0-1.981-0.086-2.757-0.258l0.345-3.015c0.517,0.086,1.206,0.172,1.637,0.172c2.066,0,3.445-1.723,4.134-3.703
		l-5.942-14.555h-1.551v-3.101h7.924v3.101h-2.239l4.134,10.852h0.086l3.704-10.852h-2.153V348.158z"/>
</g>
</svg>
