<?xml version="1.0" encoding="utf-8"?>
<!-- Generator: Adobe Illustrator 16.0.0, SVG Export Plug-In . SVG Version: 6.00 Build 0)  -->
<!DOCTYPE svg PUBLIC "-//W3C//DTD SVG 1.1//EN" "http://www.w3.org/Graphics/SVG/1.1/DTD/svg11.dtd" [
	<!ENTITY ns_extend "http://ns.adobe.com/Extensibility/1.0/">
	<!ENTITY ns_ai "http://ns.adobe.com/AdobeIllustrator/10.0/">
	<!ENTITY ns_graphs "http://ns.adobe.com/Graphs/1.0/">
	<!ENTITY ns_vars "http://ns.adobe.com/Variables/1.0/">
	<!ENTITY ns_imrep "http://ns.adobe.com/ImageReplacement/1.0/">
	<!ENTITY ns_sfw "http://ns.adobe.com/SaveForWeb/1.0/">
	<!ENTITY ns_custom "http://ns.adobe.com/GenericCustomNamespace/1.0/">
	<!ENTITY ns_adobe_xpath "http://ns.adobe.com/XPath/1.0/">
]>
<svg version="1.1" id="Layer_1" xmlns:x="&ns_extend;" xmlns:i="&ns_ai;" xmlns:graph="&ns_graphs;"
	 xmlns="http://www.w3.org/2000/svg" xmlns:xlink="http://www.w3.org/1999/xlink" x="0px" y="0px" width="73.24px"
	 height="72.345px" viewBox="625.331 263.497 73.24 72.345" enable-background="new 625.331 263.497 73.24 72.345"
	 xml:space="preserve">
<metadata>
	<sfw  xmlns="&ns_sfw;">
		<slices></slices>
		<sliceSourceBounds  width="73.241" height="72.345" bottomLeftOrigin="true" y="31.522" x="697.075"></sliceSourceBounds>
	</sfw>
</metadata>
<path fill="#FFFFFF" d="M637.837,301.134c0.43,0,0.861-0.086,1.205-0.344c1.293-0.775,1.723-2.325,2.412-4.564
	c0.258-0.948,0.604-1.98,1.033-3.101c1.98-5.599,6.201-17.226,11.367-20.239c0.604-0.345,1.207-0.517,1.725-0.517
	c1.635,0,2.842,1.292,3.357,2.41c5.254,12.661-2.842,43.321-16.104,51.158c-0.775,0.519-1.551,0.689-2.326,0.689
	c-1.98,0-3.445-1.809-4.135-3.531c-2.066-4.909-2.238-13.005-1.98-16.19c0.174-2.239,0.518-4.564,1.119-6.891
	C636.201,300.79,637.062,301.134,637.837,301.134 M698.382,310.608c-0.43-1.119-1.463-1.81-2.842-1.81
	c-0.689,0-1.465,0.173-2.412,0.518c-5.684,2.066-10.42,4.048-14.295,5.599c-2.412,1.033-4.738,1.979-6.287,2.497
	c0.086-0.172,0.258-0.344,0.344-0.518c1.551-2.065,3.961-5.167,6.805-8.87c9.561-12.144,16.967-21.704,17.74-25.58
	c0.346-1.636-0.172-2.756-0.688-3.358c-0.861-1.033-2.412-1.55-4.48-1.55c-5.684,0-16.619,4.22-22.477,7.837
	c0.086-5.339-0.605-10.335-2.24-14.21c-1.98-4.737-6.029-7.665-10.594-7.665c-2.066,0-4.133,0.603-6.027,1.723
	c-4.65,2.756-8.184,8.354-10.594,13.78c-0.947-1.896-2.412-2.239-3.188-2.239c-0.689,0-1.293,0.172-1.98,0.603
	c-1.465,0.861-2.842,2.757-4.047,5.685c-3.705,8.871-9.043,29.541-3.188,43.751c2.41,5.771,6.631,9.043,11.625,9.043
	c2.24,0,4.566-0.688,6.893-2.065c11.799-6.978,20.064-24.115,22.562-39.877c0.689-0.086,1.379-0.258,2.066-0.603
	c6.547-3.531,12.662-6.201,15.676-6.978c-0.861,1.206-2.412,3.188-4.135,5.427c-5.426,7.062-13.607,17.742-17.311,22.909
	c-3.445,4.736-4.135,6.114-4.307,7.493c-0.086,0.688-0.346,2.842,0.947,4.479c0.688,0.861,1.551,1.292,2.67,1.292
	c0.086,0,0.172,0,0.258,0c5.34,0,28.68-9.13,31.092-11.282C697.781,315.172,699.072,312.502,698.382,310.608"/>
</svg>
