<?xml version="1.0" encoding="utf-8"?>
<!-- Generator: Adobe Illustrator 16.0.0, SVG Export Plug-In . SVG Version: 6.00 Build 0)  -->
<!DOCTYPE svg PUBLIC "-//W3C//DTD SVG 1.1//EN" "http://www.w3.org/Graphics/SVG/1.1/DTD/svg11.dtd">
<svg version="1.1" id="Layer_1" xmlns="http://www.w3.org/2000/svg" xmlns:xlink="http://www.w3.org/1999/xlink" x="0px" y="0px"
	 width="20.658px" height="16.256px" viewBox="0 0 20.658 16.256" enable-background="new 0 0 20.658 16.256" xml:space="preserve">
<path fill="#01563e" d="M5.734,0L4.402,1.332l2.253,2.253c-0.468,0.18-0.928,0.383-1.373,0.61c-1.615,0.825-3.09,1.963-4.376,3.239
	C0.669,7.671,0.432,7.912,0.216,8.168c-0.288,0.342-0.288,0.746,0,1.087c0.658,0.78,1.441,1.474,2.237,2.108
	c1.715,1.365,3.676,2.509,5.84,2.969c1.251,0.266,2.51,0.277,3.768,0.053c1.144-0.204,2.246-0.63,3.278-1.157
	c0.208-0.106,0.407-0.231,0.61-0.348l3.376,3.376l1.332-1.332L5.734,0z M10.316,12.682c-2.192,0-3.97-1.777-3.97-3.97
	c0-1.474,0.812-2.746,2.005-3.43l1.906,1.906C9.513,7.213,8.787,7.719,8.787,8.712c0,2.018,2.992,2.034,3.052,0.058l1.907,1.907
	C13.061,11.869,11.79,12.682,10.316,12.682z"/>
</svg>
